<svg width="444" height="830" viewBox="0 0 444 830" fill="none" xmlns="http://www.w3.org/2000/svg" preserveAspectRatio="none" >
<path d="M26.9887 796.949V432.412C26.9887 430.182 22.8408 425.731 13.8409 418.501C4.84102 411.82 0 404.581 0 396.793V35.5928C0 21.6814 8.30676 15 25.6024 15C42.8981 15 51.2048 21.6814 51.2048 35.5928V399.572H26.9887V32.2565H24.2161V396.793C24.2161 399.572 29.0571 404.581 38.057 411.262C47.0569 418.501 51.2048 426.289 51.2048 434.634V793.604C51.2048 807.516 42.8981 814.197 25.6024 814.197C8.30676 814.197 0 807.524 0 793.613V430.182H24.2161V796.949H26.9887Z" fill="white"/>
<path d="M107.43 15.8033V814.197H53.2129V15.8033H78.9341V798.049H84.494V15.8033H107.43Z" fill="white"/>
<path d="M109.438 35.5926C109.438 21.6813 117.896 15 135.542 15C153.188 15 161.646 21.6813 161.646 35.5926V814.197H136.955V423.505H134.128V814.197H109.438V35.5926ZM136.944 407.364V32.2563H134.117V407.364H136.944Z" fill="white"/>
<path d="M214.86 394.395C214.86 404.974 209.325 411.1 198.95 412.765V413.88C209.325 413.88 214.86 419.449 214.86 431.143V814.197H190.643V420.564H187.871V814.197H163.655V15.8033H192.03C207.257 15.8033 214.86 21.9294 214.86 34.1729V394.395ZM190.643 31.9508H187.871V404.983H190.643V31.9508Z" fill="white"/>
<path d="M251.004 15.8033V31.9508H245.422V814.197H222.439V31.9508H216.868V15.8033H251.004Z" fill="white"/>
<path d="M282.129 798.049V814.197H254.016V15.8033H276.635V798.049H282.129Z" fill="white"/>
<path d="M309.357 425.415V797.744H312.129V15.8033H336.345V795.523C336.345 808.319 328.039 815 310.743 815C293.447 815 285.141 808.319 285.141 795.523V425.415H309.357Z" fill="white"/>
<path d="M390.562 15.8033V794.407C390.562 808.319 382.093 815 364.458 815C346.823 815 338.354 808.319 338.354 794.407V15.8033H363.044V797.744H365.871V15.8033H390.562Z" fill="white"/>
<path d="M419.559 796.949V432.412C419.559 430.182 415.411 425.731 406.411 418.501C397.411 411.82 392.57 404.59 392.57 396.793V35.5928C392.57 21.6814 400.877 15 418.173 15C435.468 15 443.775 21.6814 443.775 35.5928V399.572H419.559V32.2565H416.786V396.793C416.786 399.572 421.627 404.581 430.627 411.262C439.627 418.501 443.775 426.289 443.775 434.634V793.604C443.775 807.516 435.468 814.197 418.173 814.197C400.877 814.197 392.57 807.516 392.57 793.604V430.182H416.786V796.949H419.559Z" fill="white"/>
<path d="M4.21797 824.728V826.491H8.37168V828H2.70888V820.25H8.19736V821.76H4.21797V823.318H7.83877V824.728H4.21797Z" fill="white"/>
<path d="M11.0611 820.25V826.491H14.9359V828H9.55205V820.25H11.0611Z" fill="white"/>
<path d="M17.3066 828H15.7826V820.25H17.3066V828Z" fill="white"/>
<path d="M19.7172 828H18.0437L21.1167 820.25H22.6955L25.7535 828H24.0801L23.4177 826.172H20.3895L19.7172 828ZM21.8986 822.004L20.8776 824.768H22.9196L21.8986 822.004Z" fill="white"/>
<path d="M29.4142 828.164C28.8663 828.164 28.3782 828.098 27.9499 827.965C27.5216 827.832 27.168 827.646 26.8891 827.407C26.6135 827.165 26.3977 826.884 26.2416 826.566C26.0855 826.244 25.9893 825.885 25.9527 825.49H27.5963C27.7125 825.981 27.9267 826.333 28.2388 826.546C28.5542 826.755 28.9692 826.859 29.4839 826.859C29.879 826.859 30.1861 826.783 30.4053 826.63C30.6277 826.478 30.739 826.257 30.739 825.968C30.739 825.852 30.7124 825.746 30.6593 825.649C30.6095 825.55 30.5464 825.467 30.47 825.4C30.397 825.331 30.3007 825.266 30.1812 825.206C30.0649 825.143 29.9587 825.095 29.8624 825.062C29.7661 825.025 29.6499 824.985 29.5138 824.942C29.4208 824.912 29.2598 824.862 29.0307 824.793C28.8016 824.723 28.599 824.658 28.423 824.598C28.2471 824.539 28.0744 824.476 27.9051 824.409C27.7092 824.326 27.5349 824.243 27.3821 824.16C27.2327 824.074 27.0866 823.971 26.9438 823.851C26.8011 823.732 26.6832 823.604 26.5902 823.468C26.5006 823.332 26.4275 823.172 26.3711 822.99C26.318 822.807 26.2914 822.608 26.2914 822.392C26.2914 822.067 26.3479 821.773 26.4607 821.51C26.5736 821.245 26.7247 821.026 26.914 820.853C27.1032 820.677 27.324 820.531 27.5764 820.415C27.832 820.299 28.096 820.216 28.3683 820.166C28.6405 820.113 28.9211 820.086 29.21 820.086C30.1164 820.086 30.822 820.32 31.3267 820.788C31.8347 821.256 32.1036 821.886 32.1335 822.676H30.4949C30.475 822.427 30.4202 822.214 30.3306 822.038C30.2409 821.862 30.128 821.73 29.9919 821.64C29.8558 821.55 29.7163 821.487 29.5735 821.451C29.4308 821.411 29.2747 821.391 29.1054 821.391C28.9825 821.391 28.863 821.403 28.7468 821.426C28.6306 821.449 28.5077 821.491 28.3782 821.55C28.2487 821.607 28.1441 821.698 28.0645 821.824C27.9848 821.947 27.9449 822.098 27.9449 822.277C27.9449 822.493 28.013 822.668 28.1491 822.8C28.2853 822.933 28.5061 823.058 28.8115 823.174C29.0174 823.247 29.4822 823.393 30.2061 823.612C30.6111 823.732 30.9 823.831 31.0727 823.911C31.8961 824.296 32.3078 824.952 32.3078 825.878C32.3078 826.642 32.0604 827.215 31.5657 827.597C31.071 827.975 30.3538 828.164 29.4142 828.164Z" fill="white"/>
<path d="M37.0891 828H35.4156L38.4886 820.25H40.0674L43.1254 828H41.452L40.7895 826.172H37.7614L37.0891 828ZM39.2705 822.004L38.2495 824.768H40.2915L39.2705 822.004Z" fill="white"/>
<path d="M45.2471 828H43.5736L46.6466 820.25H48.2254L51.2834 828H49.61L48.9475 826.172H45.9194L45.2471 828ZM47.4285 822.004L46.4075 824.768H48.4495L47.4285 822.004Z" fill="white"/>
<path d="M55.3973 828H52.1251V820.25H55.0337C55.4354 820.25 55.799 820.292 56.1244 820.375C56.4498 820.455 56.732 820.576 56.9711 820.739C57.2135 820.898 57.4011 821.107 57.5339 821.366C57.6667 821.625 57.7331 821.922 57.7331 822.258C57.7331 822.639 57.6335 822.971 57.4343 823.254C57.2351 823.533 56.9711 823.71 56.6424 823.787C57.0906 823.87 57.4525 824.09 57.7281 824.449C58.0037 824.804 58.1415 825.233 58.1415 825.734C58.1415 826.444 57.8925 827.001 57.3944 827.402C56.8997 827.801 56.234 828 55.3973 828ZM53.6441 821.575V823.368H54.7946C55.2263 823.368 55.5583 823.297 55.7907 823.154C56.0265 823.011 56.1443 822.797 56.1443 822.512C56.1443 822.216 56.0364 821.987 55.8206 821.824C55.6048 821.658 55.2943 821.575 54.8893 821.575H53.6441ZM53.6441 824.489V826.675H55.0337C55.4919 826.675 55.8588 826.586 56.1344 826.406C56.4133 826.224 56.5527 825.95 56.5527 825.585C56.5527 825.233 56.4116 824.962 56.1294 824.773C55.8505 824.583 55.4703 824.489 54.9889 824.489H53.6441Z" fill="white"/>
<path d="M61.6826 828.164C59.8066 828.164 58.8172 827.266 58.7142 825.47H60.303C60.3528 825.931 60.4807 826.27 60.6865 826.486C60.8957 826.698 61.2161 826.805 61.6477 826.805C61.7905 826.805 61.9184 826.793 62.0312 826.77C62.1475 826.743 62.2504 826.71 62.34 826.67C62.4297 826.63 62.5077 826.572 62.5741 826.496C62.6405 826.416 62.697 826.34 62.7434 826.267C62.7899 826.19 62.8281 826.088 62.858 825.958C62.8912 825.829 62.9161 825.709 62.9327 825.599C62.9526 825.487 62.9676 825.342 62.9775 825.166C62.9875 824.987 62.9925 824.826 62.9925 824.683C62.9958 824.537 62.9975 824.351 62.9975 824.125V820.25H64.5364V824.643C64.5364 825.211 64.4899 825.702 64.397 826.117C64.3073 826.529 64.1546 826.894 63.9388 827.213C63.7263 827.529 63.4324 827.766 63.0572 827.925C62.682 828.085 62.2238 828.164 61.6826 828.164Z" fill="white"/>
<path d="M67.5994 824.728V826.491H71.7531V828H66.0903V820.25H71.5788V821.76H67.5994V823.318H71.2202V824.728H67.5994Z" fill="white"/>
<path d="M74.4525 828H72.9335V820.25H75.8421C76.6755 820.25 77.3329 820.445 77.8144 820.833C78.2991 821.218 78.5415 821.774 78.5415 822.502C78.5415 823.162 78.329 823.679 77.904 824.051C77.479 824.419 76.8963 824.642 76.1559 824.718L78.9798 828H77.127L74.4525 824.828V828ZM74.4525 821.575V823.533H75.6777C76.033 823.533 76.3318 823.453 76.5742 823.294C76.8199 823.134 76.9428 822.893 76.9428 822.571C76.9428 822.249 76.8216 822.004 76.5792 821.834C76.3401 821.662 76.0147 821.575 75.603 821.575H74.4525Z" fill="white"/>
<path d="M83.6714 828.164C82.3897 828.164 81.3754 827.798 80.6283 827.064C79.8812 826.327 79.5077 825.341 79.5077 824.105C79.5077 823.494 79.6007 822.938 79.7866 822.437C79.9759 821.932 80.2382 821.509 80.5735 821.167C80.9089 820.822 81.314 820.556 81.7888 820.37C82.2669 820.181 82.7915 820.086 83.3626 820.086C84.0233 820.086 84.6227 820.207 85.1605 820.45C85.7018 820.689 86.1384 821.022 86.4704 821.451C86.8058 821.876 87.0083 822.362 87.078 822.91H85.4544C85.3349 822.468 85.0925 822.113 84.7272 821.844C84.362 821.575 83.9121 821.441 83.3775 821.441C82.6902 821.441 82.144 821.678 81.739 822.153C81.3339 822.628 81.1313 823.279 81.1313 824.105C81.1313 824.939 81.3538 825.598 81.7987 826.083C82.2437 826.564 82.8712 826.805 83.6813 826.805C84.0698 826.805 84.4467 826.738 84.8119 826.606C85.1771 826.473 85.4527 826.285 85.6387 826.043V825.121H83.0787V823.816H87.078V826.511C86.7726 827.009 86.3077 827.409 85.6835 827.711C85.0626 828.013 84.3919 828.164 83.6714 828.164Z" fill="white"/>
<path d="M92.6412 820.25V826.491H96.516V828H91.1321V820.25H92.6412Z" fill="white"/>
<path d="M98.8867 828H97.3627V820.25H98.8867V828Z" fill="white"/>
<path d="M103.977 828.164C103.369 828.164 102.818 828.061 102.323 827.856C101.829 827.65 101.417 827.366 101.088 827.004C100.763 826.639 100.51 826.21 100.331 825.719C100.155 825.228 100.067 824.696 100.067 824.125C100.067 823.554 100.155 823.023 100.331 822.531C100.51 822.04 100.763 821.613 101.088 821.252C101.417 820.886 101.829 820.601 102.323 820.395C102.818 820.189 103.369 820.086 103.977 820.086C104.581 820.086 105.131 820.189 105.625 820.395C106.12 820.601 106.53 820.886 106.855 821.252C107.181 821.613 107.432 822.04 107.608 822.531C107.783 823.023 107.871 823.554 107.871 824.125C107.871 824.696 107.783 825.228 107.608 825.719C107.432 826.21 107.181 826.639 106.855 827.004C106.53 827.366 106.12 827.65 105.625 827.856C105.131 828.061 104.581 828.164 103.977 828.164ZM102.996 826.586C103.288 826.732 103.612 826.805 103.967 826.805C104.322 826.805 104.644 826.732 104.933 826.586C105.225 826.439 105.464 826.242 105.65 825.993C105.836 825.744 105.979 825.46 106.079 825.141C106.178 824.819 106.228 824.481 106.228 824.125C106.228 823.77 106.178 823.433 106.079 823.114C105.979 822.792 105.836 822.507 105.65 822.258C105.464 822.005 105.225 821.806 104.933 821.66C104.644 821.514 104.322 821.441 103.967 821.441C103.681 821.441 103.416 821.489 103.17 821.585C102.924 821.681 102.712 821.814 102.532 821.984C102.356 822.15 102.204 822.346 102.074 822.571C101.948 822.797 101.853 823.043 101.79 823.308C101.731 823.571 101.701 823.843 101.701 824.125C101.701 824.481 101.75 824.819 101.85 825.141C101.95 825.46 102.092 825.744 102.278 825.993C102.464 826.242 102.703 826.439 102.996 826.586Z" fill="white"/>
<path d="M110.611 828H109.092V820.25H112C112.834 820.25 113.491 820.445 113.973 820.833C114.457 821.218 114.7 821.774 114.7 822.502C114.7 823.162 114.487 823.679 114.062 824.051C113.637 824.419 113.054 824.642 112.314 824.718L115.138 828H113.285L110.611 824.828V828ZM110.611 821.575V823.533H111.836C112.191 823.533 112.49 823.453 112.732 823.294C112.978 823.134 113.101 822.893 113.101 822.571C113.101 822.249 112.98 822.004 112.737 821.834C112.498 821.662 112.173 821.575 111.761 821.575H110.611Z" fill="white"/>
<path d="M120.213 828H118.694V820.25H120.367L122.619 826.267L124.865 820.25H126.538V828H125.019V823.328L123.356 828H121.877L120.213 823.328V828Z" fill="white"/>
<path d="M129.048 828H127.375L130.448 820.25H132.027L135.085 828H133.411L132.749 826.172H129.721L129.048 828ZM131.23 822.004L130.209 824.768H132.251L131.23 822.004Z" fill="white"/>
<path d="M137.436 820.25V826.491H141.31V828H135.926V820.25H137.436Z" fill="white"/>
<path d="M145.245 828.164C144.76 828.164 144.333 828.11 143.965 828C143.596 827.887 143.294 827.734 143.058 827.542C142.823 827.346 142.63 827.102 142.481 826.81C142.335 826.514 142.232 826.2 142.172 825.868C142.112 825.533 142.082 825.156 142.082 824.738V820.25H143.601V824.195C143.601 824.447 143.605 824.658 143.611 824.828C143.618 824.997 143.633 825.181 143.656 825.38C143.683 825.58 143.718 825.744 143.761 825.873C143.807 826 143.87 826.127 143.95 826.257C144.033 826.386 144.131 826.488 144.244 826.561C144.36 826.634 144.501 826.694 144.667 826.74C144.837 826.783 145.029 826.805 145.245 826.805C145.414 826.805 145.567 826.791 145.703 826.765C145.843 826.735 145.965 826.698 146.072 826.655C146.178 826.609 146.271 826.546 146.351 826.466C146.434 826.386 146.502 826.307 146.555 826.227C146.611 826.144 146.659 826.039 146.699 825.913C146.739 825.787 146.771 825.669 146.794 825.56C146.817 825.447 146.834 825.309 146.844 825.146C146.857 824.98 146.865 824.829 146.869 824.693C146.872 824.557 146.874 824.391 146.874 824.195V820.25H148.408V824.738C148.408 825.166 148.376 825.55 148.313 825.888C148.253 826.227 148.149 826.542 147.999 826.835C147.85 827.123 147.655 827.364 147.416 827.557C147.181 827.746 146.88 827.894 146.515 828C146.15 828.11 145.726 828.164 145.245 828.164Z" fill="white"/>
<path d="M151.361 824.728V826.491H155.515V828H149.852V820.25H155.34V821.76H151.361V823.318H154.982V824.728H151.361Z" fill="white"/>
<path d="M161.272 828H159.753V820.25H161.222L164.544 825.51V820.25H166.078V828H164.554L161.272 822.92V828Z" fill="white"/>
<path d="M174.799 819.658L173.922 821.032C174.324 821.398 174.63 821.848 174.839 822.382C175.051 822.913 175.158 823.494 175.158 824.125C175.158 824.696 175.07 825.228 174.894 825.719C174.718 826.21 174.467 826.639 174.142 827.004C173.816 827.366 173.406 827.65 172.911 827.856C172.417 828.061 171.867 828.164 171.263 828.164C170.655 828.164 170.097 828.058 169.589 827.846L169.121 828.593H167.712L168.588 827.213C168.187 826.848 167.879 826.4 167.667 825.868C167.458 825.337 167.353 824.756 167.353 824.125C167.353 823.554 167.441 823.023 167.617 822.531C167.796 822.04 168.049 821.613 168.374 821.252C168.703 820.886 169.115 820.601 169.609 820.395C170.104 820.189 170.655 820.086 171.263 820.086C171.87 820.086 172.425 820.191 172.926 820.4L173.395 819.658H174.799ZM168.987 824.125C168.987 824.786 169.143 825.357 169.455 825.839L172.139 821.625C171.89 821.502 171.595 821.441 171.253 821.441C170.967 821.441 170.702 821.489 170.456 821.585C170.21 821.681 169.998 821.814 169.819 821.984C169.643 822.15 169.49 822.346 169.36 822.571C169.234 822.797 169.14 823.043 169.076 823.308C169.017 823.571 168.987 823.843 168.987 824.125ZM171.253 826.805C171.608 826.805 171.93 826.732 172.219 826.586C172.511 826.439 172.75 826.242 172.936 825.993C173.122 825.744 173.265 825.46 173.365 825.141C173.464 824.819 173.514 824.481 173.514 824.125C173.514 823.474 173.358 822.903 173.046 822.412L170.366 826.625C170.619 826.745 170.914 826.805 171.253 826.805Z" fill="white"/>
<path d="M177.897 828H176.378V820.25H177.847L181.169 825.51V820.25H182.703V828H181.179L177.897 822.92V828Z" fill="white"/>
<path d="M185.866 828H184.347V820.25H185.816L189.138 825.51V820.25H190.672V828H189.148L185.866 822.92V828Z" fill="white"/>
<path d="M193.824 824.728V826.491H197.978V828H192.315V820.25H197.804V821.76H193.824V823.318H197.445V824.728H193.824Z" fill="white"/>
<path d="M207.008 823.318V820.25H208.542V828H207.008V824.778H203.736V828H202.216V820.25H203.736V823.318H207.008Z" fill="white"/>
<path d="M211.047 828H209.373L212.446 820.25H214.025L217.083 828H215.41L214.747 826.172H211.719L211.047 828ZM213.228 822.004L212.207 824.768H214.249L213.228 822.004Z" fill="white"/>
<path d="M219.444 828H217.925V820.25H219.394L222.716 825.51V820.25H224.25V828H222.726L219.444 822.92V828Z" fill="white"/>
<path d="M228.603 828.164C228.055 828.164 227.567 828.098 227.139 827.965C226.71 827.832 226.357 827.646 226.078 827.407C225.802 827.165 225.587 826.884 225.43 826.566C225.274 826.244 225.178 825.885 225.142 825.49H226.785C226.901 825.981 227.116 826.333 227.428 826.546C227.743 826.755 228.158 826.859 228.673 826.859C229.068 826.859 229.375 826.783 229.594 826.63C229.817 826.478 229.928 826.257 229.928 825.968C229.928 825.852 229.901 825.746 229.848 825.649C229.798 825.55 229.735 825.467 229.659 825.4C229.586 825.331 229.49 825.266 229.37 825.206C229.254 825.143 229.148 825.095 229.051 825.062C228.955 825.025 228.839 824.985 228.703 824.942C228.61 824.912 228.449 824.862 228.22 824.793C227.99 824.723 227.788 824.658 227.612 824.598C227.436 824.539 227.263 824.476 227.094 824.409C226.898 824.326 226.724 824.243 226.571 824.16C226.422 824.074 226.275 823.971 226.133 823.851C225.99 823.732 225.872 823.604 225.779 823.468C225.689 823.332 225.616 823.172 225.56 822.99C225.507 822.807 225.48 822.608 225.48 822.392C225.48 822.067 225.537 821.773 225.65 821.51C225.763 821.245 225.914 821.026 226.103 820.853C226.292 820.677 226.513 820.531 226.765 820.415C227.021 820.299 227.285 820.216 227.557 820.166C227.829 820.113 228.11 820.086 228.399 820.086C229.305 820.086 230.011 820.32 230.516 820.788C231.024 821.256 231.292 821.886 231.322 822.676H229.684C229.664 822.427 229.609 822.214 229.519 822.038C229.43 821.862 229.317 821.73 229.181 821.64C229.045 821.55 228.905 821.487 228.762 821.451C228.62 821.411 228.464 821.391 228.294 821.391C228.171 821.391 228.052 821.403 227.936 821.426C227.819 821.449 227.697 821.491 227.567 821.55C227.438 821.607 227.333 821.698 227.253 821.824C227.174 821.947 227.134 822.098 227.134 822.277C227.134 822.493 227.202 822.668 227.338 822.8C227.474 822.933 227.695 823.058 228 823.174C228.206 823.247 228.671 823.393 229.395 823.612C229.8 823.732 230.089 823.831 230.262 823.911C231.085 824.296 231.497 824.952 231.497 825.878C231.497 826.642 231.249 827.215 230.755 827.597C230.26 827.975 229.543 828.164 228.603 828.164Z" fill="white"/>
<path d="M234.116 824.728V826.491H238.27V828H232.607V820.25H238.096V821.76H234.116V823.318H237.737V824.728H234.116Z" fill="white"/>
<path d="M240.97 828H239.45V820.25H240.92L244.242 825.51V820.25H245.776V828H244.252L240.97 822.92V828Z" fill="white"/>
<path d="M251.538 828H250.019V820.25H252.928C253.761 820.25 254.418 820.445 254.9 820.833C255.385 821.218 255.627 821.774 255.627 822.502C255.627 823.162 255.415 823.679 254.99 824.051C254.565 824.419 253.982 824.642 253.241 824.718L256.065 828H254.213L251.538 824.828V828ZM251.538 821.575V823.533H252.763C253.119 823.533 253.417 823.453 253.66 823.294C253.905 823.134 254.028 822.893 254.028 822.571C254.028 822.249 253.907 822.004 253.665 821.834C253.426 821.662 253.1 821.575 252.689 821.575H251.538Z" fill="white"/>
<path d="M260.503 828.164C259.895 828.164 259.344 828.061 258.849 827.856C258.355 827.65 257.943 827.366 257.614 827.004C257.289 826.639 257.037 826.21 256.857 825.719C256.681 825.228 256.593 824.696 256.593 824.125C256.593 823.554 256.681 823.023 256.857 822.531C257.037 822.04 257.289 821.613 257.614 821.252C257.943 820.886 258.355 820.601 258.849 820.395C259.344 820.189 259.895 820.086 260.503 820.086C261.107 820.086 261.657 820.189 262.151 820.395C262.646 820.601 263.056 820.886 263.382 821.252C263.707 821.613 263.958 822.04 264.134 822.531C264.31 823.023 264.398 823.554 264.398 824.125C264.398 824.696 264.31 825.228 264.134 825.719C263.958 826.21 263.707 826.639 263.382 827.004C263.056 827.366 262.646 827.65 262.151 827.856C261.657 828.061 261.107 828.164 260.503 828.164ZM259.522 826.586C259.814 826.732 260.138 826.805 260.493 826.805C260.848 826.805 261.17 826.732 261.459 826.586C261.751 826.439 261.99 826.242 262.176 825.993C262.362 825.744 262.505 825.46 262.605 825.141C262.704 824.819 262.754 824.481 262.754 824.125C262.754 823.77 262.704 823.433 262.605 823.114C262.505 822.792 262.362 822.507 262.176 822.258C261.99 822.005 261.751 821.806 261.459 821.66C261.17 821.514 260.848 821.441 260.493 821.441C260.207 821.441 259.942 821.489 259.696 821.585C259.45 821.681 259.238 821.814 259.059 821.984C258.883 822.15 258.73 822.346 258.6 822.571C258.474 822.797 258.38 823.043 258.316 823.308C258.257 823.571 258.227 823.843 258.227 824.125C258.227 824.481 258.277 824.819 258.376 825.141C258.476 825.46 258.619 825.744 258.805 825.993C258.991 826.242 259.23 826.439 259.522 826.586Z" fill="white"/>
<path d="M268.636 828.164C268.088 828.164 267.6 828.098 267.172 827.965C266.743 827.832 266.39 827.646 266.111 827.407C265.835 827.165 265.619 826.884 265.463 826.566C265.307 826.244 265.211 825.885 265.175 825.49H266.818C266.934 825.981 267.148 826.333 267.461 826.546C267.776 826.755 268.191 826.859 268.706 826.859C269.101 826.859 269.408 826.783 269.627 826.63C269.85 826.478 269.961 826.257 269.961 825.968C269.961 825.852 269.934 825.746 269.881 825.649C269.831 825.55 269.768 825.467 269.692 825.4C269.619 825.331 269.523 825.266 269.403 825.206C269.287 825.143 269.181 825.095 269.084 825.062C268.988 825.025 268.872 824.985 268.736 824.942C268.643 824.912 268.482 824.862 268.253 824.793C268.023 824.723 267.821 824.658 267.645 824.598C267.469 824.539 267.296 824.476 267.127 824.409C266.931 824.326 266.757 824.243 266.604 824.16C266.455 824.074 266.308 823.971 266.166 823.851C266.023 823.732 265.905 823.604 265.812 823.468C265.722 823.332 265.649 823.172 265.593 822.99C265.54 822.807 265.513 822.608 265.513 822.392C265.513 822.067 265.57 821.773 265.683 821.51C265.795 821.245 265.947 821.026 266.136 820.853C266.325 820.677 266.546 820.531 266.798 820.415C267.054 820.299 267.318 820.216 267.59 820.166C267.862 820.113 268.143 820.086 268.432 820.086C269.338 820.086 270.044 820.32 270.548 820.788C271.057 821.256 271.325 821.886 271.355 822.676H269.717C269.697 822.427 269.642 822.214 269.552 822.038C269.463 821.862 269.35 821.73 269.214 821.64C269.078 821.55 268.938 821.487 268.795 821.451C268.653 821.411 268.497 821.391 268.327 821.391C268.204 821.391 268.085 821.403 267.969 821.426C267.852 821.449 267.73 821.491 267.6 821.55C267.471 821.607 267.366 821.698 267.286 821.824C267.207 821.947 267.167 822.098 267.167 822.277C267.167 822.493 267.235 822.668 267.371 822.8C267.507 822.933 267.728 823.058 268.033 823.174C268.239 823.247 268.704 823.393 269.428 823.612C269.833 823.732 270.122 823.831 270.294 823.911C271.118 824.296 271.53 824.952 271.53 825.878C271.53 826.642 271.282 827.215 270.788 827.597C270.293 827.975 269.576 828.164 268.636 828.164Z" fill="white"/>
<path d="M274.149 824.728V826.491H278.303V828H272.64V820.25H278.129V821.76H274.149V823.318H277.77V824.728H274.149Z" fill="white"/>
<path d="M287.333 823.318V820.25H288.867V828H287.333V824.778H284.061V828H282.541V820.25H284.061V823.318H287.333Z" fill="white"/>
<path d="M291.372 828H289.698L292.771 820.25H294.35L297.408 828H295.735L295.072 826.172H292.044L291.372 828ZM293.553 822.004L292.532 824.768H294.574L293.553 822.004Z" fill="white"/>
<path d="M299.759 820.25V826.491H303.634V828H298.25V820.25H299.759Z" fill="white"/>
<path d="M306.094 820.25V826.491H309.969V828H304.585V820.25H306.094Z" fill="white"/>
<path d="M314.397 828.164C313.115 828.164 312.101 827.798 311.354 827.064C310.606 826.327 310.233 825.341 310.233 824.105C310.233 823.494 310.326 822.938 310.512 822.437C310.701 821.932 310.963 821.509 311.299 821.167C311.634 820.822 312.039 820.556 312.514 820.37C312.992 820.181 313.517 820.086 314.088 820.086C314.749 820.086 315.348 820.207 315.886 820.45C316.427 820.689 316.864 821.022 317.196 821.451C317.531 821.876 317.733 822.362 317.803 822.91H316.18C316.06 822.468 315.818 822.113 315.452 821.844C315.087 821.575 314.637 821.441 314.103 821.441C313.415 821.441 312.869 821.678 312.464 822.153C312.059 822.628 311.857 823.279 311.857 824.105C311.857 824.939 312.079 825.598 312.524 826.083C312.969 826.564 313.596 826.805 314.407 826.805C314.795 826.805 315.172 826.738 315.537 826.606C315.902 826.473 316.178 826.285 316.364 826.043V825.121H313.804V823.816H317.803V826.511C317.498 827.009 317.033 827.409 316.409 827.711C315.788 828.013 315.117 828.164 314.397 828.164Z" fill="white"/>
<path d="M320.418 828H318.899V820.25H321.807C322.641 820.25 323.298 820.445 323.78 820.833C324.265 821.218 324.507 821.774 324.507 822.502C324.507 823.162 324.294 823.679 323.869 824.051C323.444 824.419 322.862 824.642 322.121 824.718L324.945 828H323.092L320.418 824.828V828ZM320.418 821.575V823.533H321.643C321.998 823.533 322.297 823.453 322.54 823.294C322.785 823.134 322.908 822.893 322.908 822.571C322.908 822.249 322.787 822.004 322.545 821.834C322.306 821.662 321.98 821.575 321.568 821.575H320.418Z" fill="white"/>
<path d="M327.411 824.728V826.491H331.564V828H325.901V820.25H331.39V821.76H327.411V823.318H331.031V824.728H327.411Z" fill="white"/>
<path d="M334.264 828H332.745V820.25H334.214L337.536 825.51V820.25H339.07V828H337.546L334.264 822.92V828Z" fill="white"/>
<path d="M348.104 823.318V820.25H349.638V828H348.104V824.778H344.832V828H343.313V820.25H344.832V823.318H348.104Z" fill="white"/>
<path d="M352.701 828H351.177V820.25H352.701V828Z" fill="white"/>
<path d="M360.605 829.624H359.749C358.912 829.624 358.142 829.504 357.438 829.265C356.737 829.026 356.141 828.692 355.65 828.264C355.158 827.836 354.777 827.316 354.504 826.705C354.232 826.091 354.096 825.42 354.096 824.693C354.096 824.026 354.212 823.411 354.445 822.85C354.68 822.289 355.007 821.813 355.426 821.421C355.844 821.029 356.354 820.724 356.955 820.504C357.556 820.285 358.215 820.176 358.932 820.176C359.659 820.176 360.328 820.29 360.939 820.519C361.55 820.749 362.068 821.069 362.493 821.481C362.921 821.889 363.253 822.39 363.489 822.985C363.728 823.576 363.848 824.225 363.848 824.932C363.848 825.872 363.648 826.632 363.25 827.213C362.855 827.791 362.337 828.08 361.696 828.08C361.188 828.08 360.77 827.904 360.441 827.552C360.116 827.2 359.953 826.723 359.953 826.122C359.711 826.72 359.247 827.019 358.563 827.019C357.986 827.019 357.514 826.811 357.149 826.396C356.787 825.981 356.606 825.435 356.606 824.758C356.606 824.084 356.779 823.541 357.124 823.129C357.473 822.717 357.929 822.512 358.494 822.512C359.078 822.512 359.533 822.726 359.858 823.154V822.656H360.849V825.829C360.849 826.264 360.929 826.611 361.088 826.87C361.251 827.125 361.464 827.253 361.726 827.253C362.051 827.253 362.315 827.049 362.518 826.64C362.724 826.232 362.827 825.709 362.827 825.072C362.827 824.278 362.664 823.579 362.339 822.975C362.013 822.37 361.555 821.904 360.964 821.575C360.373 821.247 359.692 821.082 358.922 821.082C358.364 821.082 357.85 821.169 357.378 821.341C356.907 821.514 356.505 821.756 356.173 822.068C355.841 822.377 355.582 822.757 355.396 823.209C355.21 823.657 355.117 824.148 355.117 824.683C355.117 825.271 355.228 825.81 355.451 826.302C355.673 826.793 355.983 827.21 356.382 827.552C356.784 827.894 357.27 828.159 357.841 828.349C358.416 828.538 359.045 828.633 359.729 828.633H360.605V829.624ZM358.738 826.267C359.066 826.267 359.329 826.141 359.525 825.888C359.72 825.633 359.818 825.299 359.818 824.887V824.663C359.818 824.248 359.72 823.916 359.525 823.667C359.329 823.415 359.066 823.289 358.738 823.289C358.396 823.289 358.113 823.423 357.891 823.692C357.672 823.961 357.562 824.316 357.562 824.758C357.562 825.209 357.672 825.575 357.891 825.853C358.113 826.129 358.396 826.267 358.738 826.267Z" fill="white"/>
<path d="M368.275 828.164C367.727 828.164 367.239 828.098 366.811 827.965C366.383 827.832 366.029 827.646 365.75 827.407C365.475 827.165 365.259 826.884 365.103 826.566C364.947 826.244 364.85 825.885 364.814 825.49H366.457C366.574 825.981 366.788 826.333 367.1 826.546C367.415 826.755 367.83 826.859 368.345 826.859C368.74 826.859 369.047 826.783 369.266 826.63C369.489 826.478 369.6 826.257 369.6 825.968C369.6 825.852 369.574 825.746 369.52 825.649C369.471 825.55 369.408 825.467 369.331 825.4C369.258 825.331 369.162 825.266 369.042 825.206C368.926 825.143 368.82 825.095 368.724 825.062C368.627 825.025 368.511 824.985 368.375 824.942C368.282 824.912 368.121 824.862 367.892 824.793C367.663 824.723 367.46 824.658 367.284 824.598C367.108 824.539 366.936 824.476 366.766 824.409C366.57 824.326 366.396 824.243 366.243 824.16C366.094 824.074 365.948 823.971 365.805 823.851C365.662 823.732 365.544 823.604 365.451 823.468C365.362 823.332 365.289 823.172 365.232 822.99C365.179 822.807 365.153 822.608 365.153 822.392C365.153 822.067 365.209 821.773 365.322 821.51C365.435 821.245 365.586 821.026 365.775 820.853C365.964 820.677 366.185 820.531 366.438 820.415C366.693 820.299 366.957 820.216 367.229 820.166C367.502 820.113 367.782 820.086 368.071 820.086C368.978 820.086 369.683 820.32 370.188 820.788C370.696 821.256 370.965 821.886 370.995 822.676H369.356C369.336 822.427 369.281 822.214 369.192 822.038C369.102 821.862 368.989 821.73 368.853 821.64C368.717 821.55 368.577 821.487 368.435 821.451C368.292 821.411 368.136 821.391 367.966 821.391C367.844 821.391 367.724 821.403 367.608 821.426C367.492 821.449 367.369 821.491 367.239 821.55C367.11 821.607 367.005 821.698 366.926 821.824C366.846 821.947 366.806 822.098 366.806 822.277C366.806 822.493 366.874 822.668 367.01 822.8C367.146 822.933 367.367 823.058 367.673 823.174C367.878 823.247 368.343 823.393 369.067 823.612C369.472 823.732 369.761 823.831 369.934 823.911C370.757 824.296 371.169 824.952 371.169 825.878C371.169 826.642 370.922 827.215 370.427 827.597C369.932 827.975 369.215 828.164 368.275 828.164Z" fill="white"/>
<path d="M376.035 828H374.456L371.388 820.25H373.066L375.243 826.247L377.414 820.25H379.098L376.035 828Z" fill="white"/>
<path d="M379.964 828H378.291L381.364 820.25H382.943L386.001 828H384.327L383.665 826.172H380.637L379.964 828ZM382.146 822.004L381.125 824.768H383.167L382.146 822.004Z" fill="white"/>
<path d="M388.361 828H386.842V820.25H389.751C390.584 820.25 391.242 820.445 391.723 820.833C392.208 821.218 392.45 821.774 392.45 822.502C392.45 823.162 392.238 823.679 391.813 824.051C391.388 824.419 390.805 824.642 390.065 824.718L392.889 828H391.036L388.361 824.828V828ZM388.361 821.575V823.533H389.587C389.942 823.533 390.241 823.453 390.483 823.294C390.729 823.134 390.852 822.893 390.852 822.571C390.852 822.249 390.731 822.004 390.488 821.834C390.249 821.662 389.924 821.575 389.512 821.575H388.361Z" fill="white"/>
<path d="M399.453 820.25V821.76H397.107V828H395.588V821.76H393.242V820.25H399.453Z" fill="white"/>
<path d="M402.018 820.25V826.491H405.893V828H400.509V820.25H402.018Z" fill="white"/>
<path d="M409.11 828.164C407.234 828.164 406.245 827.266 406.142 825.47H407.731C407.78 825.931 407.908 826.27 408.114 826.486C408.323 826.698 408.644 826.805 409.075 826.805C409.218 826.805 409.346 826.793 409.459 826.77C409.575 826.743 409.678 826.71 409.768 826.67C409.857 826.63 409.935 826.572 410.002 826.496C410.068 826.416 410.125 826.34 410.171 826.267C410.217 826.19 410.256 826.088 410.286 825.958C410.319 825.829 410.344 825.709 410.36 825.599C410.38 825.487 410.395 825.342 410.405 825.166C410.415 824.987 410.42 824.826 410.42 824.683C410.423 824.537 410.425 824.351 410.425 824.125V820.25H411.964V824.643C411.964 825.211 411.917 825.702 411.824 826.117C411.735 826.529 411.582 826.894 411.366 827.213C411.154 827.529 410.86 827.766 410.485 827.925C410.11 828.085 409.651 828.164 409.11 828.164Z" fill="white"/>
<path d="M416.68 828.164C416.196 828.164 415.769 828.11 415.4 828C415.032 827.887 414.73 827.734 414.494 827.542C414.258 827.346 414.066 827.102 413.916 826.81C413.77 826.514 413.667 826.2 413.608 825.868C413.548 825.533 413.518 825.156 413.518 824.738V820.25H415.037V824.195C415.037 824.447 415.04 824.658 415.047 824.828C415.054 824.997 415.068 825.181 415.092 825.38C415.118 825.58 415.153 825.744 415.196 825.873C415.243 826 415.306 826.127 415.386 826.257C415.469 826.386 415.566 826.488 415.679 826.561C415.796 826.634 415.937 826.694 416.103 826.74C416.272 826.783 416.465 826.805 416.68 826.805C416.85 826.805 417.003 826.791 417.139 826.765C417.278 826.735 417.401 826.698 417.507 826.655C417.613 826.609 417.706 826.546 417.786 826.466C417.869 826.386 417.937 826.307 417.99 826.227C418.047 826.144 418.095 826.039 418.135 825.913C418.175 825.787 418.206 825.669 418.229 825.56C418.253 825.447 418.269 825.309 418.279 825.146C418.292 824.98 418.301 824.829 418.304 824.693C418.307 824.557 418.309 824.391 418.309 824.195V820.25H419.843V824.738C419.843 825.166 419.811 825.55 419.748 825.888C419.689 826.227 419.584 826.542 419.435 826.835C419.285 827.123 419.091 827.364 418.852 827.557C418.616 827.746 418.316 827.894 417.95 828C417.585 828.11 417.162 828.164 416.68 828.164Z" fill="white"/>
<path d="M424.206 828.164C423.658 828.164 423.17 828.098 422.742 827.965C422.313 827.832 421.96 827.646 421.681 827.407C421.405 827.165 421.189 826.884 421.033 826.566C420.877 826.244 420.781 825.885 420.745 825.49H422.388C422.504 825.981 422.718 826.333 423.031 826.546C423.346 826.755 423.761 826.859 424.276 826.859C424.671 826.859 424.978 826.783 425.197 826.63C425.42 826.478 425.531 826.257 425.531 825.968C425.531 825.852 425.504 825.746 425.451 825.649C425.401 825.55 425.338 825.467 425.262 825.4C425.189 825.331 425.092 825.266 424.973 825.206C424.857 825.143 424.75 825.095 424.654 825.062C424.558 825.025 424.442 824.985 424.306 824.942C424.213 824.912 424.052 824.862 423.822 824.793C423.593 824.723 423.391 824.658 423.215 824.598C423.039 824.539 422.866 824.476 422.697 824.409C422.501 824.326 422.327 824.243 422.174 824.16C422.025 824.074 421.878 823.971 421.736 823.851C421.593 823.732 421.475 823.604 421.382 823.468C421.292 823.332 421.219 823.172 421.163 822.99C421.11 822.807 421.083 822.608 421.083 822.392C421.083 822.067 421.14 821.773 421.253 821.51C421.365 821.245 421.516 821.026 421.706 820.853C421.895 820.677 422.116 820.531 422.368 820.415C422.624 820.299 422.888 820.216 423.16 820.166C423.432 820.113 423.713 820.086 424.002 820.086C424.908 820.086 425.614 820.32 426.118 820.788C426.626 821.256 426.895 821.886 426.925 822.676H425.287C425.267 822.427 425.212 822.214 425.122 822.038C425.033 821.862 424.92 821.73 424.784 821.64C424.648 821.55 424.508 821.487 424.365 821.451C424.223 821.411 424.066 821.391 423.897 821.391C423.774 821.391 423.655 821.403 423.539 821.426C423.422 821.449 423.3 821.491 423.17 821.55C423.041 821.607 422.936 821.698 422.856 821.824C422.777 821.947 422.737 822.098 422.737 822.277C422.737 822.493 422.805 822.668 422.941 822.8C423.077 822.933 423.298 823.058 423.603 823.174C423.809 823.247 424.274 823.393 424.998 823.612C425.403 823.732 425.692 823.831 425.864 823.911C426.688 824.296 427.1 824.952 427.1 825.878C427.1 826.642 426.852 827.215 426.358 827.597C425.863 827.975 425.146 828.164 424.206 828.164Z" fill="white"/>
<path d="M429.465 828H427.812V826.431H429.465V828Z" fill="white"/>
<path d="M433.639 828.164C433.091 828.164 432.603 828.098 432.175 827.965C431.746 827.832 431.393 827.646 431.114 827.407C430.838 827.165 430.622 826.884 430.466 826.566C430.31 826.244 430.214 825.885 430.177 825.49H431.821C431.937 825.981 432.151 826.333 432.464 826.546C432.779 826.755 433.194 826.859 433.709 826.859C434.104 826.859 434.411 826.783 434.63 826.63C434.852 826.478 434.964 826.257 434.964 825.968C434.964 825.852 434.937 825.746 434.884 825.649C434.834 825.55 434.771 825.467 434.695 825.4C434.622 825.331 434.525 825.266 434.406 825.206C434.29 825.143 434.183 825.095 434.087 825.062C433.991 825.025 433.875 824.985 433.739 824.942C433.646 824.912 433.485 824.862 433.255 824.793C433.026 824.723 432.824 824.658 432.648 824.598C432.472 824.539 432.299 824.476 432.13 824.409C431.934 824.326 431.76 824.243 431.607 824.16C431.457 824.074 431.311 823.971 431.169 823.851C431.026 823.732 430.908 823.604 430.815 823.468C430.725 823.332 430.652 823.172 430.596 822.99C430.543 822.807 430.516 822.608 430.516 822.392C430.516 822.067 430.573 821.773 430.686 821.51C430.798 821.245 430.949 821.026 431.139 820.853C431.328 820.677 431.549 820.531 431.801 820.415C432.057 820.299 432.321 820.216 432.593 820.166C432.865 820.113 433.146 820.086 433.435 820.086C434.341 820.086 435.047 820.32 435.551 820.788C436.059 821.256 436.328 821.886 436.358 822.676H434.72C434.7 822.427 434.645 822.214 434.555 822.038C434.466 821.862 434.353 821.73 434.217 821.64C434.081 821.55 433.941 821.487 433.798 821.451C433.656 821.411 433.499 821.391 433.33 821.391C433.207 821.391 433.088 821.403 432.972 821.426C432.855 821.449 432.732 821.491 432.603 821.55C432.474 821.607 432.369 821.698 432.289 821.824C432.21 821.947 432.17 822.098 432.17 822.277C432.17 822.493 432.238 822.668 432.374 822.8C432.51 822.933 432.731 823.058 433.036 823.174C433.242 823.247 433.707 823.393 434.431 823.612C434.836 823.732 435.125 823.831 435.297 823.911C436.121 824.296 436.533 824.952 436.533 825.878C436.533 826.642 436.285 827.215 435.79 827.597C435.296 827.975 434.579 828.164 433.639 828.164Z" fill="white"/>
<path d="M439.152 824.728V826.491H443.306V828H437.643V820.25H443.132V821.76H439.152V823.318H442.773V824.728H439.152Z" fill="white"/>
<path d="M3.99611 11.1676C2.08335 11.1676 1.07449 10.2519 0.969543 8.42036H2.58947C2.64025 8.89093 2.77059 9.23625 2.98048 9.4563C3.19376 9.67297 3.52045 9.7813 3.96056 9.7813C4.10613 9.7813 4.23647 9.76945 4.35157 9.74575C4.47006 9.71867 4.57501 9.68481 4.66642 9.64419C4.75782 9.60356 4.83738 9.54432 4.90509 9.46645C4.9728 9.3852 5.03035 9.30734 5.07775 9.23286C5.12514 9.155 5.16407 9.05005 5.19454 8.91802C5.2284 8.78599 5.25379 8.66411 5.27072 8.55239C5.29103 8.43729 5.30626 8.29002 5.31642 8.1106C5.32657 7.92778 5.33165 7.76359 5.33165 7.61802C5.33504 7.46906 5.33673 7.27948 5.33673 7.04927V3.09849H6.90587V7.57739C6.90587 8.1563 6.85848 8.65734 6.76368 9.08052C6.67228 9.50031 6.51655 9.8727 6.2965 10.1977C6.07983 10.5193 5.78022 10.7614 5.39767 10.9239C5.01512 11.0864 4.54793 11.1676 3.99611 11.1676Z" fill="white"/>
<path d="M12.1414 11.1676C11.5219 11.1676 10.9599 11.0627 10.4555 10.8528C9.95105 10.6429 9.53126 10.3534 9.19611 9.98442C8.86434 9.61203 8.60704 9.17531 8.42423 8.67427C8.2448 8.17323 8.15509 7.63156 8.15509 7.04927C8.15509 6.46698 8.2448 5.92531 8.42423 5.42427C8.60704 4.92323 8.86434 4.4882 9.19611 4.11919C9.53126 3.74679 9.95105 3.45565 10.4555 3.24575C10.9599 3.03586 11.5219 2.93091 12.1414 2.93091C12.7576 2.93091 13.3179 3.03586 13.8223 3.24575C14.3267 3.45565 14.7448 3.74679 15.0766 4.11919C15.4083 4.4882 15.6639 4.92323 15.8434 5.42427C16.0228 5.92531 16.1125 6.46698 16.1125 7.04927C16.1125 7.63156 16.0228 8.17323 15.8434 8.67427C15.6639 9.17531 15.4083 9.61203 15.0766 9.98442C14.7448 10.3534 14.3267 10.6429 13.8223 10.8528C13.3179 11.0627 12.7576 11.1676 12.1414 11.1676ZM11.141 9.55786C11.4389 9.70682 11.769 9.7813 12.1313 9.7813C12.4935 9.7813 12.8219 9.70682 13.1164 9.55786C13.4143 9.4089 13.6581 9.20747 13.8477 8.95356C14.0373 8.69966 14.1828 8.4102 14.2844 8.0852C14.3859 7.75682 14.4367 7.41151 14.4367 7.04927C14.4367 6.68703 14.3859 6.34341 14.2844 6.01841C14.1828 5.69002 14.0373 5.39888 13.8477 5.14497C13.6581 4.88768 13.4143 4.68455 13.1164 4.5356C12.8219 4.38664 12.4935 4.31216 12.1313 4.31216C11.8401 4.31216 11.5693 4.36125 11.3188 4.45942C11.0682 4.5576 10.8516 4.69302 10.6688 4.86567C10.4893 5.03494 10.3336 5.23468 10.2016 5.46489C10.0729 5.6951 9.97644 5.94562 9.91212 6.21645C9.85118 6.4839 9.82071 6.76151 9.82071 7.04927C9.82071 7.41151 9.8715 7.75682 9.97306 8.0852C10.0746 8.4102 10.2202 8.69966 10.4098 8.95356C10.5994 9.20747 10.8431 9.4089 11.141 9.55786Z" fill="white"/>
<path d="M18.9055 11H17.3567V3.09849H18.8547L22.2418 8.46099V3.09849H23.8059V11H22.252L18.9055 5.82036V11Z" fill="white"/>
<path d="M26.3602 11H24.6539L27.7871 3.09849H29.3969L32.5149 11H30.8086L30.1332 9.13638H27.0457L26.3602 11ZM28.5844 4.88599L27.5434 7.70435H29.6254L28.5844 4.88599Z" fill="white"/>
<path d="M36.2473 11.1676C35.6887 11.1676 35.191 11.0999 34.7543 10.9645C34.3176 10.8291 33.957 10.6395 33.6727 10.3958C33.3917 10.1486 33.1716 9.86255 33.0125 9.53755C32.8534 9.20916 32.7552 8.84354 32.718 8.44067H34.3938C34.5123 8.94172 34.7306 9.30057 35.0488 9.51724C35.3705 9.73052 35.7936 9.83716 36.3184 9.83716C36.7212 9.83716 37.0344 9.75929 37.2578 9.60356C37.4846 9.44784 37.5981 9.2227 37.5981 8.92817C37.5981 8.80968 37.571 8.70135 37.5168 8.60317C37.466 8.50161 37.4017 8.41698 37.3238 8.34927C37.2494 8.27817 37.1512 8.21216 37.0293 8.15122C36.9108 8.0869 36.8025 8.03781 36.7043 8.00395C36.6061 7.96672 36.4876 7.92609 36.3488 7.88208C36.254 7.85161 36.0899 7.80083 35.8563 7.72974C35.6227 7.65864 35.4162 7.59263 35.2367 7.53169C35.0573 7.47075 34.8813 7.40643 34.7086 7.33872C34.5089 7.25408 34.3311 7.16945 34.1754 7.08481C34.0231 6.99679 33.8741 6.89185 33.7285 6.76997C33.583 6.6481 33.4628 6.51776 33.368 6.37895C33.2766 6.24015 33.2021 6.07765 33.1445 5.89145C33.0904 5.70526 33.0633 5.50213 33.0633 5.28208C33.0633 4.95031 33.1208 4.6507 33.236 4.38325C33.3511 4.11242 33.5051 3.88898 33.6981 3.71294C33.891 3.53351 34.1162 3.38455 34.3735 3.26606C34.6341 3.14757 34.9033 3.06294 35.1809 3.01216C35.4585 2.95799 35.7445 2.93091 36.0391 2.93091C36.9633 2.93091 37.6827 3.16958 38.1973 3.64692C38.7152 4.12427 38.9895 4.7658 39.0199 5.57153H37.3492C37.3289 5.31763 37.2731 5.10096 37.1817 4.92153C37.0902 4.74211 36.9751 4.60669 36.8363 4.51528C36.6975 4.42388 36.5554 4.35955 36.4098 4.32231C36.2642 4.28169 36.1051 4.26138 35.9324 4.26138C35.8072 4.26138 35.6853 4.27323 35.5668 4.29692C35.4483 4.32062 35.3231 4.36294 35.191 4.42388C35.059 4.48143 34.9524 4.57453 34.8711 4.70317C34.7899 4.82843 34.7492 4.98247 34.7492 5.16528C34.7492 5.38534 34.8186 5.56307 34.9574 5.69849C35.0962 5.8339 35.3214 5.96086 35.6328 6.07935C35.8427 6.15382 36.3167 6.30278 37.0547 6.52622C37.4677 6.6481 37.7623 6.74966 37.9383 6.83091C38.7779 7.22362 39.1977 7.89224 39.1977 8.83677C39.1977 9.61541 38.9455 10.1994 38.441 10.5887C37.9366 10.9747 37.2053 11.1676 36.2473 11.1676Z" fill="white"/>
<path d="M45.2914 11.1676C43.3787 11.1676 42.3698 10.2519 42.2649 8.42036H43.8848C43.9356 8.89093 44.0659 9.23625 44.2758 9.4563C44.4891 9.67297 44.8158 9.7813 45.2559 9.7813C45.4014 9.7813 45.5318 9.76945 45.6469 9.74575C45.7654 9.71867 45.8703 9.68481 45.9617 9.64419C46.0531 9.60356 46.1327 9.54432 46.2004 9.46645C46.2681 9.3852 46.3257 9.30734 46.3731 9.23286C46.4205 9.155 46.4594 9.05005 46.4899 8.91802C46.5237 8.78599 46.5491 8.66411 46.566 8.55239C46.5863 8.43729 46.6016 8.29002 46.6117 8.1106C46.6219 7.92778 46.627 7.76359 46.627 7.61802C46.6303 7.46906 46.632 7.27948 46.632 7.04927V3.09849H48.2012V7.57739C48.2012 8.1563 48.1538 8.65734 48.059 9.08052C47.9676 9.50031 47.8119 9.8727 47.5918 10.1977C47.3751 10.5193 47.0755 10.7614 46.693 10.9239C46.3104 11.0864 45.8432 11.1676 45.2914 11.1676Z" fill="white"/>
<path d="M53.4367 11.1676C52.8172 11.1676 52.2552 11.0627 51.7508 10.8528C51.2464 10.6429 50.8266 10.3534 50.4914 9.98442C50.1596 9.61203 49.9024 9.17531 49.7195 8.67427C49.5401 8.17323 49.4504 7.63156 49.4504 7.04927C49.4504 6.46698 49.5401 5.92531 49.7195 5.42427C49.9024 4.92323 50.1596 4.4882 50.4914 4.11919C50.8266 3.74679 51.2464 3.45565 51.7508 3.24575C52.2552 3.03586 52.8172 2.93091 53.4367 2.93091C54.0529 2.93091 54.6132 3.03586 55.1176 3.24575C55.622 3.45565 56.0401 3.74679 56.3719 4.11919C56.7037 4.4882 56.9593 4.92323 57.1387 5.42427C57.3181 5.92531 57.4078 6.46698 57.4078 7.04927C57.4078 7.63156 57.3181 8.17323 57.1387 8.67427C56.9593 9.17531 56.7037 9.61203 56.3719 9.98442C56.0401 10.3534 55.622 10.6429 55.1176 10.8528C54.6132 11.0627 54.0529 11.1676 53.4367 11.1676ZM52.4363 9.55786C52.7343 9.70682 53.0643 9.7813 53.4266 9.7813C53.7888 9.7813 54.1172 9.70682 54.4117 9.55786C54.7096 9.4089 54.9534 9.20747 55.143 8.95356C55.3326 8.69966 55.4781 8.4102 55.5797 8.0852C55.6813 7.75682 55.732 7.41151 55.732 7.04927C55.732 6.68703 55.6813 6.34341 55.5797 6.01841C55.4781 5.69002 55.3326 5.39888 55.143 5.14497C54.9534 4.88768 54.7096 4.68455 54.4117 4.5356C54.1172 4.38664 53.7888 4.31216 53.4266 4.31216C53.1354 4.31216 52.8646 4.36125 52.6141 4.45942C52.3636 4.5576 52.1469 4.69302 51.9641 4.86567C51.7846 5.03494 51.6289 5.23468 51.4969 5.46489C51.3682 5.6951 51.2718 5.94562 51.2074 6.21645C51.1465 6.4839 51.116 6.76151 51.116 7.04927C51.116 7.41151 51.1668 7.75682 51.2684 8.0852C51.3699 8.4102 51.5155 8.69966 51.7051 8.95356C51.8947 9.20747 52.1384 9.4089 52.4363 9.55786Z" fill="white"/>
<path d="M63.5371 6.22661V3.09849H65.1012V11H63.5371V7.7145H60.2008V11H58.652V3.09849H60.2008V6.22661H63.5371Z" fill="white"/>
<path d="M67.6555 11H65.9492L69.0824 3.09849H70.6922L73.8102 11H72.1039L71.4285 9.13638H68.341L67.6555 11ZM69.8797 4.88599L68.8387 7.70435H70.9207L69.8797 4.88599Z" fill="white"/>
<path d="M76.2172 11H74.6684V3.09849H76.1664L79.5535 8.46099V3.09849H81.1176V11H79.5637L76.2172 5.82036V11Z" fill="white"/>
<path d="M85.5559 11.1676C84.9973 11.1676 84.4996 11.0999 84.0629 10.9645C83.6262 10.8291 83.2656 10.6395 82.9813 10.3958C82.7003 10.1486 82.4802 9.86255 82.3211 9.53755C82.162 9.20916 82.0638 8.84354 82.0266 8.44067H83.7023C83.8208 8.94172 84.0392 9.30057 84.3574 9.51724C84.679 9.73052 85.1022 9.83716 85.627 9.83716C86.0298 9.83716 86.343 9.75929 86.5664 9.60356C86.7932 9.44784 86.9066 9.2227 86.9066 8.92817C86.9066 8.80968 86.8796 8.70135 86.8254 8.60317C86.7746 8.50161 86.7103 8.41698 86.6324 8.34927C86.5579 8.27817 86.4598 8.21216 86.3379 8.15122C86.2194 8.0869 86.1111 8.03781 86.0129 8.00395C85.9147 7.96672 85.7962 7.92609 85.6574 7.88208C85.5626 7.85161 85.3984 7.80083 85.1648 7.72974C84.9313 7.65864 84.7247 7.59263 84.5453 7.53169C84.3659 7.47075 84.1898 7.40643 84.0172 7.33872C83.8174 7.25408 83.6397 7.16945 83.484 7.08481C83.3316 6.99679 83.1827 6.89185 83.0371 6.76997C82.8915 6.6481 82.7714 6.51776 82.6766 6.37895C82.5852 6.24015 82.5107 6.07765 82.4531 5.89145C82.399 5.70526 82.3719 5.50213 82.3719 5.28208C82.3719 4.95031 82.4294 4.6507 82.5445 4.38325C82.6596 4.11242 82.8137 3.88898 83.0066 3.71294C83.1996 3.53351 83.4247 3.38455 83.682 3.26606C83.9427 3.14757 84.2119 3.06294 84.4895 3.01216C84.7671 2.95799 85.0531 2.93091 85.3477 2.93091C86.2719 2.93091 86.9913 3.16958 87.5059 3.64692C88.0238 4.12427 88.2981 4.7658 88.3285 5.57153H86.6578C86.6375 5.31763 86.5816 5.10096 86.4902 4.92153C86.3988 4.74211 86.2837 4.60669 86.1449 4.51528C86.0061 4.42388 85.8639 4.35955 85.7184 4.32231C85.5728 4.28169 85.4137 4.26138 85.241 4.26138C85.1158 4.26138 84.9939 4.27323 84.8754 4.29692C84.7569 4.32062 84.6316 4.36294 84.4996 4.42388C84.3676 4.48143 84.2609 4.57453 84.1797 4.70317C84.0984 4.82843 84.0578 4.98247 84.0578 5.16528C84.0578 5.38534 84.1272 5.56307 84.266 5.69849C84.4048 5.8339 84.63 5.96086 84.9414 6.07935C85.1513 6.15382 85.6253 6.30278 86.3633 6.52622C86.7763 6.6481 87.0708 6.74966 87.2469 6.83091C88.0865 7.22362 88.5063 7.89224 88.5063 8.83677C88.5063 9.61541 88.254 10.1994 87.7496 10.5887C87.2452 10.9747 86.5139 11.1676 85.5559 11.1676Z" fill="white"/>
<path d="M92.5434 11.1676C91.9848 11.1676 91.4871 11.0999 91.0504 10.9645C90.6137 10.8291 90.2531 10.6395 89.9688 10.3958C89.6878 10.1486 89.4677 9.86255 89.3086 9.53755C89.1495 9.20916 89.0513 8.84354 89.0141 8.44067H90.6898C90.8083 8.94172 91.0267 9.30057 91.3449 9.51724C91.6665 9.73052 92.0897 9.83716 92.6145 9.83716C93.0173 9.83716 93.3305 9.75929 93.5539 9.60356C93.7807 9.44784 93.8941 9.2227 93.8941 8.92817C93.8941 8.80968 93.8671 8.70135 93.8129 8.60317C93.7621 8.50161 93.6978 8.41698 93.6199 8.34927C93.5454 8.27817 93.4473 8.21216 93.3254 8.15122C93.2069 8.0869 93.0986 8.03781 93.0004 8.00395C92.9022 7.96672 92.7837 7.92609 92.6449 7.88208C92.5501 7.85161 92.3859 7.80083 92.1524 7.72974C91.9188 7.65864 91.7122 7.59263 91.5328 7.53169C91.3534 7.47075 91.1773 7.40643 91.0047 7.33872C90.805 7.25408 90.6272 7.16945 90.4715 7.08481C90.3191 6.99679 90.1702 6.89185 90.0246 6.76997C89.879 6.6481 89.7589 6.51776 89.6641 6.37895C89.5727 6.24015 89.4982 6.07765 89.4406 5.89145C89.3865 5.70526 89.3594 5.50213 89.3594 5.28208C89.3594 4.95031 89.4169 4.6507 89.532 4.38325C89.6471 4.11242 89.8012 3.88898 89.9941 3.71294C90.1871 3.53351 90.4122 3.38455 90.6695 3.26606C90.9302 3.14757 91.1994 3.06294 91.477 3.01216C91.7546 2.95799 92.0406 2.93091 92.3352 2.93091C93.2594 2.93091 93.9788 3.16958 94.4934 3.64692C95.0113 4.12427 95.2856 4.7658 95.316 5.57153H93.6453C93.625 5.31763 93.5692 5.10096 93.4777 4.92153C93.3863 4.74211 93.2712 4.60669 93.1324 4.51528C92.9936 4.42388 92.8514 4.35955 92.7059 4.32231C92.5603 4.28169 92.4012 4.26138 92.2285 4.26138C92.1033 4.26138 91.9814 4.27323 91.8629 4.29692C91.7444 4.32062 91.6191 4.36294 91.4871 4.42388C91.3551 4.48143 91.2484 4.57453 91.1672 4.70317C91.0859 4.82843 91.0453 4.98247 91.0453 5.16528C91.0453 5.38534 91.1147 5.56307 91.2535 5.69849C91.3923 5.8339 91.6175 5.96086 91.9289 6.07935C92.1388 6.15382 92.6128 6.30278 93.3508 6.52622C93.7638 6.6481 94.0583 6.74966 94.2344 6.83091C95.074 7.22362 95.4938 7.89224 95.4938 8.83677C95.4938 9.61541 95.2415 10.1994 94.7371 10.5887C94.2327 10.9747 93.5014 11.1676 92.5434 11.1676Z" fill="white"/>
<path d="M100.277 11.1676C99.6578 11.1676 99.0958 11.0627 98.5914 10.8528C98.087 10.6429 97.6672 10.3534 97.332 9.98442C97.0003 9.61203 96.743 9.17531 96.5602 8.67427C96.3807 8.17323 96.291 7.63156 96.291 7.04927C96.291 6.46698 96.3807 5.92531 96.5602 5.42427C96.743 4.92323 97.0003 4.4882 97.332 4.11919C97.6672 3.74679 98.087 3.45565 98.5914 3.24575C99.0958 3.03586 99.6578 2.93091 100.277 2.93091C100.893 2.93091 101.454 3.03586 101.958 3.24575C102.463 3.45565 102.881 3.74679 103.213 4.11919C103.544 4.4882 103.8 4.92323 103.979 5.42427C104.159 5.92531 104.248 6.46698 104.248 7.04927C104.248 7.63156 104.159 8.17323 103.979 8.67427C103.8 9.17531 103.544 9.61203 103.213 9.98442C102.881 10.3534 102.463 10.6429 101.958 10.8528C101.454 11.0627 100.893 11.1676 100.277 11.1676ZM99.277 9.55786C99.5749 9.70682 99.905 9.7813 100.267 9.7813C100.629 9.7813 100.958 9.70682 101.252 9.55786C101.55 9.4089 101.794 9.20747 101.984 8.95356C102.173 8.69966 102.319 8.4102 102.42 8.0852C102.522 7.75682 102.573 7.41151 102.573 7.04927C102.573 6.68703 102.522 6.34341 102.42 6.01841C102.319 5.69002 102.173 5.39888 101.984 5.14497C101.794 4.88768 101.55 4.68455 101.252 4.5356C100.958 4.38664 100.629 4.31216 100.267 4.31216C99.9761 4.31216 99.7052 4.36125 99.4547 4.45942C99.2042 4.5576 98.9875 4.69302 98.8047 4.86567C98.6253 5.03494 98.4695 5.23468 98.3375 5.46489C98.2089 5.6951 98.1124 5.94562 98.0481 6.21645C97.9871 6.4839 97.9566 6.76151 97.9566 7.04927C97.9566 7.41151 98.0074 7.75682 98.109 8.0852C98.2106 8.4102 98.3561 8.69966 98.5457 8.95356C98.7353 9.20747 98.979 9.4089 99.277 9.55786Z" fill="white"/>
<path d="M107.041 11H105.493V3.09849H106.991L110.378 8.46099V3.09849H111.942V11H110.388L107.041 5.82036V11Z" fill="white"/>
<path d="M119.92 11.1676C119.3 11.1676 118.738 11.0627 118.234 10.8528C117.729 10.6429 117.309 10.3534 116.974 9.98442C116.642 9.61203 116.385 9.17531 116.202 8.67427C116.023 8.17323 115.933 7.63156 115.933 7.04927C115.933 6.46698 116.023 5.92531 116.202 5.42427C116.385 4.92323 116.642 4.4882 116.974 4.11919C117.309 3.74679 117.729 3.45565 118.234 3.24575C118.738 3.03586 119.3 2.93091 119.92 2.93091C120.536 2.93091 121.096 3.03586 121.6 3.24575C122.105 3.45565 122.523 3.74679 122.855 4.11919C123.186 4.4882 123.442 4.92323 123.621 5.42427C123.801 5.92531 123.891 6.46698 123.891 7.04927C123.891 7.63156 123.801 8.17323 123.621 8.67427C123.442 9.17531 123.186 9.61203 122.855 9.98442C122.523 10.3534 122.105 10.6429 121.6 10.8528C121.096 11.0627 120.536 11.1676 119.92 11.1676ZM118.919 9.55786C119.217 9.70682 119.547 9.7813 119.909 9.7813C120.272 9.7813 120.6 9.70682 120.895 9.55786C121.192 9.4089 121.436 9.20747 121.626 8.95356C121.815 8.69966 121.961 8.4102 122.062 8.0852C122.164 7.75682 122.215 7.41151 122.215 7.04927C122.215 6.68703 122.164 6.34341 122.062 6.01841C121.961 5.69002 121.815 5.39888 121.626 5.14497C121.436 4.88768 121.192 4.68455 120.895 4.5356C120.6 4.38664 120.272 4.31216 119.909 4.31216C119.618 4.31216 119.347 4.36125 119.097 4.45942C118.846 4.5576 118.63 4.69302 118.447 4.86567C118.267 5.03494 118.112 5.23468 117.98 5.46489C117.851 5.6951 117.755 5.94562 117.69 6.21645C117.629 6.4839 117.599 6.76151 117.599 7.04927C117.599 7.41151 117.65 7.75682 117.751 8.0852C117.853 8.4102 117.998 8.69966 118.188 8.95356C118.377 9.20747 118.621 9.4089 118.919 9.55786Z" fill="white"/>
<path d="M126.673 3.09849V9.46138H130.624V11H125.135V3.09849H126.673Z" fill="white"/>
<path d="M133.133 3.09849V9.46138H137.084V11H131.594V3.09849H133.133Z" fill="white"/>
<path d="M139.592 7.66372V9.46138H143.827V11H138.054V3.09849H143.65V4.63716H139.592V6.22661H143.284V7.66372H139.592Z" fill="white"/>
<path d="M151.485 11H148.149V3.09849H151.114C151.524 3.09849 151.895 3.1408 152.227 3.22544C152.558 3.30669 152.846 3.43026 153.09 3.59614C153.337 3.75864 153.528 3.97192 153.664 4.23599C153.799 4.50005 153.867 4.80304 153.867 5.14497C153.867 5.53429 153.765 5.87284 153.562 6.1606C153.359 6.44497 153.09 6.62609 152.755 6.70395C153.212 6.78859 153.581 7.01372 153.862 7.37935C154.143 7.74158 154.283 8.1783 154.283 8.6895C154.283 9.41398 154.029 9.98104 153.521 10.3907C153.017 10.7969 152.338 11 151.485 11ZM149.698 4.44927V6.27739H150.871C151.311 6.27739 151.649 6.20461 151.886 6.05903C152.127 5.91346 152.247 5.6951 152.247 5.40395C152.247 5.10265 152.137 4.86906 151.917 4.70317C151.697 4.5339 151.38 4.44927 150.967 4.44927H149.698ZM149.698 7.41997V9.64927H151.114C151.582 9.64927 151.956 9.55786 152.237 9.37505C152.521 9.18885 152.663 8.90955 152.663 8.53716C152.663 8.1783 152.519 7.90239 152.232 7.70942C151.947 7.51645 151.56 7.41997 151.069 7.41997H149.698Z" fill="white"/>
<path d="M157.894 11.1676C155.981 11.1676 154.972 10.2519 154.867 8.42036H156.487C156.538 8.89093 156.668 9.23625 156.878 9.4563C157.091 9.67297 157.418 9.7813 157.858 9.7813C158.004 9.7813 158.134 9.76945 158.249 9.74575C158.368 9.71867 158.473 9.68481 158.564 9.64419C158.655 9.60356 158.735 9.54432 158.803 9.46645C158.87 9.3852 158.928 9.30734 158.975 9.23286C159.023 9.155 159.062 9.05005 159.092 8.91802C159.126 8.78599 159.151 8.66411 159.168 8.55239C159.189 8.43729 159.204 8.29002 159.214 8.1106C159.224 7.92778 159.229 7.76359 159.229 7.61802C159.233 7.46906 159.234 7.27948 159.234 7.04927V3.09849H160.804V7.57739C160.804 8.1563 160.756 8.65734 160.661 9.08052C160.57 9.50031 160.414 9.8727 160.194 10.1977C159.977 10.5193 159.678 10.7614 159.295 10.9239C158.913 11.0864 158.446 11.1676 157.894 11.1676Z" fill="white"/>
<path d="M163.927 7.66372V9.46138H168.162V11H162.388V3.09849H167.984V4.63716H163.927V6.22661H167.618V7.66372H163.927Z" fill="white"/>
<path d="M170.914 11H169.365V3.09849H172.331C173.181 3.09849 173.851 3.29653 174.342 3.69263C174.836 4.08534 175.083 4.65239 175.083 5.3938C175.083 6.0675 174.867 6.59393 174.433 6.9731C174 7.34888 173.406 7.5757 172.651 7.65356L175.53 11H173.641L170.914 7.76528V11ZM170.914 4.44927V6.44497H172.163C172.526 6.44497 172.83 6.36372 173.077 6.20122C173.328 6.03872 173.453 5.79328 173.453 5.46489C173.453 5.13651 173.33 4.88599 173.082 4.71333C172.839 4.53729 172.507 4.44927 172.087 4.44927H170.914Z" fill="white"/>
<path d="M179.354 6.99849L182.736 11H180.832L178.054 7.62817V11H176.505V3.09849H178.054V6.37388L180.654 3.09849H182.548L179.354 6.99849Z" fill="white"/>
<path d="M187.839 2.20474C187.657 2.38416 187.415 2.47388 187.113 2.47388C186.812 2.47388 186.57 2.38416 186.387 2.20474C186.208 2.02192 186.118 1.78156 186.118 1.48364C186.118 1.1925 186.208 0.958903 186.387 0.782861C186.57 0.60682 186.812 0.518799 187.113 0.518799C187.415 0.518799 187.657 0.60682 187.839 0.782861C188.022 0.958903 188.114 1.1925 188.114 1.48364C188.114 1.78156 188.022 2.02192 187.839 2.20474ZM187.113 1.84927C187.222 1.84927 187.308 1.81711 187.372 1.75278C187.437 1.68507 187.469 1.59875 187.469 1.4938C187.469 1.38885 187.437 1.30591 187.372 1.24497C187.308 1.18403 187.222 1.15356 187.113 1.15356C187.008 1.15356 186.924 1.18403 186.859 1.24497C186.795 1.30591 186.763 1.38885 186.763 1.4938C186.763 1.59875 186.795 1.68507 186.859 1.75278C186.924 1.81711 187.008 1.84927 187.113 1.84927ZM184.889 11H183.183L186.316 3.09849H187.926L191.044 11H189.338L188.662 9.13638H185.575L184.889 11ZM187.113 4.88599L186.072 7.70435H188.154L187.113 4.88599Z" fill="white"/>
<path d="M194.776 11.1676C194.218 11.1676 193.72 11.0999 193.283 10.9645C192.846 10.8291 192.486 10.6395 192.202 10.3958C191.921 10.1486 191.701 9.86255 191.541 9.53755C191.382 9.20916 191.284 8.84354 191.247 8.44067H192.923C193.041 8.94172 193.26 9.30057 193.578 9.51724C193.899 9.73052 194.323 9.83716 194.847 9.83716C195.25 9.83716 195.563 9.75929 195.787 9.60356C196.014 9.44784 196.127 9.2227 196.127 8.92817C196.127 8.80968 196.1 8.70135 196.046 8.60317C195.995 8.50161 195.931 8.41698 195.853 8.34927C195.778 8.27817 195.68 8.21216 195.558 8.15122C195.44 8.0869 195.331 8.03781 195.233 8.00395C195.135 7.96672 195.017 7.92609 194.878 7.88208C194.783 7.85161 194.619 7.80083 194.385 7.72974C194.152 7.65864 193.945 7.59263 193.766 7.53169C193.586 7.47075 193.41 7.40643 193.238 7.33872C193.038 7.25408 192.86 7.16945 192.704 7.08481C192.552 6.99679 192.403 6.89185 192.257 6.76997C192.112 6.6481 191.992 6.51776 191.897 6.37895C191.805 6.24015 191.731 6.07765 191.673 5.89145C191.619 5.70526 191.592 5.50213 191.592 5.28208C191.592 4.95031 191.65 4.6507 191.765 4.38325C191.88 4.11242 192.034 3.88898 192.227 3.71294C192.42 3.53351 192.645 3.38455 192.902 3.26606C193.163 3.14757 193.432 3.06294 193.71 3.01216C193.987 2.95799 194.273 2.93091 194.568 2.93091C195.492 2.93091 196.212 3.16958 196.726 3.64692C197.244 4.12427 197.518 4.7658 197.549 5.57153H195.878C195.858 5.31763 195.802 5.10096 195.711 4.92153C195.619 4.74211 195.504 4.60669 195.365 4.51528C195.226 4.42388 195.084 4.35955 194.939 4.32231C194.793 4.28169 194.634 4.26138 194.461 4.26138C194.336 4.26138 194.214 4.27323 194.096 4.29692C193.977 4.32062 193.852 4.36294 193.72 4.42388C193.588 4.48143 193.481 4.57453 193.4 4.70317C193.319 4.82843 193.278 4.98247 193.278 5.16528C193.278 5.38534 193.348 5.56307 193.486 5.69849C193.625 5.8339 193.85 5.96086 194.162 6.07935C194.372 6.15382 194.846 6.30278 195.584 6.52622C195.997 6.6481 196.291 6.74966 196.467 6.83091C197.307 7.22362 197.727 7.89224 197.727 8.83677C197.727 9.61541 197.474 10.1994 196.97 10.5887C196.465 10.9747 195.734 11.1676 194.776 11.1676Z" fill="white"/>
<path d="M203.059 11H201.51V3.09849H204.567C205.379 3.09849 206.026 3.305 206.507 3.71802C206.987 4.13104 207.228 4.72518 207.228 5.50044C207.228 6.27231 206.979 6.86645 206.481 7.28286C205.984 7.69588 205.307 7.90239 204.45 7.90239H203.059V11ZM203.059 4.44927V6.53638H204.232C204.651 6.53638 204.985 6.45513 205.232 6.29263C205.483 6.12674 205.608 5.86945 205.608 5.52075C205.608 5.17544 205.484 4.91138 205.237 4.72856C204.99 4.54237 204.655 4.44927 204.232 4.44927H203.059Z" fill="white"/>
<path d="M210.066 7.66372V9.46138H214.302V11H208.528V3.09849H214.124V4.63716H210.066V6.22661H213.758V7.66372H210.066Z" fill="white"/>
<path d="M217.054 11H215.505V3.09849H218.471C219.32 3.09849 219.991 3.29653 220.482 3.69263C220.976 4.08534 221.223 4.65239 221.223 5.3938C221.223 6.0675 221.006 6.59393 220.573 6.9731C220.14 7.34888 219.546 7.5757 218.791 7.65356L221.67 11H219.781L217.054 7.76528V11ZM217.054 4.44927V6.44497H218.303C218.665 6.44497 218.97 6.36372 219.217 6.20122C219.468 6.03872 219.593 5.79328 219.593 5.46489C219.593 5.13651 219.469 4.88599 219.222 4.71333C218.979 4.53729 218.647 4.44927 218.227 4.44927H217.054Z" fill="white"/>
<path d="M226.311 7.61802V8.88755H222.152V7.61802H226.311Z" fill="white"/>
<path d="M231.395 11.1676C230.775 11.1676 230.213 11.0627 229.709 10.8528C229.204 10.6429 228.784 10.3534 228.449 9.98442C228.117 9.61203 227.86 9.17531 227.677 8.67427C227.498 8.17323 227.408 7.63156 227.408 7.04927C227.408 6.46698 227.498 5.92531 227.677 5.42427C227.86 4.92323 228.117 4.4882 228.449 4.11919C228.784 3.74679 229.204 3.45565 229.709 3.24575C230.213 3.03586 230.775 2.93091 231.395 2.93091C232.011 2.93091 232.571 3.03586 233.075 3.24575C233.58 3.45565 233.998 3.74679 234.33 4.11919C234.661 4.4882 234.917 4.92323 235.096 5.42427C235.276 5.92531 235.366 6.46698 235.366 7.04927C235.366 7.63156 235.276 8.17323 235.096 8.67427C234.917 9.17531 234.661 9.61203 234.33 9.98442C233.998 10.3534 233.58 10.6429 233.075 10.8528C232.571 11.0627 232.011 11.1676 231.395 11.1676ZM230.394 9.55786C230.692 9.70682 231.022 9.7813 231.384 9.7813C231.747 9.7813 232.075 9.70682 232.37 9.55786C232.667 9.4089 232.911 9.20747 233.101 8.95356C233.29 8.69966 233.436 8.4102 233.538 8.0852C233.639 7.75682 233.69 7.41151 233.69 7.04927C233.69 6.68703 233.639 6.34341 233.538 6.01841C233.436 5.69002 233.29 5.39888 233.101 5.14497C232.911 4.88768 232.667 4.68455 232.37 4.5356C232.075 4.38664 231.747 4.31216 231.384 4.31216C231.093 4.31216 230.822 4.36125 230.572 4.45942C230.321 4.5576 230.105 4.69302 229.922 4.86567C229.742 5.03494 229.587 5.23468 229.455 5.46489C229.326 5.6951 229.23 5.94562 229.165 6.21645C229.104 6.4839 229.074 6.76151 229.074 7.04927C229.074 7.41151 229.125 7.75682 229.226 8.0852C229.328 8.4102 229.473 8.69966 229.663 8.95356C229.852 9.20747 230.096 9.4089 230.394 9.55786Z" fill="white"/>
<path d="M238.148 3.09849V9.46138H242.099V11H236.61V3.09849H238.148Z" fill="white"/>
<path d="M246.355 11.1676C245.735 11.1676 245.173 11.0627 244.669 10.8528C244.164 10.6429 243.745 10.3534 243.409 9.98442C243.078 9.61203 242.82 9.17531 242.637 8.67427C242.458 8.17323 242.368 7.63156 242.368 7.04927C242.368 6.46698 242.458 5.92531 242.637 5.42427C242.82 4.92323 243.078 4.4882 243.409 4.11919C243.745 3.74679 244.164 3.45565 244.669 3.24575C245.173 3.03586 245.735 2.93091 246.355 2.93091C246.971 2.93091 247.531 3.03586 248.036 3.24575C248.54 3.45565 248.958 3.74679 249.29 4.11919C249.622 4.4882 249.877 4.92323 250.057 5.42427C250.236 5.92531 250.326 6.46698 250.326 7.04927C250.326 7.63156 250.236 8.17323 250.057 8.67427C249.877 9.17531 249.622 9.61203 249.29 9.98442C248.958 10.3534 248.54 10.6429 248.036 10.8528C247.531 11.0627 246.971 11.1676 246.355 11.1676ZM245.354 9.55786C245.652 9.70682 245.982 9.7813 246.345 9.7813C246.707 9.7813 247.035 9.70682 247.33 9.55786C247.628 9.4089 247.871 9.20747 248.061 8.95356C248.251 8.69966 248.396 8.4102 248.498 8.0852C248.599 7.75682 248.65 7.41151 248.65 7.04927C248.65 6.68703 248.599 6.34341 248.498 6.01841C248.396 5.69002 248.251 5.39888 248.061 5.14497C247.871 4.88768 247.628 4.68455 247.33 4.5356C247.035 4.38664 246.707 4.31216 246.345 4.31216C246.053 4.31216 245.783 4.36125 245.532 4.45942C245.281 4.5576 245.065 4.69302 244.882 4.86567C244.703 5.03494 244.547 5.23468 244.415 5.46489C244.286 5.6951 244.19 5.94562 244.125 6.21645C244.064 6.4839 244.034 6.76151 244.034 7.04927C244.034 7.41151 244.085 7.75682 244.186 8.0852C244.288 8.4102 244.433 8.69966 244.623 8.95356C244.813 9.20747 245.056 9.4089 245.354 9.55786Z" fill="white"/>
<path d="M255.277 11H253.667L250.539 3.09849H252.25L254.47 9.21255L256.684 3.09849H258.4L255.277 11Z" fill="white"/>
<path d="M264.331 11.1676C262.418 11.1676 261.41 10.2519 261.305 8.42036H262.925C262.975 8.89093 263.106 9.23625 263.316 9.4563C263.529 9.67297 263.856 9.7813 264.296 9.7813C264.441 9.7813 264.572 9.76945 264.687 9.74575C264.805 9.71867 264.91 9.68481 265.002 9.64419C265.093 9.60356 265.173 9.54432 265.24 9.46645C265.308 9.3852 265.366 9.30734 265.413 9.23286C265.46 9.155 265.499 9.05005 265.53 8.91802C265.564 8.78599 265.589 8.66411 265.606 8.55239C265.626 8.43729 265.641 8.29002 265.652 8.1106C265.662 7.92778 265.667 7.76359 265.667 7.61802C265.67 7.46906 265.672 7.27948 265.672 7.04927V3.09849H267.241V7.57739C267.241 8.1563 267.194 8.65734 267.099 9.08052C267.007 9.50031 266.852 9.8727 266.632 10.1977C266.415 10.5193 266.115 10.7614 265.733 10.9239C265.35 11.0864 264.883 11.1676 264.331 11.1676Z" fill="white"/>
<path d="M270.364 7.66372V9.46138H274.599V11H268.825V3.09849H274.421V4.63716H270.364V6.22661H274.056V7.66372H270.364Z" fill="white"/>
<path d="M277.352 11H275.803V3.09849H278.768C279.618 3.09849 280.288 3.29653 280.779 3.69263C281.274 4.08534 281.521 4.65239 281.521 5.3938C281.521 6.0675 281.304 6.59393 280.871 6.9731C280.437 7.34888 279.843 7.5757 279.088 7.65356L281.968 11H280.079L277.352 7.76528V11ZM277.352 4.44927V6.44497H278.601C278.963 6.44497 279.268 6.36372 279.515 6.20122C279.765 6.03872 279.891 5.79328 279.891 5.46489C279.891 5.13651 279.767 4.88599 279.52 4.71333C279.276 4.53729 278.944 4.44927 278.525 4.44927H277.352Z" fill="white"/>
<path d="M284.491 11H282.943V3.09849H284.441L287.828 8.46099V3.09849H289.392V11H287.838L284.491 5.82036V11Z" fill="white"/>
<path d="M294.404 11H291.068V3.09849H294.033C294.443 3.09849 294.814 3.1408 295.145 3.22544C295.477 3.30669 295.765 3.43026 296.009 3.59614C296.256 3.75864 296.447 3.97192 296.582 4.23599C296.718 4.50005 296.786 4.80304 296.786 5.14497C296.786 5.53429 296.684 5.87284 296.481 6.1606C296.278 6.44497 296.009 6.62609 295.673 6.70395C296.13 6.78859 296.499 7.01372 296.78 7.37935C297.061 7.74158 297.202 8.1783 297.202 8.6895C297.202 9.41398 296.948 9.98104 296.44 10.3907C295.936 10.7969 295.257 11 294.404 11ZM292.616 4.44927V6.27739H293.789C294.23 6.27739 294.568 6.20461 294.805 6.05903C295.045 5.91346 295.166 5.6951 295.166 5.40395C295.166 5.10265 295.056 4.86906 294.836 4.70317C294.615 4.5339 294.299 4.44927 293.886 4.44927H292.616ZM292.616 7.41997V9.64927H294.033C294.5 9.64927 294.874 9.55786 295.155 9.37505C295.44 9.18885 295.582 8.90955 295.582 8.53716C295.582 8.1783 295.438 7.90239 295.15 7.70942C294.866 7.51645 294.478 7.41997 293.987 7.41997H292.616Z" fill="white"/>
<path d="M300.041 7.66372V9.46138H304.276V11H298.502V3.09849H304.098V4.63716H300.041V6.22661H303.732V7.66372H300.041Z" fill="white"/>
<path d="M307.028 11H305.479V3.09849H308.445C309.295 3.09849 309.965 3.29653 310.456 3.69263C310.95 4.08534 311.197 4.65239 311.197 5.3938C311.197 6.0675 310.981 6.59393 310.547 6.9731C310.114 7.34888 309.52 7.5757 308.765 7.65356L311.644 11H309.755L307.028 7.76528V11ZM307.028 4.44927V6.44497H308.277C308.64 6.44497 308.944 6.36372 309.191 6.20122C309.442 6.03872 309.567 5.79328 309.567 5.46489C309.567 5.13651 309.444 4.88599 309.196 4.71333C308.953 4.53729 308.621 4.44927 308.201 4.44927H307.028Z" fill="white"/>
<path d="M316.428 11.1676C315.121 11.1676 314.087 10.7935 313.325 10.0454C312.563 9.2938 312.182 8.28833 312.182 7.02895C312.182 6.40604 312.277 5.83898 312.467 5.32778C312.66 4.8132 312.927 4.38156 313.269 4.03286C313.611 3.68078 314.024 3.40994 314.508 3.22036C314.996 3.02739 315.531 2.93091 316.113 2.93091C316.787 2.93091 317.398 3.05448 317.946 3.30161C318.498 3.54536 318.943 3.8856 319.282 4.32231C319.624 4.75565 319.83 5.25161 319.901 5.8102H318.246C318.124 5.35994 317.877 4.9977 317.504 4.72349C317.132 4.44927 316.673 4.31216 316.128 4.31216C315.427 4.31216 314.87 4.55422 314.457 5.03833C314.044 5.52244 313.838 6.18599 313.838 7.02895C313.838 7.87869 314.065 8.5507 314.518 9.04497C314.972 9.53586 315.612 9.7813 316.438 9.7813C316.834 9.7813 317.218 9.71359 317.591 9.57817C317.963 9.44276 318.244 9.25148 318.434 9.00434V8.06489H315.823V6.73442H319.901V9.48169C319.59 9.9895 319.116 10.3974 318.479 10.7055C317.846 11.0136 317.162 11.1676 316.428 11.1676Z" fill="white"/>
<path d="M327.011 11.1676C326.452 11.1676 325.954 11.0999 325.518 10.9645C325.081 10.8291 324.72 10.6395 324.436 10.3958C324.155 10.1486 323.935 9.86255 323.776 9.53755C323.617 9.20916 323.519 8.84354 323.481 8.44067H325.157C325.276 8.94172 325.494 9.30057 325.812 9.51724C326.134 9.73052 326.557 9.83716 327.082 9.83716C327.484 9.83716 327.798 9.75929 328.021 9.60356C328.248 9.44784 328.361 9.2227 328.361 8.92817C328.361 8.80968 328.334 8.70135 328.28 8.60317C328.229 8.50161 328.165 8.41698 328.087 8.34927C328.013 8.27817 327.914 8.21216 327.793 8.15122C327.674 8.0869 327.566 8.03781 327.468 8.00395C327.369 7.96672 327.251 7.92609 327.112 7.88208C327.017 7.85161 326.853 7.80083 326.62 7.72974C326.386 7.65864 326.179 7.59263 326 7.53169C325.821 7.47075 325.645 7.40643 325.472 7.33872C325.272 7.25408 325.094 7.16945 324.939 7.08481C324.786 6.99679 324.637 6.89185 324.492 6.76997C324.346 6.6481 324.226 6.51776 324.131 6.37895C324.04 6.24015 323.965 6.07765 323.908 5.89145C323.854 5.70526 323.827 5.50213 323.827 5.28208C323.827 4.95031 323.884 4.6507 323.999 4.38325C324.114 4.11242 324.268 3.88898 324.461 3.71294C324.654 3.53351 324.879 3.38455 325.137 3.26606C325.397 3.14757 325.667 3.06294 325.944 3.01216C326.222 2.95799 326.508 2.93091 326.802 2.93091C327.727 2.93091 328.446 3.16958 328.961 3.64692C329.479 4.12427 329.753 4.7658 329.783 5.57153H328.113C328.092 5.31763 328.036 5.10096 327.945 4.92153C327.854 4.74211 327.738 4.60669 327.6 4.51528C327.461 4.42388 327.319 4.35955 327.173 4.32231C327.027 4.28169 326.868 4.26138 326.696 4.26138C326.57 4.26138 326.449 4.27323 326.33 4.29692C326.212 4.32062 326.086 4.36294 325.954 4.42388C325.822 4.48143 325.716 4.57453 325.634 4.70317C325.553 4.82843 325.513 4.98247 325.513 5.16528C325.513 5.38534 325.582 5.56307 325.721 5.69849C325.86 5.8339 326.085 5.96086 326.396 6.07935C326.606 6.15382 327.08 6.30278 327.818 6.52622C328.231 6.6481 328.526 6.74966 328.702 6.83091C329.541 7.22362 329.961 7.89224 329.961 8.83677C329.961 9.61541 329.709 10.1994 329.204 10.5887C328.7 10.9747 327.969 11.1676 327.011 11.1676Z" fill="white"/>
<path d="M332.632 7.66372V9.46138H336.867V11H331.093V3.09849H336.689V4.63716H332.632V6.22661H336.324V7.66372H332.632Z" fill="white"/>
<path d="M339.62 11H338.071V3.09849H341.036C341.886 3.09849 342.556 3.29653 343.047 3.69263C343.542 4.08534 343.789 4.65239 343.789 5.3938C343.789 6.0675 343.572 6.59393 343.139 6.9731C342.705 7.34888 342.111 7.5757 341.356 7.65356L344.236 11H342.346L339.62 7.76528V11ZM339.62 4.44927V6.44497H340.869C341.231 6.44497 341.536 6.36372 341.783 6.20122C342.033 6.03872 342.159 5.79328 342.159 5.46489C342.159 5.13651 342.035 4.88599 341.788 4.71333C341.544 4.53729 341.212 4.44927 340.793 4.44927H339.62Z" fill="white"/>
<path d="M349.232 11H347.623L344.495 3.09849H346.206L348.425 9.21255L350.639 3.09849H352.355L349.232 11Z" fill="white"/>
<path d="M353.239 11H351.533L354.666 3.09849H356.276L359.394 11H357.688L357.012 9.13638H353.925L353.239 11ZM355.463 4.88599L354.422 7.70435H356.504L355.463 4.88599Z" fill="white"/>
<path d="M361.801 11H360.252V3.09849H361.75L365.137 8.46099V3.09849H366.701V11H365.147L361.801 5.82036V11Z" fill="white"/>
<path d="M371.591 11H368.377V3.09849H371.612C372.211 3.09849 372.731 3.16958 373.171 3.31177C373.611 3.45396 373.988 3.67909 374.303 3.98716C374.621 4.29523 374.858 4.70317 375.014 5.21099C375.173 5.71541 375.253 6.3214 375.253 7.02895C375.253 8.41359 374.951 9.42414 374.349 10.0606C373.746 10.6937 372.827 11.0068 371.591 11ZM369.926 4.47974V9.6188H371.373C371.749 9.6188 372.069 9.57817 372.333 9.49692C372.597 9.41567 372.827 9.28026 373.023 9.09067C373.22 8.8977 373.364 8.63364 373.455 8.29849C373.55 7.95994 373.597 7.54354 373.597 7.04927C373.597 6.11828 373.421 5.45812 373.069 5.0688C372.72 4.67609 372.155 4.47974 371.373 4.47974H369.926Z" fill="white"/>
<path d="M380.204 11.1676C379.584 11.1676 379.022 11.0627 378.518 10.8528C378.014 10.6429 377.594 10.3534 377.259 9.98442C376.927 9.61203 376.67 9.17531 376.487 8.67427C376.307 8.17323 376.218 7.63156 376.218 7.04927C376.218 6.46698 376.307 5.92531 376.487 5.42427C376.67 4.92323 376.927 4.4882 377.259 4.11919C377.594 3.74679 378.014 3.45565 378.518 3.24575C379.022 3.03586 379.584 2.93091 380.204 2.93091C380.82 2.93091 381.38 3.03586 381.885 3.24575C382.389 3.45565 382.807 3.74679 383.139 4.11919C383.471 4.4882 383.726 4.92323 383.906 5.42427C384.085 5.92531 384.175 6.46698 384.175 7.04927C384.175 7.63156 384.085 8.17323 383.906 8.67427C383.726 9.17531 383.471 9.61203 383.139 9.98442C382.807 10.3534 382.389 10.6429 381.885 10.8528C381.38 11.0627 380.82 11.1676 380.204 11.1676ZM379.203 9.55786C379.501 9.70682 379.831 9.7813 380.194 9.7813C380.556 9.7813 380.884 9.70682 381.179 9.55786C381.477 9.4089 381.721 9.20747 381.91 8.95356C382.1 8.69966 382.245 8.4102 382.347 8.0852C382.448 7.75682 382.499 7.41151 382.499 7.04927C382.499 6.68703 382.448 6.34341 382.347 6.01841C382.245 5.69002 382.1 5.39888 381.91 5.14497C381.721 4.88768 381.477 4.68455 381.179 4.5356C380.884 4.38664 380.556 4.31216 380.194 4.31216C379.903 4.31216 379.632 4.36125 379.381 4.45942C379.131 4.5576 378.914 4.69302 378.731 4.86567C378.552 5.03494 378.396 5.23468 378.264 5.46489C378.135 5.6951 378.039 5.94562 377.975 6.21645C377.914 6.4839 377.883 6.76151 377.883 7.04927C377.883 7.41151 377.934 7.75682 378.036 8.0852C378.137 8.4102 378.283 8.69966 378.472 8.95356C378.662 9.20747 378.906 9.4089 379.203 9.55786Z" fill="white"/>
<path d="M391.508 11H388.171V3.09849H391.137C391.547 3.09849 391.917 3.1408 392.249 3.22544C392.581 3.30669 392.869 3.43026 393.113 3.59614C393.36 3.75864 393.551 3.97192 393.686 4.23599C393.822 4.50005 393.889 4.80304 393.889 5.14497C393.889 5.53429 393.788 5.87284 393.585 6.1606C393.382 6.44497 393.112 6.62609 392.777 6.70395C393.234 6.78859 393.603 7.01372 393.884 7.37935C394.165 7.74158 394.306 8.1783 394.306 8.6895C394.306 9.41398 394.052 9.98104 393.544 10.3907C393.04 10.7969 392.361 11 391.508 11ZM389.72 4.44927V6.27739H390.893C391.333 6.27739 391.672 6.20461 391.909 6.05903C392.149 5.91346 392.27 5.6951 392.27 5.40395C392.27 5.10265 392.16 4.86906 391.939 4.70317C391.719 4.5339 391.403 4.44927 390.99 4.44927H389.72ZM389.72 7.41997V9.64927H391.137C391.604 9.64927 391.978 9.55786 392.259 9.37505C392.544 9.18885 392.686 8.90955 392.686 8.53716C392.686 8.1783 392.542 7.90239 392.254 7.70942C391.97 7.51645 391.582 7.41997 391.091 7.41997H389.72Z" fill="white"/>
<path d="M396.698 11H394.991L398.125 3.09849H399.734L402.852 11H401.146L400.471 9.13638H397.383L396.698 11ZM398.922 4.88599L397.881 7.70435H399.963L398.922 4.88599Z" fill="white"/>
<path d="M405.259 11H403.711V3.09849H406.676C407.526 3.09849 408.196 3.29653 408.687 3.69263C409.181 4.08534 409.429 4.65239 409.429 5.3938C409.429 6.0675 409.212 6.59393 408.779 6.9731C408.345 7.34888 407.751 7.5757 406.996 7.65356L409.875 11H407.986L405.259 7.76528V11ZM405.259 4.44927V6.44497H406.509C406.871 6.44497 407.176 6.36372 407.423 6.20122C407.673 6.03872 407.798 5.79328 407.798 5.46489C407.798 5.13651 407.675 4.88599 407.428 4.71333C407.184 4.53729 406.852 4.44927 406.432 4.44927H405.259Z" fill="white"/>
<path d="M412.399 11H410.85V3.09849H413.816C414.666 3.09849 415.336 3.29653 415.827 3.69263C416.321 4.08534 416.568 4.65239 416.568 5.3938C416.568 6.0675 416.352 6.59393 415.918 6.9731C415.485 7.34888 414.891 7.5757 414.136 7.65356L417.015 11H415.126L412.399 7.76528V11ZM412.399 4.44927V6.44497H413.648C414.011 6.44497 414.315 6.36372 414.562 6.20122C414.813 6.03872 414.938 5.79328 414.938 5.46489C414.938 5.13651 414.815 4.88599 414.568 4.71333C414.324 4.53729 413.992 4.44927 413.572 4.44927H412.399Z" fill="white"/>
<path d="M419.529 7.66372V9.46138H423.764V11H417.99V3.09849H423.586V4.63716H419.529V6.22661H423.221V7.66372H419.529Z" fill="white"/>
<path d="M426.415 11H424.861V3.09849H426.415V11Z" fill="white"/>
<path d="M429.543 11H427.994V3.09849H430.96C431.809 3.09849 432.48 3.29653 432.971 3.69263C433.465 4.08534 433.712 4.65239 433.712 5.3938C433.712 6.0675 433.495 6.59393 433.062 6.9731C432.629 7.34888 432.035 7.5757 431.28 7.65356L434.159 11H432.27L429.543 7.76528V11ZM429.543 4.44927V6.44497H430.792C431.154 6.44497 431.459 6.36372 431.706 6.20122C431.957 6.03872 432.082 5.79328 432.082 5.46489C432.082 5.13651 431.958 4.88599 431.711 4.71333C431.468 4.53729 431.136 4.44927 430.716 4.44927H429.543Z" fill="white"/>
<path d="M438.684 11.1676C438.064 11.1676 437.502 11.0627 436.998 10.8528C436.493 10.6429 436.073 10.3534 435.738 9.98442C435.407 9.61203 435.149 9.17531 434.966 8.67427C434.787 8.17323 434.697 7.63156 434.697 7.04927C434.697 6.46698 434.787 5.92531 434.966 5.42427C435.149 4.92323 435.407 4.4882 435.738 4.11919C436.073 3.74679 436.493 3.45565 436.998 3.24575C437.502 3.03586 438.064 2.93091 438.684 2.93091C439.3 2.93091 439.86 3.03586 440.364 3.24575C440.869 3.45565 441.287 3.74679 441.619 4.11919C441.951 4.4882 442.206 4.92323 442.386 5.42427C442.565 5.92531 442.655 6.46698 442.655 7.04927C442.655 7.63156 442.565 8.17323 442.386 8.67427C442.206 9.17531 441.951 9.61203 441.619 9.98442C441.287 10.3534 440.869 10.6429 440.364 10.8528C439.86 11.0627 439.3 11.1676 438.684 11.1676ZM437.683 9.55786C437.981 9.70682 438.311 9.7813 438.673 9.7813C439.036 9.7813 439.364 9.70682 439.659 9.55786C439.957 9.4089 440.2 9.20747 440.39 8.95356C440.579 8.69966 440.725 8.4102 440.827 8.0852C440.928 7.75682 440.979 7.41151 440.979 7.04927C440.979 6.68703 440.928 6.34341 440.827 6.01841C440.725 5.69002 440.579 5.39888 440.39 5.14497C440.2 4.88768 439.957 4.68455 439.659 4.5356C439.364 4.38664 439.036 4.31216 438.673 4.31216C438.382 4.31216 438.111 4.36125 437.861 4.45942C437.61 4.5576 437.394 4.69302 437.211 4.86567C437.032 5.03494 436.876 5.23468 436.744 5.46489C436.615 5.6951 436.519 5.94562 436.454 6.21645C436.393 6.4839 436.363 6.76151 436.363 7.04927C436.363 7.41151 436.414 7.75682 436.515 8.0852C436.617 8.4102 436.762 8.69966 436.952 8.95356C437.142 9.20747 437.385 9.4089 437.683 9.55786Z" fill="white"/>
</svg>
