<svg width="444" height="812" viewBox="0 0 444 812" fill="none" preserveAspectRatio="none" xmlns="http://www.w3.org/2000/svg">
<path d="M26.9887 793.949V429.412C26.9887 427.182 22.8408 422.731 13.8409 415.501C4.84102 408.82 0 401.581 0 393.793V32.5927C0 18.6813 8.30676 12 25.6024 12C42.8981 12 51.2048 18.6813 51.2048 32.5927V396.572H26.9887V29.2565H24.2161V393.793C24.2161 396.572 29.0571 401.581 38.057 408.262C47.0569 415.501 51.2048 423.289 51.2048 431.634V790.604C51.2048 804.515 42.8981 811.197 25.6024 811.197C8.30676 811.197 0 804.524 0 790.613V427.182H24.2161V793.949H26.9887Z" fill="white"/>
<path d="M107.43 12.8032V811.197H53.2129V12.8032H78.9341V795.049H84.494V12.8032H107.43Z" fill="white"/>
<path d="M109.438 32.5925C109.438 18.6813 117.896 12 135.542 12C153.188 12 161.646 18.6813 161.646 32.5925V811.197H136.955V420.505H134.128V811.197H109.438V32.5925ZM136.944 404.364V29.2563H134.117V404.364H136.944Z" fill="white"/>
<path d="M214.86 391.395C214.86 401.974 209.325 408.1 198.95 409.765V410.88C209.325 410.88 214.86 416.449 214.86 428.143V811.197H190.643V417.564H187.871V811.197H163.655V12.8032H192.03C207.257 12.8032 214.86 18.9294 214.86 31.1728V391.395ZM190.643 28.9508H187.871V401.983H190.643V28.9508Z" fill="white"/>
<path d="M251.004 12.8032V28.9508H245.422V811.197H222.439V28.9508H216.868V12.8032H251.004Z" fill="white"/>
<path d="M282.129 795.049V811.197H254.016V12.8032H276.635V795.049H282.129Z" fill="white"/>
<path d="M309.357 422.415V794.744H312.129V12.8032H336.345V792.522C336.345 805.319 328.039 812 310.743 812C293.447 812 285.141 805.319 285.141 792.522V422.415H309.357Z" fill="white"/>
<path d="M390.562 12.8032V791.407C390.562 805.319 382.093 812 364.458 812C346.823 812 338.354 805.319 338.354 791.407V12.8032H363.044V794.744H365.871V12.8032H390.562Z" fill="white"/>
<path d="M419.559 793.949V429.412C419.559 427.182 415.411 422.731 406.411 415.501C397.411 408.82 392.57 401.59 392.57 393.793V32.5927C392.57 18.6813 400.877 12 418.173 12C435.468 12 443.775 18.6813 443.775 32.5927V396.572H419.559V29.2565H416.786V393.793C416.786 396.572 421.627 401.581 430.627 408.262C439.627 415.501 443.775 423.289 443.775 431.634V790.604C443.775 804.515 435.468 811.197 418.173 811.197C400.877 811.197 392.57 804.515 392.57 790.604V427.182H416.786V793.949H419.559Z" fill="white"/>
<path d="M3.58241 6.09343C2.51567 6.09343 1.95304 5.58272 1.89452 4.5613H2.79793C2.82625 4.82374 2.89894 5.01632 3.016 5.13904C3.13495 5.25987 3.31714 5.32029 3.56258 5.32029C3.64377 5.32029 3.71646 5.31368 3.78065 5.30046C3.84673 5.28536 3.90526 5.26648 3.95623 5.24382C4.00721 5.22117 4.05158 5.18813 4.08934 5.1447C4.1271 5.09939 4.1592 5.05597 4.18563 5.01443C4.21206 4.971 4.23377 4.91248 4.25077 4.83884C4.26965 4.76521 4.28381 4.69724 4.29325 4.63494C4.30457 4.57074 4.31307 4.48861 4.31873 4.38855C4.3244 4.2866 4.32723 4.19503 4.32723 4.11384C4.32912 4.03077 4.33006 3.92504 4.33006 3.79666V1.59334H5.20516V4.09119C5.20516 4.41404 5.17873 4.69347 5.12586 4.92947C5.07489 5.16358 4.98804 5.37127 4.86532 5.55252C4.74448 5.73188 4.57739 5.86687 4.36405 5.9575C4.1507 6.04812 3.89015 6.09343 3.58241 6.09343Z" fill="white"/>
<path d="M8.12498 6.09343C7.77948 6.09343 7.46607 6.0349 7.18475 5.91785C6.90344 5.80079 6.66932 5.63936 6.48241 5.43357C6.29738 5.22589 6.15389 4.98233 6.05194 4.70291C5.95187 4.42348 5.90184 4.1214 5.90184 3.79666C5.90184 3.47192 5.95187 3.16983 6.05194 2.89041C6.15389 2.61098 6.29738 2.36837 6.48241 2.16257C6.66932 1.95489 6.90344 1.79252 7.18475 1.67546C7.46607 1.55841 7.77948 1.49988 8.12498 1.49988C8.4686 1.49988 8.78107 1.55841 9.06239 1.67546C9.3437 1.79252 9.57687 1.95489 9.7619 2.16257C9.94693 2.36837 10.0895 2.61098 10.1895 2.89041C10.2896 3.16983 10.3396 3.47192 10.3396 3.79666C10.3396 4.1214 10.2896 4.42348 10.1895 4.70291C10.0895 4.98233 9.94693 5.22589 9.7619 5.43357C9.57687 5.63936 9.3437 5.80079 9.06239 5.91785C8.78107 6.0349 8.4686 6.09343 8.12498 6.09343ZM7.56707 5.19568C7.73322 5.27875 7.9173 5.32029 8.11932 5.32029C8.32134 5.32029 8.50448 5.27875 8.66873 5.19568C8.83488 5.11261 8.97082 5.00027 9.07655 4.85867C9.18228 4.71707 9.26346 4.55564 9.3201 4.37439C9.37674 4.19125 9.40506 3.99867 9.40506 3.79666C9.40506 3.59464 9.37674 3.403 9.3201 3.22175C9.26346 3.03862 9.18228 2.87625 9.07655 2.73464C8.97082 2.59115 8.83488 2.47787 8.66873 2.3948C8.50448 2.31173 8.32134 2.27019 8.11932 2.27019C7.95695 2.27019 7.80591 2.29757 7.6662 2.35232C7.52648 2.40707 7.40565 2.48259 7.3037 2.57888C7.20363 2.67328 7.11678 2.78468 7.04315 2.91306C6.9714 3.04145 6.9176 3.18116 6.88172 3.3322C6.84774 3.48136 6.83075 3.63617 6.83075 3.79666C6.83075 3.99867 6.85907 4.19125 6.91571 4.37439C6.97235 4.55564 7.05353 4.71707 7.15926 4.85867C7.26499 5.00027 7.40093 5.11261 7.56707 5.19568Z" fill="white"/>
<path d="M11.8972 5.99998H11.0335V1.59334H11.8689L13.7579 4.58396V1.59334H14.6302V5.99998H13.7636L11.8972 3.1113V5.99998Z" fill="white"/>
<path d="M16.0547 5.99998H15.1031L16.8505 1.59334H17.7482L19.4871 5.99998H18.5355L18.1589 4.96062H16.437L16.0547 5.99998ZM17.2951 2.59021L16.7145 4.16199H17.8757L17.2951 2.59021Z" fill="white"/>
<path d="M21.5686 6.09343C21.2571 6.09343 20.9796 6.05567 20.736 5.98015C20.4925 5.90463 20.2914 5.7989 20.1328 5.66296C19.9761 5.52514 19.8534 5.3656 19.7646 5.18435C19.6759 5.00121 19.6211 4.79731 19.6004 4.57263H20.5349C20.601 4.85206 20.7228 5.05219 20.9003 5.17302C21.0796 5.29197 21.3156 5.35144 21.6083 5.35144C21.833 5.35144 22.0076 5.30802 22.1322 5.22117C22.2587 5.13432 22.322 5.00877 22.322 4.84451C22.322 4.77843 22.3069 4.71801 22.2766 4.66326C22.2483 4.60662 22.2125 4.55942 22.169 4.52166C22.1275 4.48201 22.0727 4.44519 22.0048 4.41121C21.9387 4.37533 21.8783 4.34796 21.8235 4.32908C21.7688 4.30831 21.7027 4.28565 21.6253 4.26111C21.5724 4.24412 21.4808 4.2158 21.3506 4.17615C21.2203 4.1365 21.1051 4.09968 21.0051 4.0657C20.905 4.03171 20.8068 3.99584 20.7105 3.95808C20.5991 3.91088 20.5 3.86368 20.4132 3.81648C20.3282 3.76739 20.2451 3.70886 20.1639 3.64089C20.0828 3.57292 20.0157 3.50024 19.9629 3.42283C19.9119 3.34542 19.8704 3.25479 19.8383 3.15095C19.8081 3.04711 19.793 2.93383 19.793 2.81111C19.793 2.62608 19.825 2.45899 19.8892 2.30984C19.9534 2.1588 20.0393 2.03419 20.147 1.93601C20.2546 1.83595 20.3801 1.75287 20.5236 1.68679C20.669 1.62071 20.8191 1.57351 20.9739 1.54519C21.1287 1.51498 21.2883 1.49988 21.4525 1.49988C21.968 1.49988 22.3692 1.63298 22.6561 1.89919C22.945 2.16541 23.0979 2.52319 23.1149 2.97253H22.1832C22.1719 2.83093 22.1407 2.7101 22.0897 2.61003C22.0388 2.50997 21.9746 2.43445 21.8972 2.38347C21.8197 2.3325 21.7404 2.29662 21.6593 2.27585C21.5781 2.2532 21.4893 2.24187 21.3931 2.24187C21.3232 2.24187 21.2552 2.24848 21.1891 2.26169C21.1231 2.27491 21.0532 2.29851 20.9796 2.3325C20.9059 2.36459 20.8465 2.41651 20.8012 2.48826C20.7558 2.55811 20.7332 2.64402 20.7332 2.74597C20.7332 2.86869 20.7719 2.96781 20.8493 3.04333C20.9267 3.11886 21.0523 3.18966 21.226 3.25574C21.343 3.29727 21.6073 3.38035 22.0189 3.50496C22.2493 3.57293 22.4135 3.62957 22.5117 3.67488C22.9799 3.89389 23.214 4.26677 23.214 4.79353C23.214 5.22778 23.0734 5.55346 22.7921 5.77058C22.5108 5.98582 22.1029 6.09343 21.5686 6.09343Z" fill="white"/>
<path d="M26.6125 6.09343C25.5458 6.09343 24.9831 5.58272 24.9246 4.5613H25.828C25.8563 4.82374 25.929 5.01632 26.0461 5.13904C26.165 5.25987 26.3472 5.32029 26.5927 5.32029C26.6738 5.32029 26.7465 5.31368 26.8107 5.30046C26.8768 5.28536 26.9353 5.26648 26.9863 5.24382C27.0373 5.22117 27.0817 5.18813 27.1194 5.1447C27.1572 5.09939 27.1893 5.05597 27.2157 5.01443C27.2421 4.971 27.2639 4.91248 27.2808 4.83884C27.2997 4.76521 27.3139 4.69724 27.3233 4.63494C27.3347 4.57074 27.3431 4.48861 27.3488 4.38855C27.3545 4.2866 27.3573 4.19503 27.3573 4.11384C27.3592 4.03077 27.3601 3.92504 27.3601 3.79666V1.59334H28.2352V4.09119C28.2352 4.41404 28.2088 4.69347 28.1559 4.92947C28.105 5.16358 28.0181 5.37127 27.8954 5.55252C27.7746 5.73188 27.6075 5.86687 27.3941 5.9575C27.1808 6.04812 26.9202 6.09343 26.6125 6.09343Z" fill="white"/>
<path d="M31.1551 6.09343C30.8096 6.09343 30.4961 6.0349 30.2148 5.91785C29.9335 5.80079 29.6994 5.63936 29.5125 5.43357C29.3275 5.22589 29.184 4.98233 29.082 4.70291C28.982 4.42348 28.9319 4.1214 28.9319 3.79666C28.9319 3.47192 28.982 3.16983 29.082 2.89041C29.184 2.61098 29.3275 2.36837 29.5125 2.16257C29.6994 1.95489 29.9335 1.79252 30.2148 1.67546C30.4961 1.55841 30.8096 1.49988 31.1551 1.49988C31.4987 1.49988 31.8111 1.55841 32.0925 1.67546C32.3738 1.79252 32.607 1.95489 32.792 2.16257C32.977 2.36837 33.1196 2.61098 33.2196 2.89041C33.3197 3.16983 33.3697 3.47192 33.3697 3.79666C33.3697 4.1214 33.3197 4.42348 33.2196 4.70291C33.1196 4.98233 32.977 5.22589 32.792 5.43357C32.607 5.63936 32.3738 5.80079 32.0925 5.91785C31.8111 6.0349 31.4987 6.09343 31.1551 6.09343ZM30.5972 5.19568C30.7633 5.27875 30.9474 5.32029 31.1494 5.32029C31.3514 5.32029 31.5346 5.27875 31.6988 5.19568C31.865 5.11261 32.0009 5.00027 32.1066 4.85867C32.2124 4.71707 32.2935 4.55564 32.3502 4.37439C32.4068 4.19125 32.4351 3.99867 32.4351 3.79666C32.4351 3.59464 32.4068 3.403 32.3502 3.22175C32.2935 3.03862 32.2124 2.87625 32.1066 2.73464C32.0009 2.59115 31.865 2.47787 31.6988 2.3948C31.5346 2.31173 31.3514 2.27019 31.1494 2.27019C30.987 2.27019 30.836 2.29757 30.6963 2.35232C30.5566 2.40707 30.4357 2.48259 30.3338 2.57888C30.2337 2.67328 30.1469 2.78468 30.0732 2.91306C30.0015 3.04145 29.9477 3.18116 29.9118 3.3322C29.8778 3.48136 29.8608 3.63617 29.8608 3.79666C29.8608 3.99867 29.8891 4.19125 29.9458 4.37439C30.0024 4.55564 30.0836 4.71707 30.1893 4.85867C30.2951 5.00027 30.431 5.11261 30.5972 5.19568Z" fill="white"/>
<path d="M36.788 3.33787V1.59334H37.6602V5.99998H36.788V4.16765H34.9273V5.99998H34.0636V1.59334H34.9273V3.33787H36.788Z" fill="white"/>
<path d="M39.0848 5.99998H38.1332L39.8806 1.59334H40.7783L42.5172 5.99998H41.5656L41.189 4.96062H39.4671L39.0848 5.99998ZM40.3252 2.59021L39.7446 4.16199H40.9058L40.3252 2.59021Z" fill="white"/>
<path d="M43.8596 5.99998H42.9958V1.59334H43.8312L45.7202 4.58396V1.59334H46.5925V5.99998H45.7259L43.8596 3.1113V5.99998Z" fill="white"/>
<path d="M49.0677 6.09343C48.7561 6.09343 48.4786 6.05567 48.235 5.98015C47.9915 5.90463 47.7904 5.7989 47.6318 5.66296C47.4751 5.52514 47.3524 5.3656 47.2637 5.18435C47.1749 5.00121 47.1202 4.79731 47.0994 4.57263H48.034C48.1001 4.85206 48.2218 5.05219 48.3993 5.17302C48.5787 5.29197 48.8147 5.35144 49.1073 5.35144C49.332 5.35144 49.5066 5.30802 49.6312 5.22117C49.7577 5.13432 49.821 5.00877 49.821 4.84451C49.821 4.77843 49.8059 4.71801 49.7757 4.66326C49.7473 4.60662 49.7115 4.55942 49.6681 4.52166C49.6265 4.48201 49.5718 4.44519 49.5038 4.41121C49.4377 4.37533 49.3773 4.34796 49.3225 4.32908C49.2678 4.30831 49.2017 4.28565 49.1243 4.26111C49.0714 4.24412 48.9799 4.2158 48.8496 4.17615C48.7193 4.1365 48.6042 4.09968 48.5041 4.0657C48.404 4.03171 48.3058 3.99584 48.2096 3.95808C48.0982 3.91088 47.999 3.86368 47.9122 3.81648C47.8272 3.76739 47.7442 3.70886 47.663 3.64089C47.5818 3.57292 47.5148 3.50024 47.4619 3.42283C47.4109 3.34542 47.3694 3.25479 47.3373 3.15095C47.3071 3.04711 47.292 2.93383 47.292 2.81111C47.292 2.62608 47.3241 2.45899 47.3883 2.30984C47.4525 2.1588 47.5384 2.03419 47.646 1.93601C47.7536 1.83595 47.8792 1.75287 48.0226 1.68679C48.168 1.62071 48.3181 1.57351 48.4729 1.54519C48.6278 1.51498 48.7873 1.49988 48.9515 1.49988C49.467 1.49988 49.8682 1.63298 50.1552 1.89919C50.444 2.16541 50.597 2.52319 50.6139 2.97253H49.6822C49.6709 2.83093 49.6397 2.7101 49.5888 2.61003C49.5378 2.50997 49.4736 2.43445 49.3962 2.38347C49.3188 2.3325 49.2395 2.29662 49.1583 2.27585C49.0771 2.2532 48.9884 2.24187 48.8921 2.24187C48.8222 2.24187 48.7542 2.24848 48.6882 2.26169C48.6221 2.27491 48.5522 2.29851 48.4786 2.3325C48.405 2.36459 48.3455 2.41651 48.3002 2.48826C48.2549 2.55811 48.2322 2.64402 48.2322 2.74597C48.2322 2.86869 48.2709 2.96781 48.3483 3.04333C48.4257 3.11886 48.5513 3.18966 48.725 3.25574C48.842 3.29727 49.1064 3.38035 49.518 3.50496C49.7483 3.57293 49.9125 3.62957 50.0107 3.67488C50.479 3.89389 50.7131 4.26677 50.7131 4.79353C50.7131 5.22778 50.5724 5.55346 50.2911 5.77058C50.0098 5.98582 49.602 6.09343 49.0677 6.09343Z" fill="white"/>
<path d="M52.9645 6.09343C52.653 6.09343 52.3755 6.05567 52.1319 5.98015C51.8884 5.90463 51.6873 5.7989 51.5287 5.66296C51.372 5.52514 51.2493 5.3656 51.1605 5.18435C51.0718 5.00121 51.017 4.79731 50.9963 4.57263H51.9309C51.9969 4.85206 52.1187 5.05219 52.2962 5.17302C52.4755 5.29197 52.7115 5.35144 53.0042 5.35144C53.2289 5.35144 53.4035 5.30802 53.5281 5.22117C53.6546 5.13432 53.7179 5.00877 53.7179 4.84451C53.7179 4.77843 53.7028 4.71801 53.6726 4.66326C53.6442 4.60662 53.6084 4.55942 53.5649 4.52166C53.5234 4.48201 53.4686 4.44519 53.4007 4.41121C53.3346 4.37533 53.2742 4.34796 53.2194 4.32908C53.1647 4.30831 53.0986 4.28565 53.0212 4.26111C52.9683 4.24412 52.8767 4.2158 52.7465 4.17615C52.6162 4.1365 52.501 4.09968 52.401 4.0657C52.3009 4.03171 52.2027 3.99584 52.1064 3.95808C51.995 3.91088 51.8959 3.86368 51.8091 3.81648C51.7241 3.76739 51.641 3.70886 51.5599 3.64089C51.4787 3.57292 51.4116 3.50024 51.3588 3.42283C51.3078 3.34542 51.2663 3.25479 51.2342 3.15095C51.204 3.04711 51.1889 2.93383 51.1889 2.81111C51.1889 2.62608 51.221 2.45899 51.2851 2.30984C51.3493 2.1588 51.4352 2.03419 51.5429 1.93601C51.6505 1.83595 51.776 1.75287 51.9195 1.68679C52.0649 1.62071 52.215 1.57351 52.3698 1.54519C52.5246 1.51498 52.6842 1.49988 52.8484 1.49988C53.3639 1.49988 53.7651 1.63298 54.052 1.89919C54.3409 2.16541 54.4938 2.52319 54.5108 2.97253H53.5791C53.5678 2.83093 53.5366 2.7101 53.4856 2.61003C53.4347 2.50997 53.3705 2.43445 53.2931 2.38347C53.2156 2.3325 53.1364 2.29662 53.0552 2.27585C52.974 2.2532 52.8852 2.24187 52.789 2.24187C52.7191 2.24187 52.6511 2.24848 52.585 2.26169C52.519 2.27491 52.4491 2.29851 52.3755 2.3325C52.3018 2.36459 52.2424 2.41651 52.1971 2.48826C52.1517 2.55811 52.1291 2.64402 52.1291 2.74597C52.1291 2.86869 52.1678 2.96781 52.2452 3.04333C52.3226 3.11886 52.4482 3.18966 52.6219 3.25574C52.7389 3.29727 53.0032 3.38035 53.4148 3.50496C53.6452 3.57293 53.8094 3.62957 53.9076 3.67488C54.3758 3.89389 54.61 4.26677 54.61 4.79353C54.61 5.22778 54.4693 5.55346 54.188 5.77058C53.9067 5.98582 53.4989 6.09343 52.9645 6.09343Z" fill="white"/>
<path d="M57.2777 6.09343C56.9322 6.09343 56.6188 6.0349 56.3375 5.91785C56.0562 5.80079 55.8221 5.63936 55.6351 5.43357C55.4501 5.22589 55.3066 4.98233 55.2047 4.70291C55.1046 4.42348 55.0546 4.1214 55.0546 3.79666C55.0546 3.47192 55.1046 3.16983 55.2047 2.89041C55.3066 2.61098 55.4501 2.36837 55.6351 2.16257C55.8221 1.95489 56.0562 1.79252 56.3375 1.67546C56.6188 1.55841 56.9322 1.49988 57.2777 1.49988C57.6213 1.49988 57.9338 1.55841 58.2151 1.67546C58.4964 1.79252 58.7296 1.95489 58.9146 2.16257C59.0997 2.36837 59.2422 2.61098 59.3423 2.89041C59.4423 3.16983 59.4924 3.47192 59.4924 3.79666C59.4924 4.1214 59.4423 4.42348 59.3423 4.70291C59.2422 4.98233 59.0997 5.22589 58.9146 5.43357C58.7296 5.63936 58.4964 5.80079 58.2151 5.91785C57.9338 6.0349 57.6213 6.09343 57.2777 6.09343ZM56.7198 5.19568C56.886 5.27875 57.07 5.32029 57.2721 5.32029C57.4741 5.32029 57.6572 5.27875 57.8215 5.19568C57.9876 5.11261 58.1236 5.00027 58.2293 4.85867C58.335 4.71707 58.4162 4.55564 58.4728 4.37439C58.5295 4.19125 58.5578 3.99867 58.5578 3.79666C58.5578 3.59464 58.5295 3.403 58.4728 3.22175C58.4162 3.03862 58.335 2.87625 58.2293 2.73464C58.1236 2.59115 57.9876 2.47787 57.8215 2.3948C57.6572 2.31173 57.4741 2.27019 57.2721 2.27019C57.1097 2.27019 56.9586 2.29757 56.8189 2.35232C56.6792 2.40707 56.5584 2.48259 56.4564 2.57888C56.3564 2.67328 56.2695 2.78468 56.1959 2.91306C56.1241 3.04145 56.0703 3.18116 56.0345 3.3322C56.0005 3.48136 55.9835 3.63617 55.9835 3.79666C55.9835 3.99867 56.0118 4.19125 56.0684 4.37439C56.1251 4.55564 56.2063 4.71707 56.312 4.85867C56.4177 5.00027 56.5537 5.11261 56.7198 5.19568Z" fill="white"/>
<path d="M61.05 5.99998H60.1862V1.59334H61.0217L62.9106 4.58396V1.59334H63.7829V5.99998H62.9163L61.05 3.1113V5.99998Z" fill="white"/>
<path d="M68.232 6.09343C67.8865 6.09343 67.5731 6.0349 67.2918 5.91785C67.0105 5.80079 66.7764 5.63936 66.5894 5.43357C66.4044 5.22589 66.2609 4.98233 66.159 4.70291C66.0589 4.42348 66.0089 4.1214 66.0089 3.79666C66.0089 3.47192 66.0589 3.16983 66.159 2.89041C66.2609 2.61098 66.4044 2.36837 66.5894 2.16257C66.7764 1.95489 67.0105 1.79252 67.2918 1.67546C67.5731 1.55841 67.8865 1.49988 68.232 1.49988C68.5756 1.49988 68.8881 1.55841 69.1694 1.67546C69.4507 1.79252 69.6839 1.95489 69.8689 2.16257C70.054 2.36837 70.1965 2.61098 70.2966 2.89041C70.3966 3.16983 70.4467 3.47192 70.4467 3.79666C70.4467 4.1214 70.3966 4.42348 70.2966 4.70291C70.1965 4.98233 70.054 5.22589 69.8689 5.43357C69.6839 5.63936 69.4507 5.80079 69.1694 5.91785C68.8881 6.0349 68.5756 6.09343 68.232 6.09343ZM67.6741 5.19568C67.8403 5.27875 68.0243 5.32029 68.2264 5.32029C68.4284 5.32029 68.6115 5.27875 68.7758 5.19568C68.9419 5.11261 69.0779 5.00027 69.1836 4.85867C69.2893 4.71707 69.3705 4.55564 69.4271 4.37439C69.4838 4.19125 69.5121 3.99867 69.5121 3.79666C69.5121 3.59464 69.4838 3.403 69.4271 3.22175C69.3705 3.03862 69.2893 2.87625 69.1836 2.73464C69.0779 2.59115 68.9419 2.47787 68.7758 2.3948C68.6115 2.31173 68.4284 2.27019 68.2264 2.27019C68.064 2.27019 67.913 2.29757 67.7732 2.35232C67.6335 2.40707 67.5127 2.48259 67.4107 2.57888C67.3107 2.67328 67.2238 2.78468 67.1502 2.91306C67.0784 3.04145 67.0246 3.18116 66.9888 3.3322C66.9548 3.48136 66.9378 3.63617 66.9378 3.79666C66.9378 3.99867 66.9661 4.19125 67.0228 4.37439C67.0794 4.55564 67.1606 4.71707 67.2663 4.85867C67.372 5.00027 67.508 5.11261 67.6741 5.19568Z" fill="white"/>
<path d="M71.9986 1.59334V5.14187H74.2019V5.99998H71.1405V1.59334H71.9986Z" fill="white"/>
<path d="M75.601 1.59334V5.14187H77.8043V5.99998H74.7429V1.59334H75.601Z" fill="white"/>
<path d="M79.2033 4.13933V5.14187H81.5652V5.99998H78.3452V1.59334H81.4661V2.45144H79.2033V3.33787H81.2622V4.13933H79.2033Z" fill="white"/>
<path d="M85.8359 5.99998H83.9753V1.59334H85.6292C85.8576 1.59334 86.0644 1.61694 86.2494 1.66414C86.4344 1.70945 86.5949 1.77836 86.7309 1.87087C86.8687 1.9615 86.9753 2.08044 87.0509 2.22771C87.1264 2.37498 87.1641 2.54395 87.1641 2.73464C87.1641 2.95177 87.1075 3.14057 86.9942 3.30105C86.8809 3.45964 86.7309 3.56065 86.5439 3.60408C86.7988 3.65128 87.0046 3.77683 87.1613 3.98074C87.318 4.18276 87.3964 4.42631 87.3964 4.7114C87.3964 5.11544 87.2548 5.43168 86.9716 5.66013C86.6903 5.88669 86.3117 5.99998 85.8359 5.99998ZM84.8391 2.34666V3.36619H85.4932C85.7387 3.36619 85.9275 3.32559 86.0597 3.24441C86.1937 3.16322 86.2607 3.04145 86.2607 2.87908C86.2607 2.71104 86.1994 2.58077 86.0767 2.48826C85.9539 2.39386 85.7774 2.34666 85.5471 2.34666H84.8391ZM84.8391 4.00339V5.24666H85.6292C85.8897 5.24666 86.0984 5.19568 86.2551 5.09373C86.4137 4.98988 86.493 4.83412 86.493 4.62644C86.493 4.42631 86.4127 4.27244 86.2522 4.16482C86.0936 4.0572 85.8775 4.00339 85.6037 4.00339H84.8391Z" fill="white"/>
<path d="M89.41 6.09343C88.3432 6.09343 87.7806 5.58272 87.7221 4.5613H88.6255C88.6538 4.82374 88.7265 5.01632 88.8435 5.13904C88.9625 5.25987 89.1447 5.32029 89.3901 5.32029C89.4713 5.32029 89.544 5.31368 89.6082 5.30046C89.6743 5.28536 89.7328 5.26648 89.7838 5.24382C89.8348 5.22117 89.8791 5.18813 89.9169 5.1447C89.9546 5.09939 89.9867 5.05597 90.0132 5.01443C90.0396 4.971 90.0613 4.91248 90.0783 4.83884C90.0972 4.76521 90.1113 4.69724 90.1208 4.63494C90.1321 4.57074 90.1406 4.48861 90.1463 4.38855C90.1519 4.2866 90.1548 4.19503 90.1548 4.11384C90.1567 4.03077 90.1576 3.92504 90.1576 3.79666V1.59334H91.0327V4.09119C91.0327 4.41404 91.0063 4.69347 90.9534 4.92947C90.9024 5.16358 90.8156 5.37127 90.6929 5.55252C90.572 5.73188 90.4049 5.86687 90.1916 5.9575C89.9782 6.04812 89.7177 6.09343 89.41 6.09343Z" fill="white"/>
<path d="M92.7744 4.13933V5.14187H95.1363V5.99998H91.9163V1.59334H95.0372V2.45144H92.7744V3.33787H94.8333V4.13933H92.7744Z" fill="white"/>
<path d="M96.6713 5.99998H95.8075V1.59334H97.4614C97.9353 1.59334 98.3091 1.70378 98.5829 1.92468C98.8586 2.14369 98.9964 2.45994 98.9964 2.87341C98.9964 3.24913 98.8755 3.54272 98.6339 3.75417C98.3922 3.96375 98.0609 4.09024 97.6398 4.13367L99.2456 5.99998H98.1921L96.6713 4.19597V5.99998ZM96.6713 2.34666V3.45964H97.368C97.57 3.45964 97.7399 3.41433 97.8777 3.32371C98.0174 3.23308 98.0873 3.0962 98.0873 2.91306C98.0873 2.72992 98.0184 2.59021 97.8806 2.49392C97.7446 2.39574 97.5596 2.34666 97.3255 2.34666H96.6713Z" fill="white"/>
<path d="M101.378 3.76834L103.264 5.99998H102.202L100.653 4.11951V5.99998H99.7893V1.59334H100.653V3.42L102.103 1.59334H103.159L101.378 3.76834Z" fill="white"/>
<path d="M106.11 1.0949C106.008 1.19496 105.873 1.245 105.705 1.245C105.537 1.245 105.402 1.19496 105.3 1.0949C105.2 0.992944 105.15 0.858895 105.15 0.692749C105.15 0.530379 105.2 0.400106 105.3 0.301929C105.402 0.203752 105.537 0.154663 105.705 0.154663C105.873 0.154663 106.008 0.203752 106.11 0.301929C106.212 0.400106 106.263 0.530379 106.263 0.692749C106.263 0.858895 106.212 0.992944 106.11 1.0949ZM105.705 0.896655C105.766 0.896655 105.814 0.878719 105.85 0.842847C105.886 0.805086 105.904 0.756942 105.904 0.698413C105.904 0.639884 105.886 0.593628 105.85 0.559644C105.814 0.525659 105.766 0.508667 105.705 0.508667C105.647 0.508667 105.6 0.525659 105.564 0.559644C105.528 0.593628 105.51 0.639884 105.51 0.698413C105.51 0.756942 105.528 0.805086 105.564 0.842847C105.6 0.878719 105.647 0.896655 105.705 0.896655ZM104.465 5.99998H103.513L105.261 1.59334H106.159L107.897 5.99998H106.946L106.569 4.96062H104.847L104.465 5.99998ZM105.705 2.59021L105.125 4.16199H106.286L105.705 2.59021Z" fill="white"/>
<path d="M109.979 6.09343C109.667 6.09343 109.39 6.05567 109.146 5.98015C108.903 5.90463 108.702 5.7989 108.543 5.66296C108.386 5.52514 108.264 5.3656 108.175 5.18435C108.086 5.00121 108.031 4.79731 108.011 4.57263H108.945C109.011 4.85206 109.133 5.05219 109.311 5.17302C109.49 5.29197 109.726 5.35144 110.019 5.35144C110.243 5.35144 110.418 5.30802 110.543 5.22117C110.669 5.13432 110.732 5.00877 110.732 4.84451C110.732 4.77843 110.717 4.71801 110.687 4.66326C110.659 4.60662 110.623 4.55942 110.579 4.52166C110.538 4.48201 110.483 4.44519 110.415 4.41121C110.349 4.37533 110.289 4.34796 110.234 4.32908C110.179 4.30831 110.113 4.28565 110.036 4.26111C109.983 4.24412 109.891 4.2158 109.761 4.17615C109.631 4.1365 109.515 4.09968 109.415 4.0657C109.315 4.03171 109.217 3.99584 109.121 3.95808C109.009 3.91088 108.91 3.86368 108.824 3.81648C108.739 3.76739 108.655 3.70886 108.574 3.64089C108.493 3.57292 108.426 3.50024 108.373 3.42283C108.322 3.34542 108.281 3.25479 108.249 3.15095C108.218 3.04711 108.203 2.93383 108.203 2.81111C108.203 2.62608 108.235 2.45899 108.3 2.30984C108.364 2.1588 108.45 2.03419 108.557 1.93601C108.665 1.83595 108.79 1.75287 108.934 1.68679C109.079 1.62071 109.229 1.57351 109.384 1.54519C109.539 1.51498 109.699 1.49988 109.863 1.49988C110.378 1.49988 110.78 1.63298 111.066 1.89919C111.355 2.16541 111.508 2.52319 111.525 2.97253H110.594C110.582 2.83093 110.551 2.7101 110.5 2.61003C110.449 2.50997 110.385 2.43445 110.308 2.38347C110.23 2.3325 110.151 2.29662 110.07 2.27585C109.988 2.2532 109.9 2.24187 109.803 2.24187C109.734 2.24187 109.666 2.24848 109.6 2.26169C109.533 2.27491 109.464 2.29851 109.39 2.3325C109.316 2.36459 109.257 2.41651 109.212 2.48826C109.166 2.55811 109.144 2.64402 109.144 2.74597C109.144 2.86869 109.182 2.96781 109.26 3.04333C109.337 3.11886 109.463 3.18966 109.636 3.25574C109.753 3.29727 110.018 3.38035 110.429 3.50496C110.66 3.57293 110.824 3.62957 110.922 3.67488C111.39 3.89389 111.624 4.26677 111.624 4.79353C111.624 5.22778 111.484 5.55346 111.202 5.77058C110.921 5.98582 110.513 6.09343 109.979 6.09343Z" fill="white"/>
<path d="M114.598 5.99998H113.734V1.59334H115.439C115.892 1.59334 116.253 1.7085 116.521 1.93884C116.789 2.16918 116.923 2.50053 116.923 2.93289C116.923 3.36335 116.784 3.6947 116.507 3.92693C116.229 4.15727 115.852 4.27244 115.374 4.27244H114.598V5.99998ZM114.598 2.34666V3.51062H115.252C115.486 3.51062 115.672 3.46531 115.81 3.37468C115.95 3.28217 116.02 3.13868 116.02 2.94421C116.02 2.75164 115.951 2.60437 115.813 2.50242C115.675 2.39858 115.488 2.34666 115.252 2.34666H114.598Z" fill="white"/>
<path d="M118.506 4.13933V5.14187H120.868V5.99998H117.648V1.59334H120.769V2.45144H118.506V3.33787H120.565V4.13933H118.506Z" fill="white"/>
<path d="M122.403 5.99998H121.539V1.59334H123.193C123.667 1.59334 124.041 1.70378 124.315 1.92468C124.59 2.14369 124.728 2.45994 124.728 2.87341C124.728 3.24913 124.607 3.54272 124.366 3.75417C124.124 3.96375 123.793 4.09024 123.372 4.13367L124.977 5.99998H123.924L122.403 4.19597V5.99998ZM122.403 2.34666V3.45964H123.1C123.302 3.45964 123.472 3.41433 123.61 3.32371C123.749 3.23308 123.819 3.0962 123.819 2.91306C123.819 2.72992 123.75 2.59021 123.612 2.49392C123.476 2.39574 123.291 2.34666 123.057 2.34666H122.403Z" fill="white"/>
<path d="M127.566 4.11384V4.82185H125.246V4.11384H127.566Z" fill="white"/>
<path d="M130.401 6.09343C130.055 6.09343 129.742 6.0349 129.461 5.91785C129.179 5.80079 128.945 5.63936 128.758 5.43357C128.573 5.22589 128.43 4.98233 128.328 4.70291C128.228 4.42348 128.178 4.1214 128.178 3.79666C128.178 3.47192 128.228 3.16983 128.328 2.89041C128.43 2.61098 128.573 2.36837 128.758 2.16257C128.945 1.95489 129.179 1.79252 129.461 1.67546C129.742 1.55841 130.055 1.49988 130.401 1.49988C130.744 1.49988 131.057 1.55841 131.338 1.67546C131.619 1.79252 131.853 1.95489 132.038 2.16257C132.223 2.36837 132.365 2.61098 132.465 2.89041C132.565 3.16983 132.615 3.47192 132.615 3.79666C132.615 4.1214 132.565 4.42348 132.465 4.70291C132.365 4.98233 132.223 5.22589 132.038 5.43357C131.853 5.63936 131.619 5.80079 131.338 5.91785C131.057 6.0349 130.744 6.09343 130.401 6.09343ZM129.843 5.19568C130.009 5.27875 130.193 5.32029 130.395 5.32029C130.597 5.32029 130.78 5.27875 130.945 5.19568C131.111 5.11261 131.247 5.00027 131.352 4.85867C131.458 4.71707 131.539 4.55564 131.596 4.37439C131.653 4.19125 131.681 3.99867 131.681 3.79666C131.681 3.59464 131.653 3.403 131.596 3.22175C131.539 3.03862 131.458 2.87625 131.352 2.73464C131.247 2.59115 131.111 2.47787 130.945 2.3948C130.78 2.31173 130.597 2.27019 130.395 2.27019C130.233 2.27019 130.082 2.29757 129.942 2.35232C129.802 2.40707 129.681 2.48259 129.579 2.57888C129.479 2.67328 129.393 2.78468 129.319 2.91306C129.247 3.04145 129.193 3.18116 129.158 3.3322C129.124 3.48136 129.107 3.63617 129.107 3.79666C129.107 3.99867 129.135 4.19125 129.191 4.37439C129.248 4.55564 129.329 4.71707 129.435 4.85867C129.541 5.00027 129.677 5.11261 129.843 5.19568Z" fill="white"/>
<path d="M134.167 1.59334V5.14187H136.371V5.99998H133.309V1.59334H134.167Z" fill="white"/>
<path d="M138.744 6.09343C138.398 6.09343 138.085 6.0349 137.804 5.91785C137.522 5.80079 137.288 5.63936 137.101 5.43357C136.916 5.22589 136.773 4.98233 136.671 4.70291C136.571 4.42348 136.521 4.1214 136.521 3.79666C136.521 3.47192 136.571 3.16983 136.671 2.89041C136.773 2.61098 136.916 2.36837 137.101 2.16257C137.288 1.95489 137.522 1.79252 137.804 1.67546C138.085 1.55841 138.398 1.49988 138.744 1.49988C139.088 1.49988 139.4 1.55841 139.681 1.67546C139.963 1.79252 140.196 1.95489 140.381 2.16257C140.566 2.36837 140.708 2.61098 140.808 2.89041C140.909 3.16983 140.959 3.47192 140.959 3.79666C140.959 4.1214 140.909 4.42348 140.808 4.70291C140.708 4.98233 140.566 5.22589 140.381 5.43357C140.196 5.63936 139.963 5.80079 139.681 5.91785C139.4 6.0349 139.088 6.09343 138.744 6.09343ZM138.186 5.19568C138.352 5.27875 138.536 5.32029 138.738 5.32029C138.94 5.32029 139.123 5.27875 139.288 5.19568C139.454 5.11261 139.59 5.00027 139.696 4.85867C139.801 4.71707 139.882 4.55564 139.939 4.37439C139.996 4.19125 140.024 3.99867 140.024 3.79666C140.024 3.59464 139.996 3.403 139.939 3.22175C139.882 3.03862 139.801 2.87625 139.696 2.73464C139.59 2.59115 139.454 2.47787 139.288 2.3948C139.123 2.31173 138.94 2.27019 138.738 2.27019C138.576 2.27019 138.425 2.29757 138.285 2.35232C138.145 2.40707 138.025 2.48259 137.923 2.57888C137.823 2.67328 137.736 2.78468 137.662 2.91306C137.59 3.04145 137.537 3.18116 137.501 3.3322C137.467 3.48136 137.45 3.63617 137.45 3.79666C137.45 3.99867 137.478 4.19125 137.535 4.37439C137.591 4.55564 137.672 4.71707 137.778 4.85867C137.884 5.00027 138.02 5.11261 138.186 5.19568Z" fill="white"/>
<path d="M143.72 5.99998H142.822L141.078 1.59334H142.032L143.27 5.0031L144.504 1.59334H145.462L143.72 5.99998Z" fill="white"/>
<path d="M148.769 6.09343C147.703 6.09343 147.14 5.58272 147.081 4.5613H147.985C148.013 4.82374 148.086 5.01632 148.203 5.13904C148.322 5.25987 148.504 5.32029 148.749 5.32029C148.831 5.32029 148.903 5.31368 148.968 5.30046C149.034 5.28536 149.092 5.26648 149.143 5.24382C149.194 5.22117 149.238 5.18813 149.276 5.1447C149.314 5.09939 149.346 5.05597 149.373 5.01443C149.399 4.971 149.421 4.91248 149.438 4.83884C149.457 4.76521 149.471 4.69724 149.48 4.63494C149.491 4.57074 149.5 4.48861 149.506 4.38855C149.511 4.2866 149.514 4.19503 149.514 4.11384C149.516 4.03077 149.517 3.92504 149.517 3.79666V1.59334H150.392V4.09119C150.392 4.41404 150.366 4.69347 150.313 4.92947C150.262 5.16358 150.175 5.37127 150.052 5.55252C149.931 5.73188 149.764 5.86687 149.551 5.9575C149.338 6.04812 149.077 6.09343 148.769 6.09343Z" fill="white"/>
<path d="M152.134 4.13933V5.14187H154.496V5.99998H151.276V1.59334H154.397V2.45144H152.134V3.33787H154.193V4.13933H152.134Z" fill="white"/>
<path d="M156.031 5.99998H155.167V1.59334H156.821C157.295 1.59334 157.669 1.70378 157.942 1.92468C158.218 2.14369 158.356 2.45994 158.356 2.87341C158.356 3.24913 158.235 3.54272 157.993 3.75417C157.752 3.96375 157.42 4.09024 156.999 4.13367L158.605 5.99998H157.551L156.031 4.19597V5.99998ZM156.031 2.34666V3.45964H156.727C156.929 3.45964 157.099 3.41433 157.237 3.32371C157.377 3.23308 157.447 3.0962 157.447 2.91306C157.447 2.72992 157.378 2.59021 157.24 2.49392C157.104 2.39574 156.919 2.34666 156.685 2.34666H156.031Z" fill="white"/>
<path d="M160.012 5.99998H159.149V1.59334H159.984L161.873 4.58396V1.59334H162.745V5.99998H161.879L160.012 3.1113V5.99998Z" fill="white"/>
<path d="M165.541 5.99998H163.68V1.59334H165.334C165.562 1.59334 165.769 1.61694 165.954 1.66414C166.139 1.70945 166.3 1.77836 166.436 1.87087C166.573 1.9615 166.68 2.08044 166.756 2.22771C166.831 2.37498 166.869 2.54395 166.869 2.73464C166.869 2.95177 166.812 3.14057 166.699 3.30105C166.586 3.45964 166.436 3.56065 166.249 3.60408C166.504 3.65128 166.709 3.77683 166.866 3.98074C167.023 4.18276 167.101 4.42631 167.101 4.7114C167.101 5.11544 166.959 5.43168 166.676 5.66013C166.395 5.88669 166.016 5.99998 165.541 5.99998ZM164.544 2.34666V3.36619H165.198C165.443 3.36619 165.632 3.32559 165.764 3.24441C165.898 3.16322 165.965 3.04145 165.965 2.87908C165.965 2.71104 165.904 2.58077 165.781 2.48826C165.659 2.39386 165.482 2.34666 165.252 2.34666H164.544ZM164.544 4.00339V5.24666H165.334C165.594 5.24666 165.803 5.19568 165.96 5.09373C166.118 4.98988 166.198 4.83412 166.198 4.62644C166.198 4.42631 166.117 4.27244 165.957 4.16482C165.798 4.0572 165.582 4.00339 165.308 4.00339H164.544Z" fill="white"/>
<path d="M168.684 4.13933V5.14187H171.046V5.99998H167.826V1.59334H170.947V2.45144H168.684V3.33787H170.743V4.13933H168.684Z" fill="white"/>
<path d="M172.581 5.99998H171.717V1.59334H173.371C173.845 1.59334 174.219 1.70378 174.493 1.92468C174.768 2.14369 174.906 2.45994 174.906 2.87341C174.906 3.24913 174.785 3.54272 174.544 3.75417C174.302 3.96375 173.971 4.09024 173.55 4.13367L175.155 5.99998H174.102L172.581 4.19597V5.99998ZM172.581 2.34666V3.45964H173.278C173.48 3.45964 173.65 3.41433 173.787 3.32371C173.927 3.23308 173.997 3.0962 173.997 2.91306C173.997 2.72992 173.928 2.59021 173.79 2.49392C173.654 2.39574 173.469 2.34666 173.235 2.34666H172.581Z" fill="white"/>
<path d="M177.823 6.09343C177.094 6.09343 176.518 5.88481 176.093 5.46755C175.668 5.04841 175.456 4.48767 175.456 3.78533C175.456 3.43793 175.508 3.12169 175.614 2.8366C175.722 2.54962 175.871 2.30889 176.062 2.11443C176.252 1.91807 176.483 1.76703 176.753 1.6613C177.024 1.55369 177.323 1.49988 177.648 1.49988C178.023 1.49988 178.364 1.56879 178.67 1.70662C178.978 1.84255 179.226 2.0323 179.415 2.27585C179.605 2.51752 179.721 2.79412 179.76 3.10564H178.837C178.769 2.85453 178.631 2.65251 178.424 2.49959C178.216 2.34666 177.96 2.27019 177.656 2.27019C177.265 2.27019 176.955 2.40518 176.724 2.67517C176.494 2.94516 176.379 3.31521 176.379 3.78533C176.379 4.25922 176.505 4.63399 176.758 4.90964C177.011 5.18341 177.368 5.32029 177.829 5.32029C178.05 5.32029 178.264 5.28253 178.472 5.20701C178.679 5.13149 178.836 5.02481 178.942 4.88699V4.36306H177.486V3.62107H179.76V5.1532C179.587 5.4364 179.322 5.66391 178.967 5.83572C178.614 6.00753 178.233 6.09343 177.823 6.09343Z" fill="white"/>
<path d="M183.725 6.09343C183.414 6.09343 183.136 6.05567 182.892 5.98015C182.649 5.90463 182.448 5.7989 182.289 5.66296C182.133 5.52514 182.01 5.3656 181.921 5.18435C181.832 5.00121 181.778 4.79731 181.757 4.57263H182.691C182.757 4.85206 182.879 5.05219 183.057 5.17302C183.236 5.29197 183.472 5.35144 183.765 5.35144C183.989 5.35144 184.164 5.30802 184.289 5.22117C184.415 5.13432 184.478 5.00877 184.478 4.84451C184.478 4.77843 184.463 4.71801 184.433 4.66326C184.405 4.60662 184.369 4.55942 184.325 4.52166C184.284 4.48201 184.229 4.44519 184.161 4.41121C184.095 4.37533 184.035 4.34796 183.98 4.32908C183.925 4.30831 183.859 4.28565 183.782 4.26111C183.729 4.24412 183.637 4.2158 183.507 4.17615C183.377 4.1365 183.262 4.09968 183.162 4.0657C183.061 4.03171 182.963 3.99584 182.867 3.95808C182.756 3.91088 182.656 3.86368 182.57 3.81648C182.485 3.76739 182.402 3.70886 182.32 3.64089C182.239 3.57292 182.172 3.50024 182.119 3.42283C182.068 3.34542 182.027 3.25479 181.995 3.15095C181.965 3.04711 181.949 2.93383 181.949 2.81111C181.949 2.62608 181.981 2.45899 182.046 2.30984C182.11 2.1588 182.196 2.03419 182.303 1.93601C182.411 1.83595 182.537 1.75287 182.68 1.68679C182.825 1.62071 182.976 1.57351 183.13 1.54519C183.285 1.51498 183.445 1.49988 183.609 1.49988C184.124 1.49988 184.526 1.63298 184.813 1.89919C185.101 2.16541 185.254 2.52319 185.271 2.97253H184.34C184.328 2.83093 184.297 2.7101 184.246 2.61003C184.195 2.50997 184.131 2.43445 184.054 2.38347C183.976 2.3325 183.897 2.29662 183.816 2.27585C183.735 2.2532 183.646 2.24187 183.549 2.24187C183.48 2.24187 183.412 2.24848 183.346 2.26169C183.28 2.27491 183.21 2.29851 183.136 2.3325C183.062 2.36459 183.003 2.41651 182.958 2.48826C182.912 2.55811 182.89 2.64402 182.89 2.74597C182.89 2.86869 182.928 2.96781 183.006 3.04333C183.083 3.11886 183.209 3.18966 183.382 3.25574C183.499 3.29727 183.764 3.38035 184.175 3.50496C184.406 3.57293 184.57 3.62957 184.668 3.67488C185.136 3.89389 185.37 4.26677 185.37 4.79353C185.37 5.22778 185.23 5.55346 184.949 5.77058C184.667 5.98582 184.259 6.09343 183.725 6.09343Z" fill="white"/>
<path d="M186.86 4.13933V5.14187H189.222V5.99998H186.002V1.59334H189.123V2.45144H186.86V3.33787H188.919V4.13933H186.86Z" fill="white"/>
<path d="M190.757 5.99998H189.893V1.59334H191.547C192.021 1.59334 192.395 1.70378 192.669 1.92468C192.944 2.14369 193.082 2.45994 193.082 2.87341C193.082 3.24913 192.961 3.54272 192.72 3.75417C192.478 3.96375 192.147 4.09024 191.726 4.13367L193.331 5.99998H192.278L190.757 4.19597V5.99998ZM190.757 2.34666V3.45964H191.454C191.656 3.45964 191.826 3.41433 191.963 3.32371C192.103 3.23308 192.173 3.0962 192.173 2.91306C192.173 2.72992 192.104 2.59021 191.966 2.49392C191.83 2.39574 191.645 2.34666 191.411 2.34666H190.757Z" fill="white"/>
<path d="M196.118 5.99998H195.22L193.476 1.59334H194.43L195.668 5.0031L196.903 1.59334H197.86L196.118 5.99998Z" fill="white"/>
<path d="M198.353 5.99998H197.401L199.148 1.59334H200.046L201.785 5.99998H200.833L200.457 4.96062H198.735L198.353 5.99998ZM199.593 2.59021L199.012 4.16199H200.174L199.593 2.59021Z" fill="white"/>
<path d="M203.127 5.99998H202.264V1.59334H203.099L204.988 4.58396V1.59334H205.86V5.99998H204.994L203.127 3.1113V5.99998Z" fill="white"/>
<path d="M208.587 5.99998H206.795V1.59334H208.599C208.933 1.59334 209.223 1.63298 209.468 1.71228C209.714 1.79158 209.924 1.91713 210.1 2.08894C210.277 2.26075 210.409 2.48826 210.496 2.77146C210.585 3.05278 210.629 3.39073 210.629 3.78533C210.629 4.55753 210.461 5.1211 210.125 5.47605C209.789 5.82911 209.277 6.00375 208.587 5.99998ZM207.659 2.36365V5.22966H208.466C208.675 5.22966 208.854 5.20701 209.001 5.16169C209.148 5.11638 209.277 5.04086 209.386 4.93513C209.496 4.82751 209.576 4.68025 209.627 4.49334C209.68 4.30453 209.706 4.07231 209.706 3.79666C209.706 3.27745 209.608 2.90929 209.412 2.69216C209.217 2.47315 208.902 2.36365 208.466 2.36365H207.659Z" fill="white"/>
<path d="M213.391 6.09343C213.045 6.09343 212.732 6.0349 212.45 5.91785C212.169 5.80079 211.935 5.63936 211.748 5.43357C211.563 5.22589 211.42 4.98233 211.318 4.70291C211.218 4.42348 211.167 4.1214 211.167 3.79666C211.167 3.47192 211.218 3.16983 211.318 2.89041C211.42 2.61098 211.563 2.36837 211.748 2.16257C211.935 1.95489 212.169 1.79252 212.45 1.67546C212.732 1.55841 213.045 1.49988 213.391 1.49988C213.734 1.49988 214.047 1.55841 214.328 1.67546C214.609 1.79252 214.843 1.95489 215.028 2.16257C215.213 2.36837 215.355 2.61098 215.455 2.89041C215.555 3.16983 215.605 3.47192 215.605 3.79666C215.605 4.1214 215.555 4.42348 215.455 4.70291C215.355 4.98233 215.213 5.22589 215.028 5.43357C214.843 5.63936 214.609 5.80079 214.328 5.91785C214.047 6.0349 213.734 6.09343 213.391 6.09343ZM212.833 5.19568C212.999 5.27875 213.183 5.32029 213.385 5.32029C213.587 5.32029 213.77 5.27875 213.934 5.19568C214.101 5.11261 214.236 5.00027 214.342 4.85867C214.448 4.71707 214.529 4.55564 214.586 4.37439C214.642 4.19125 214.671 3.99867 214.671 3.79666C214.671 3.59464 214.642 3.403 214.586 3.22175C214.529 3.03862 214.448 2.87625 214.342 2.73464C214.236 2.59115 214.101 2.47787 213.934 2.3948C213.77 2.31173 213.587 2.27019 213.385 2.27019C213.223 2.27019 213.072 2.29757 212.932 2.35232C212.792 2.40707 212.671 2.48259 212.569 2.57888C212.469 2.67328 212.382 2.78468 212.309 2.91306C212.237 3.04145 212.183 3.18116 212.147 3.3322C212.113 3.48136 212.096 3.63617 212.096 3.79666C212.096 3.99867 212.125 4.19125 212.181 4.37439C212.238 4.55564 212.319 4.71707 212.425 4.85867C212.531 5.00027 212.667 5.11261 212.833 5.19568Z" fill="white"/>
<path d="M219.695 5.99998H217.834V1.59334H219.488C219.716 1.59334 219.923 1.61694 220.108 1.66414C220.293 1.70945 220.454 1.77836 220.59 1.87087C220.727 1.9615 220.834 2.08044 220.91 2.22771C220.985 2.37498 221.023 2.54395 221.023 2.73464C221.023 2.95177 220.966 3.14057 220.853 3.30105C220.74 3.45964 220.59 3.56065 220.403 3.60408C220.658 3.65128 220.863 3.77683 221.02 3.98074C221.177 4.18276 221.255 4.42631 221.255 4.7114C221.255 5.11544 221.114 5.43168 220.83 5.66013C220.549 5.88669 220.17 5.99998 219.695 5.99998ZM218.698 2.34666V3.36619H219.352C219.597 3.36619 219.786 3.32559 219.918 3.24441C220.052 3.16322 220.12 3.04145 220.12 2.87908C220.12 2.71104 220.058 2.58077 219.935 2.48826C219.813 2.39386 219.636 2.34666 219.406 2.34666H218.698ZM218.698 4.00339V5.24666H219.488C219.749 5.24666 219.957 5.19568 220.114 5.09373C220.272 4.98988 220.352 4.83412 220.352 4.62644C220.352 4.42631 220.272 4.27244 220.111 4.16482C219.952 4.0572 219.736 4.00339 219.462 4.00339H218.698Z" fill="white"/>
<path d="M222.589 5.99998H221.637L223.385 1.59334H224.283L226.021 5.99998H225.07L224.693 4.96062H222.971L222.589 5.99998ZM223.829 2.59021L223.249 4.16199H224.41L223.829 2.59021Z" fill="white"/>
<path d="M227.364 5.99998H226.5V1.59334H228.154C228.628 1.59334 229.002 1.70378 229.275 1.92468C229.551 2.14369 229.689 2.45994 229.689 2.87341C229.689 3.24913 229.568 3.54272 229.326 3.75417C229.085 3.96375 228.753 4.09024 228.332 4.13367L229.938 5.99998H228.885L227.364 4.19597V5.99998ZM227.364 2.34666V3.45964H228.061C228.263 3.45964 228.432 3.41433 228.57 3.32371C228.71 3.23308 228.78 3.0962 228.78 2.91306C228.78 2.72992 228.711 2.59021 228.573 2.49392C228.437 2.39574 228.252 2.34666 228.018 2.34666H227.364Z" fill="white"/>
<path d="M231.346 5.99998H230.482V1.59334H232.136C232.61 1.59334 232.984 1.70378 233.257 1.92468C233.533 2.14369 233.671 2.45994 233.671 2.87341C233.671 3.24913 233.55 3.54272 233.308 3.75417C233.067 3.96375 232.735 4.09024 232.314 4.13367L233.92 5.99998H232.867L231.346 4.19597V5.99998ZM231.346 2.34666V3.45964H232.042C232.244 3.45964 232.414 3.41433 232.552 3.32371C232.692 3.23308 232.762 3.0962 232.762 2.91306C232.762 2.72992 232.693 2.59021 232.555 2.49392C232.419 2.39574 232.234 2.34666 232 2.34666H231.346Z" fill="white"/>
<path d="M235.322 4.13933V5.14187H237.684V5.99998H234.464V1.59334H237.585V2.45144H235.322V3.33787H237.381V4.13933H235.322Z" fill="white"/>
<path d="M239.162 5.99998H238.296V1.59334H239.162V5.99998Z" fill="white"/>
<path d="M240.907 5.99998H240.043V1.59334H241.697C242.171 1.59334 242.545 1.70378 242.818 1.92468C243.094 2.14369 243.232 2.45994 243.232 2.87341C243.232 3.24913 243.111 3.54272 242.869 3.75417C242.628 3.96375 242.296 4.09024 241.875 4.13367L243.481 5.99998H242.427L240.907 4.19597V5.99998ZM240.907 2.34666V3.45964H241.603C241.805 3.45964 241.975 3.41433 242.113 3.32371C242.253 3.23308 242.323 3.0962 242.323 2.91306C242.323 2.72992 242.254 2.59021 242.116 2.49392C241.98 2.39574 241.795 2.34666 241.561 2.34666H240.907Z" fill="white"/>
<path d="M246.004 6.09343C245.659 6.09343 245.345 6.0349 245.064 5.91785C244.783 5.80079 244.549 5.63936 244.362 5.43357C244.177 5.22589 244.033 4.98233 243.931 4.70291C243.831 4.42348 243.781 4.1214 243.781 3.79666C243.781 3.47192 243.831 3.16983 243.931 2.89041C244.033 2.61098 244.177 2.36837 244.362 2.16257C244.549 1.95489 244.783 1.79252 245.064 1.67546C245.345 1.55841 245.659 1.49988 246.004 1.49988C246.348 1.49988 246.66 1.55841 246.942 1.67546C247.223 1.79252 247.456 1.95489 247.641 2.16257C247.826 2.36837 247.969 2.61098 248.069 2.89041C248.169 3.16983 248.219 3.47192 248.219 3.79666C248.219 4.1214 248.169 4.42348 248.069 4.70291C247.969 4.98233 247.826 5.22589 247.641 5.43357C247.456 5.63936 247.223 5.80079 246.942 5.91785C246.66 6.0349 246.348 6.09343 246.004 6.09343ZM245.446 5.19568C245.613 5.27875 245.797 5.32029 245.999 5.32029C246.201 5.32029 246.384 5.27875 246.548 5.19568C246.714 5.11261 246.85 5.00027 246.956 4.85867C247.062 4.71707 247.143 4.55564 247.199 4.37439C247.256 4.19125 247.284 3.99867 247.284 3.79666C247.284 3.59464 247.256 3.403 247.199 3.22175C247.143 3.03862 247.062 2.87625 246.956 2.73464C246.85 2.59115 246.714 2.47787 246.548 2.3948C246.384 2.31173 246.201 2.27019 245.999 2.27019C245.836 2.27019 245.685 2.29757 245.545 2.35232C245.406 2.40707 245.285 2.48259 245.183 2.57888C245.083 2.67328 244.996 2.78468 244.922 2.91306C244.851 3.04145 244.797 3.18116 244.761 3.3322C244.727 3.48136 244.71 3.63617 244.71 3.79666C244.71 3.99867 244.738 4.19125 244.795 4.37439C244.852 4.55564 244.933 4.71707 245.039 4.85867C245.144 5.00027 245.28 5.11261 245.446 5.19568Z" fill="white"/>
<path d="M251.306 4.13933V5.14187H253.668V5.99998H250.448V1.59334H253.569V2.45144H251.306V3.33787H253.365V4.13933H251.306Z" fill="white"/>
<path d="M255.197 1.59334V5.14187H257.4V5.99998H254.339V1.59334H255.197Z" fill="white"/>
<path d="M258.748 5.99998H257.882V1.59334H258.748V5.99998Z" fill="white"/>
<path d="M260.119 5.99998H259.168L260.915 1.59334H261.813L263.552 5.99998H262.6L262.223 4.96062H260.501L260.119 5.99998ZM261.36 2.59021L260.779 4.16199H261.94L261.36 2.59021Z" fill="white"/>
<path d="M265.633 6.09343C265.322 6.09343 265.044 6.05567 264.8 5.98015C264.557 5.90463 264.356 5.7989 264.197 5.66296C264.041 5.52514 263.918 5.3656 263.829 5.18435C263.74 5.00121 263.686 4.79731 263.665 4.57263H264.599C264.666 4.85206 264.787 5.05219 264.965 5.17302C265.144 5.29197 265.38 5.35144 265.673 5.35144C265.897 5.35144 266.072 5.30802 266.197 5.22117C266.323 5.13432 266.386 5.00877 266.386 4.84451C266.386 4.77843 266.371 4.71801 266.341 4.66326C266.313 4.60662 266.277 4.55942 266.233 4.52166C266.192 4.48201 266.137 4.44519 266.069 4.41121C266.003 4.37533 265.943 4.34796 265.888 4.32908C265.833 4.30831 265.767 4.28565 265.69 4.26111C265.637 4.24412 265.545 4.2158 265.415 4.17615C265.285 4.1365 265.17 4.09968 265.07 4.0657C264.969 4.03171 264.871 3.99584 264.775 3.95808C264.664 3.91088 264.564 3.86368 264.478 3.81648C264.393 3.76739 264.31 3.70886 264.228 3.64089C264.147 3.57292 264.08 3.50024 264.027 3.42283C263.976 3.34542 263.935 3.25479 263.903 3.15095C263.873 3.04711 263.857 2.93383 263.857 2.81111C263.857 2.62608 263.89 2.45899 263.954 2.30984C264.018 2.1588 264.104 2.03419 264.211 1.93601C264.319 1.83595 264.445 1.75287 264.588 1.68679C264.733 1.62071 264.884 1.57351 265.038 1.54519C265.193 1.51498 265.353 1.49988 265.517 1.49988C266.032 1.49988 266.434 1.63298 266.721 1.89919C267.009 2.16541 267.162 2.52319 267.179 2.97253H266.248C266.236 2.83093 266.205 2.7101 266.154 2.61003C266.103 2.50997 266.039 2.43445 265.962 2.38347C265.884 2.3325 265.805 2.29662 265.724 2.27585C265.643 2.2532 265.554 2.24187 265.458 2.24187C265.388 2.24187 265.32 2.24848 265.254 2.26169C265.188 2.27491 265.118 2.29851 265.044 2.3325C264.97 2.36459 264.911 2.41651 264.866 2.48826C264.82 2.55811 264.798 2.64402 264.798 2.74597C264.798 2.86869 264.836 2.96781 264.914 3.04333C264.991 3.11886 265.117 3.18966 265.29 3.25574C265.407 3.29727 265.672 3.38035 266.083 3.50496C266.314 3.57293 266.478 3.62957 266.576 3.67488C267.044 3.89389 267.279 4.26677 267.279 4.79353C267.279 5.22778 267.138 5.55346 266.857 5.77058C266.575 5.98582 266.167 6.09343 265.633 6.09343Z" fill="white"/>
<path d="M269.997 5.99998H269.046L270.793 1.59334H271.691L273.43 5.99998H272.478L272.101 4.96062H270.38L269.997 5.99998ZM271.238 2.59021L270.657 4.16199H271.818L271.238 2.59021Z" fill="white"/>
<path d="M274.636 5.99998H273.685L275.432 1.59334H276.33L278.069 5.99998H277.117L276.74 4.96062H275.018L274.636 5.99998ZM275.877 2.59021L275.296 4.16199H276.457L275.877 2.59021Z" fill="white"/>
<path d="M280.408 5.99998H278.547V1.59334H280.201C280.43 1.59334 280.636 1.61694 280.821 1.66414C281.006 1.70945 281.167 1.77836 281.303 1.87087C281.441 1.9615 281.547 2.08044 281.623 2.22771C281.698 2.37498 281.736 2.54395 281.736 2.73464C281.736 2.95177 281.679 3.14057 281.566 3.30105C281.453 3.45964 281.303 3.56065 281.116 3.60408C281.371 3.65128 281.576 3.77683 281.733 3.98074C281.89 4.18276 281.968 4.42631 281.968 4.7114C281.968 5.11544 281.827 5.43168 281.543 5.66013C281.262 5.88669 280.884 5.99998 280.408 5.99998ZM279.411 2.34666V3.36619H280.065C280.311 3.36619 280.499 3.32559 280.632 3.24441C280.766 3.16322 280.833 3.04145 280.833 2.87908C280.833 2.71104 280.771 2.58077 280.648 2.48826C280.526 2.39386 280.349 2.34666 280.119 2.34666H279.411ZM279.411 4.00339V5.24666H280.201C280.462 5.24666 280.67 5.19568 280.827 5.09373C280.986 4.98988 281.065 4.83412 281.065 4.62644C281.065 4.42631 280.985 4.27244 280.824 4.16482C280.666 4.0572 280.449 4.00339 280.176 4.00339H279.411Z" fill="white"/>
<path d="M283.982 6.09343C282.915 6.09343 282.352 5.58272 282.294 4.5613H283.197C283.226 4.82374 283.298 5.01632 283.415 5.13904C283.534 5.25987 283.717 5.32029 283.962 5.32029C284.043 5.32029 284.116 5.31368 284.18 5.30046C284.246 5.28536 284.305 5.26648 284.356 5.24382C284.407 5.22117 284.451 5.18813 284.489 5.1447C284.527 5.09939 284.559 5.05597 284.585 5.01443C284.611 4.971 284.633 4.91248 284.65 4.83884C284.669 4.76521 284.683 4.69724 284.693 4.63494C284.704 4.57074 284.713 4.48861 284.718 4.38855C284.724 4.2866 284.727 4.19503 284.727 4.11384C284.729 4.03077 284.729 3.92504 284.729 3.79666V1.59334H285.605V4.09119C285.605 4.41404 285.578 4.69347 285.525 4.92947C285.474 5.16358 285.387 5.37127 285.265 5.55252C285.144 5.73188 284.977 5.86687 284.763 5.9575C284.55 6.04812 284.29 6.09343 283.982 6.09343Z" fill="white"/>
<path d="M287.346 4.13933V5.14187H289.708V5.99998H286.488V1.59334H289.609V2.45144H287.346V3.33787H289.405V4.13933H287.346Z" fill="white"/>
<path d="M291.243 5.99998H290.379V1.59334H292.033C292.507 1.59334 292.881 1.70378 293.155 1.92468C293.43 2.14369 293.568 2.45994 293.568 2.87341C293.568 3.24913 293.447 3.54272 293.206 3.75417C292.964 3.96375 292.633 4.09024 292.212 4.13367L293.818 5.99998H292.764L291.243 4.19597V5.99998ZM291.243 2.34666V3.45964H291.94C292.142 3.45964 292.312 3.41433 292.45 3.32371C292.589 3.23308 292.659 3.0962 292.659 2.91306C292.659 2.72992 292.59 2.59021 292.452 2.49392C292.317 2.39574 292.132 2.34666 291.897 2.34666H291.243Z" fill="white"/>
<path d="M296.485 6.09343C295.756 6.09343 295.18 5.88481 294.755 5.46755C294.33 5.04841 294.118 4.48767 294.118 3.78533C294.118 3.43793 294.171 3.12169 294.276 2.8366C294.384 2.54962 294.533 2.30889 294.724 2.11443C294.914 1.91807 295.145 1.76703 295.415 1.6613C295.687 1.55369 295.985 1.49988 296.31 1.49988C296.685 1.49988 297.026 1.56879 297.332 1.70662C297.64 1.84255 297.888 2.0323 298.077 2.27585C298.268 2.51752 298.383 2.79412 298.422 3.10564H297.499C297.431 2.85453 297.293 2.65251 297.086 2.49959C296.878 2.34666 296.622 2.27019 296.318 2.27019C295.927 2.27019 295.617 2.40518 295.386 2.67517C295.156 2.94516 295.041 3.31521 295.041 3.78533C295.041 4.25922 295.167 4.63399 295.42 4.90964C295.673 5.18341 296.03 5.32029 296.491 5.32029C296.712 5.32029 296.926 5.28253 297.134 5.20701C297.341 5.13149 297.498 5.02481 297.604 4.88699V4.36306H296.148V3.62107H298.422V5.1532C298.249 5.4364 297.984 5.66391 297.629 5.83572C297.276 6.00753 296.895 6.09343 296.485 6.09343Z" fill="white"/>
<path d="M301.586 1.59334V5.14187H303.789V5.99998H300.728V1.59334H301.586Z" fill="white"/>
<path d="M305.137 5.99998H304.271V1.59334H305.137V5.99998Z" fill="white"/>
<path d="M308.031 6.09343C307.686 6.09343 307.373 6.0349 307.091 5.91785C306.81 5.80079 306.576 5.63936 306.389 5.43357C306.204 5.22589 306.06 4.98233 305.958 4.70291C305.858 4.42348 305.808 4.1214 305.808 3.79666C305.808 3.47192 305.858 3.16983 305.958 2.89041C306.06 2.61098 306.204 2.36837 306.389 2.16257C306.576 1.95489 306.81 1.79252 307.091 1.67546C307.373 1.55841 307.686 1.49988 308.031 1.49988C308.375 1.49988 308.688 1.55841 308.969 1.67546C309.25 1.79252 309.483 1.95489 309.668 2.16257C309.853 2.36837 309.996 2.61098 310.096 2.89041C310.196 3.16983 310.246 3.47192 310.246 3.79666C310.246 4.1214 310.196 4.42348 310.096 4.70291C309.996 4.98233 309.853 5.22589 309.668 5.43357C309.483 5.63936 309.25 5.80079 308.969 5.91785C308.688 6.0349 308.375 6.09343 308.031 6.09343ZM307.474 5.19568C307.64 5.27875 307.824 5.32029 308.026 5.32029C308.228 5.32029 308.411 5.27875 308.575 5.19568C308.741 5.11261 308.877 5.00027 308.983 4.85867C309.089 4.71707 309.17 4.55564 309.227 4.37439C309.283 4.19125 309.312 3.99867 309.312 3.79666C309.312 3.59464 309.283 3.403 309.227 3.22175C309.17 3.03862 309.089 2.87625 308.983 2.73464C308.877 2.59115 308.741 2.47787 308.575 2.3948C308.411 2.31173 308.228 2.27019 308.026 2.27019C307.863 2.27019 307.712 2.29757 307.573 2.35232C307.433 2.40707 307.312 2.48259 307.21 2.57888C307.11 2.67328 307.023 2.78468 306.95 2.91306C306.878 3.04145 306.824 3.18116 306.788 3.3322C306.754 3.48136 306.737 3.63617 306.737 3.79666C306.737 3.99867 306.766 4.19125 306.822 4.37439C306.879 4.55564 306.96 4.71707 307.066 4.85867C307.171 5.00027 307.307 5.11261 307.474 5.19568Z" fill="white"/>
<path d="M311.804 5.99998H310.94V1.59334H312.594C313.068 1.59334 313.442 1.70378 313.715 1.92468C313.991 2.14369 314.129 2.45994 314.129 2.87341C314.129 3.24913 314.008 3.54272 313.766 3.75417C313.525 3.96375 313.193 4.09024 312.772 4.13367L314.378 5.99998H313.325L311.804 4.19597V5.99998ZM311.804 2.34666V3.45964H312.5C312.702 3.45964 312.872 3.41433 313.01 3.32371C313.15 3.23308 313.22 3.0962 313.22 2.91306C313.22 2.72992 313.151 2.59021 313.013 2.49392C312.877 2.39574 312.692 2.34666 312.458 2.34666H311.804Z" fill="white"/>
<path d="M317.264 5.99998H316.4V1.59334H317.352L318.632 5.01443L319.909 1.59334H320.861V5.99998H319.997V3.34353L319.051 5.99998H318.21L317.264 3.34353V5.99998Z" fill="white"/>
<path d="M322.288 5.99998H321.336L323.084 1.59334H323.981L325.72 5.99998H324.769L324.392 4.96062H322.67L322.288 5.99998ZM323.528 2.59021L322.948 4.16199H324.109L323.528 2.59021Z" fill="white"/>
<path d="M327.057 1.59334V5.14187H329.26V5.99998H326.199V1.59334H327.057Z" fill="white"/>
<path d="M331.498 6.09343C331.222 6.09343 330.979 6.06228 330.77 5.99998C330.56 5.93578 330.388 5.84893 330.254 5.73943C330.12 5.62804 330.011 5.48927 329.926 5.32312C329.843 5.15509 329.784 4.97667 329.75 4.78787C329.716 4.59718 329.699 4.38289 329.699 4.145V1.59334H330.563V3.8363C330.563 3.97979 330.565 4.09968 330.569 4.19597C330.573 4.29226 330.581 4.39705 330.594 4.51033C330.609 4.62361 330.629 4.71707 330.654 4.7907C330.68 4.86244 330.716 4.93513 330.761 5.00876C330.809 5.0824 330.864 5.13998 330.928 5.18152C330.994 5.22306 331.075 5.25704 331.169 5.28347C331.265 5.30802 331.375 5.32029 331.498 5.32029C331.594 5.32029 331.681 5.31274 331.758 5.29763C331.837 5.28064 331.907 5.25987 331.968 5.23533C332.028 5.20889 332.081 5.17302 332.126 5.12771C332.174 5.0824 332.212 5.03709 332.242 4.99177C332.275 4.94457 332.302 4.8851 332.325 4.81335C332.347 4.74161 332.365 4.67459 332.378 4.61228C332.392 4.54809 332.401 4.46973 332.407 4.37722C332.414 4.28282 332.419 4.19692 332.421 4.11951C332.423 4.0421 332.424 3.9477 332.424 3.8363V1.59334H333.296V4.145C333.296 4.38855 333.278 4.60662 333.242 4.79919C333.208 4.99177 333.149 5.17113 333.064 5.33728C332.979 5.50154 332.868 5.63842 332.732 5.74792C332.598 5.85554 332.428 5.93956 332.22 5.99998C332.012 6.06228 331.771 6.09343 331.498 6.09343Z" fill="white"/>
<path d="M334.975 4.13933V5.14187H337.337V5.99998H334.117V1.59334H337.238V2.45144H334.975V3.33787H337.034V4.13933H334.975Z" fill="white"/>
<path d="M340.611 5.99998H339.747V1.59334H340.583L342.472 4.58396V1.59334H343.344V5.99998H342.477L340.611 3.1113V5.99998Z" fill="white"/>
<path d="M348.303 1.25632L347.804 2.03796C348.033 2.24565 348.207 2.50147 348.326 2.80544C348.446 3.10753 348.507 3.43793 348.507 3.79666C348.507 4.1214 348.457 4.42348 348.357 4.70291C348.257 4.98233 348.114 5.22589 347.929 5.43357C347.744 5.63936 347.511 5.80079 347.23 5.91785C346.948 6.0349 346.636 6.09343 346.292 6.09343C345.947 6.09343 345.629 6.03302 345.341 5.91218L345.074 6.33699H344.273L344.771 5.55252C344.543 5.34483 344.368 5.08995 344.247 4.78787C344.128 4.48578 344.069 4.15538 344.069 3.79666C344.069 3.47192 344.119 3.16983 344.219 2.89041C344.321 2.61098 344.465 2.36837 344.65 2.16257C344.837 1.95489 345.071 1.79252 345.352 1.67546C345.633 1.55841 345.947 1.49988 346.292 1.49988C346.638 1.49988 346.953 1.55935 347.238 1.6783L347.504 1.25632H348.303ZM344.998 3.79666C344.998 4.17237 345.087 4.49711 345.264 4.77087L346.791 2.37498C346.649 2.30512 346.481 2.27019 346.286 2.27019C346.124 2.27019 345.973 2.29757 345.833 2.35232C345.694 2.40707 345.573 2.48259 345.471 2.57888C345.371 2.67328 345.284 2.78468 345.21 2.91306C345.139 3.04145 345.085 3.18116 345.049 3.3322C345.015 3.48136 344.998 3.63617 344.998 3.79666ZM346.286 5.32029C346.489 5.32029 346.672 5.27875 346.836 5.19568C347.002 5.11261 347.138 5.00027 347.244 4.85867C347.349 4.71707 347.431 4.55564 347.487 4.37439C347.544 4.19125 347.572 3.99867 347.572 3.79666C347.572 3.4266 347.484 3.10186 347.306 2.82244L345.782 5.21834C345.926 5.2863 346.094 5.32029 346.286 5.32029Z" fill="white"/>
<path d="M350.064 5.99998H349.201V1.59334H350.036L351.925 4.58396V1.59334H352.797V5.99998H351.931L350.064 3.1113V5.99998Z" fill="white"/>
<path d="M354.596 5.99998H353.732V1.59334H354.567L356.456 4.58396V1.59334H357.329V5.99998H356.462L354.596 3.1113V5.99998Z" fill="white"/>
<path d="M359.121 4.13933V5.14187H361.483V5.99998H358.263V1.59334H361.384V2.45144H359.121V3.33787H361.18V4.13933H359.121Z" fill="white"/>
<path d="M366.618 3.33787V1.59334H367.49V5.99998H366.618V4.16765H364.757V5.99998H363.893V1.59334H364.757V3.33787H366.618Z" fill="white"/>
<path d="M368.914 5.99998H367.963L369.71 1.59334H370.608L372.347 5.99998H371.395L371.019 4.96062H369.297L368.914 5.99998ZM370.155 2.59021L369.574 4.16199H370.735L370.155 2.59021Z" fill="white"/>
<path d="M373.689 5.99998H372.825V1.59334H373.661L375.55 4.58396V1.59334H376.422V5.99998H375.556L373.689 3.1113V5.99998Z" fill="white"/>
<path d="M378.897 6.09343C378.586 6.09343 378.308 6.05567 378.065 5.98015C377.821 5.90463 377.62 5.7989 377.462 5.66296C377.305 5.52514 377.182 5.3656 377.093 5.18435C377.005 5.00121 376.95 4.79731 376.929 4.57263H377.864C377.93 4.85206 378.052 5.05219 378.229 5.17302C378.408 5.29197 378.644 5.35144 378.937 5.35144C379.162 5.35144 379.336 5.30802 379.461 5.22117C379.587 5.13432 379.651 5.00877 379.651 4.84451C379.651 4.77843 379.636 4.71801 379.605 4.66326C379.577 4.60662 379.541 4.55942 379.498 4.52166C379.456 4.48201 379.401 4.44519 379.334 4.41121C379.267 4.37533 379.207 4.34796 379.152 4.32908C379.098 4.30831 379.031 4.28565 378.954 4.26111C378.901 4.24412 378.81 4.2158 378.679 4.17615C378.549 4.1365 378.434 4.09968 378.334 4.0657C378.234 4.03171 378.136 3.99584 378.039 3.95808C377.928 3.91088 377.829 3.86368 377.742 3.81648C377.657 3.76739 377.574 3.70886 377.493 3.64089C377.412 3.57292 377.344 3.50024 377.292 3.42283C377.241 3.34542 377.199 3.25479 377.167 3.15095C377.137 3.04711 377.122 2.93383 377.122 2.81111C377.122 2.62608 377.154 2.45899 377.218 2.30984C377.282 2.1588 377.368 2.03419 377.476 1.93601C377.583 1.83595 377.709 1.75287 377.852 1.68679C377.998 1.62071 378.148 1.57351 378.303 1.54519C378.457 1.51498 378.617 1.49988 378.781 1.49988C379.297 1.49988 379.698 1.63298 379.985 1.89919C380.274 2.16541 380.427 2.52319 380.444 2.97253H379.512C379.501 2.83093 379.469 2.7101 379.418 2.61003C379.368 2.50997 379.303 2.43445 379.226 2.38347C379.148 2.3325 379.069 2.29662 378.988 2.27585C378.907 2.2532 378.818 2.24187 378.722 2.24187C378.652 2.24187 378.584 2.24848 378.518 2.26169C378.452 2.27491 378.382 2.29851 378.308 2.3325C378.235 2.36459 378.175 2.41651 378.13 2.48826C378.085 2.55811 378.062 2.64402 378.062 2.74597C378.062 2.86869 378.101 2.96781 378.178 3.04333C378.255 3.11886 378.381 3.18966 378.555 3.25574C378.672 3.29727 378.936 3.38035 379.348 3.50496C379.578 3.57293 379.742 3.62957 379.84 3.67488C380.309 3.89389 380.543 4.26677 380.543 4.79353C380.543 5.22778 380.402 5.55346 380.121 5.77058C379.84 5.98582 379.432 6.09343 378.897 6.09343Z" fill="white"/>
<path d="M382.032 4.13933V5.14187H384.394V5.99998H381.174V1.59334H384.295V2.45144H382.032V3.33787H384.091V4.13933H382.032Z" fill="white"/>
<path d="M385.929 5.99998H385.066V1.59334H385.901L387.79 4.58396V1.59334H388.662V5.99998H387.796L385.929 3.1113V5.99998Z" fill="white"/>
<path d="M391.939 5.99998H391.075V1.59334H392.729C393.203 1.59334 393.577 1.70378 393.85 1.92468C394.126 2.14369 394.264 2.45994 394.264 2.87341C394.264 3.24913 394.143 3.54272 393.901 3.75417C393.66 3.96375 393.328 4.09024 392.907 4.13367L394.513 5.99998H393.46L391.939 4.19597V5.99998ZM391.939 2.34666V3.45964H392.636C392.838 3.45964 393.007 3.41433 393.145 3.32371C393.285 3.23308 393.355 3.0962 393.355 2.91306C393.355 2.72992 393.286 2.59021 393.148 2.49392C393.012 2.39574 392.827 2.34666 392.593 2.34666H391.939Z" fill="white"/>
<path d="M397.036 6.09343C396.691 6.09343 396.378 6.0349 396.096 5.91785C395.815 5.80079 395.581 5.63936 395.394 5.43357C395.209 5.22589 395.065 4.98233 394.963 4.70291C394.863 4.42348 394.813 4.1214 394.813 3.79666C394.813 3.47192 394.863 3.16983 394.963 2.89041C395.065 2.61098 395.209 2.36837 395.394 2.16257C395.581 1.95489 395.815 1.79252 396.096 1.67546C396.378 1.55841 396.691 1.49988 397.036 1.49988C397.38 1.49988 397.693 1.55841 397.974 1.67546C398.255 1.79252 398.488 1.95489 398.673 2.16257C398.858 2.36837 399.001 2.61098 399.101 2.89041C399.201 3.16983 399.251 3.47192 399.251 3.79666C399.251 4.1214 399.201 4.42348 399.101 4.70291C399.001 4.98233 398.858 5.22589 398.673 5.43357C398.488 5.63936 398.255 5.80079 397.974 5.91785C397.693 6.0349 397.38 6.09343 397.036 6.09343ZM396.479 5.19568C396.645 5.27875 396.829 5.32029 397.031 5.32029C397.233 5.32029 397.416 5.27875 397.58 5.19568C397.746 5.11261 397.882 5.00027 397.988 4.85867C398.094 4.71707 398.175 4.55564 398.232 4.37439C398.288 4.19125 398.317 3.99867 398.317 3.79666C398.317 3.59464 398.288 3.403 398.232 3.22175C398.175 3.03862 398.094 2.87625 397.988 2.73464C397.882 2.59115 397.746 2.47787 397.58 2.3948C397.416 2.31173 397.233 2.27019 397.031 2.27019C396.868 2.27019 396.717 2.29757 396.578 2.35232C396.438 2.40707 396.317 2.48259 396.215 2.57888C396.115 2.67328 396.028 2.78468 395.955 2.91306C395.883 3.04145 395.829 3.18116 395.793 3.3322C395.759 3.48136 395.742 3.63617 395.742 3.79666C395.742 3.99867 395.771 4.19125 395.827 4.37439C395.884 4.55564 395.965 4.71707 396.071 4.85867C396.176 5.00027 396.312 5.11261 396.479 5.19568Z" fill="white"/>
<path d="M401.661 6.09343C401.35 6.09343 401.072 6.05567 400.829 5.98015C400.585 5.90463 400.384 5.7989 400.225 5.66296C400.069 5.52514 399.946 5.3656 399.857 5.18435C399.769 5.00121 399.714 4.79731 399.693 4.57263H400.628C400.694 4.85206 400.815 5.05219 400.993 5.17302C401.172 5.29197 401.408 5.35144 401.701 5.35144C401.926 5.35144 402.1 5.30802 402.225 5.22117C402.351 5.13432 402.415 5.00877 402.415 4.84451C402.415 4.77843 402.399 4.71801 402.369 4.66326C402.341 4.60662 402.305 4.55942 402.262 4.52166C402.22 4.48201 402.165 4.44519 402.097 4.41121C402.031 4.37533 401.971 4.34796 401.916 4.32908C401.861 4.30831 401.795 4.28565 401.718 4.26111C401.665 4.24412 401.573 4.2158 401.443 4.17615C401.313 4.1365 401.198 4.09968 401.098 4.0657C400.998 4.03171 400.899 3.99584 400.803 3.95808C400.692 3.91088 400.593 3.86368 400.506 3.81648C400.421 3.76739 400.338 3.70886 400.257 3.64089C400.175 3.57292 400.108 3.50024 400.055 3.42283C400.005 3.34542 399.963 3.25479 399.931 3.15095C399.901 3.04711 399.886 2.93383 399.886 2.81111C399.886 2.62608 399.918 2.45899 399.982 2.30984C400.046 2.1588 400.132 2.03419 400.24 1.93601C400.347 1.83595 400.473 1.75287 400.616 1.68679C400.762 1.62071 400.912 1.57351 401.067 1.54519C401.221 1.51498 401.381 1.49988 401.545 1.49988C402.061 1.49988 402.462 1.63298 402.749 1.89919C403.038 2.16541 403.191 2.52319 403.208 2.97253H402.276C402.264 2.83093 402.233 2.7101 402.182 2.61003C402.131 2.50997 402.067 2.43445 401.99 2.38347C401.912 2.3325 401.833 2.29662 401.752 2.27585C401.671 2.2532 401.582 2.24187 401.486 2.24187C401.416 2.24187 401.348 2.24848 401.282 2.26169C401.216 2.27491 401.146 2.29851 401.072 2.3325C400.999 2.36459 400.939 2.41651 400.894 2.48826C400.848 2.55811 400.826 2.64402 400.826 2.74597C400.826 2.86869 400.864 2.96781 400.942 3.04333C401.019 3.11886 401.145 3.18966 401.319 3.25574C401.436 3.29727 401.7 3.38035 402.112 3.50496C402.342 3.57293 402.506 3.62957 402.604 3.67488C403.073 3.89389 403.307 4.26677 403.307 4.79353C403.307 5.22778 403.166 5.55346 402.885 5.77058C402.603 5.98582 402.196 6.09343 401.661 6.09343Z" fill="white"/>
<path d="M404.796 4.13933V5.14187H407.158V5.99998H403.938V1.59334H407.059V2.45144H404.796V3.33787H406.855V4.13933H404.796Z" fill="white"/>
<path d="M412.293 3.33787V1.59334H413.165V5.99998H412.293V4.16765H410.432V5.99998H409.568V1.59334H410.432V3.33787H412.293Z" fill="white"/>
<path d="M414.589 5.99998H413.638L415.385 1.59334H416.283L418.022 5.99998H417.07L416.694 4.96062H414.972L414.589 5.99998ZM415.83 2.59021L415.249 4.16199H416.41L415.83 2.59021Z" fill="white"/>
<path d="M419.359 1.59334V5.14187H421.562V5.99998H418.501V1.59334H419.359Z" fill="white"/>
<path d="M422.961 1.59334V5.14187H425.164V5.99998H422.103V1.59334H422.961Z" fill="white"/>
<path d="M427.682 6.09343C426.953 6.09343 426.376 5.88481 425.952 5.46755C425.527 5.04841 425.314 4.48767 425.314 3.78533C425.314 3.43793 425.367 3.12169 425.473 2.8366C425.581 2.54962 425.73 2.30889 425.92 2.11443C426.111 1.91807 426.341 1.76703 426.611 1.6613C426.883 1.55369 427.182 1.49988 427.506 1.49988C427.882 1.49988 428.223 1.56879 428.529 1.70662C428.836 1.84255 429.085 2.0323 429.273 2.27585C429.464 2.51752 429.579 2.79412 429.619 3.10564H428.696C428.628 2.85453 428.49 2.65251 428.282 2.49959C428.075 2.34666 427.819 2.27019 427.515 2.27019C427.124 2.27019 426.813 2.40518 426.583 2.67517C426.353 2.94516 426.238 3.31521 426.238 3.78533C426.238 4.25922 426.364 4.63399 426.617 4.90964C426.87 5.18341 427.227 5.32029 427.688 5.32029C427.908 5.32029 428.123 5.28253 428.33 5.20701C428.538 5.13149 428.695 5.02481 428.801 4.88699V4.36306H427.345V3.62107H429.619V5.1532C429.445 5.4364 429.181 5.66391 428.826 5.83572C428.473 6.00753 428.092 6.09343 427.682 6.09343Z" fill="white"/>
<path d="M431.106 5.99998H430.242V1.59334H431.896C432.37 1.59334 432.744 1.70378 433.017 1.92468C433.293 2.14369 433.431 2.45994 433.431 2.87341C433.431 3.24913 433.31 3.54272 433.068 3.75417C432.827 3.96375 432.495 4.09024 432.074 4.13367L433.68 5.99998H432.627L431.106 4.19597V5.99998ZM431.106 2.34666V3.45964H431.803C432.005 3.45964 432.174 3.41433 432.312 3.32371C432.452 3.23308 432.522 3.0962 432.522 2.91306C432.522 2.72992 432.453 2.59021 432.315 2.49392C432.179 2.39574 431.994 2.34666 431.76 2.34666H431.106Z" fill="white"/>
<path d="M435.082 4.13933V5.14187H437.444V5.99998H434.224V1.59334H437.345V2.45144H435.082V3.33787H437.141V4.13933H435.082Z" fill="white"/>
<path d="M438.979 5.99998H438.115V1.59334H438.951L440.84 4.58396V1.59334H441.712V5.99998H440.845L438.979 3.1113V5.99998Z" fill="white"/>
</svg>
