<svg width="444" height="800" viewBox="0 0 444 800" fill="none" preserveAspectRatio="none" xmlns="http://www.w3.org/2000/svg">
<path d="M26.9887 781.949V417.412C26.9887 415.182 22.8408 410.731 13.8409 403.501C4.84102 396.82 0 389.581 0 381.793V20.5927C0 6.68136 8.30676 0 25.6024 0C42.8981 0 51.2048 6.68136 51.2048 20.5927V384.572H26.9887V17.2565H24.2161V381.793C24.2161 384.572 29.0571 389.581 38.057 396.262C47.0569 403.501 51.2048 411.289 51.2048 419.634V778.604C51.2048 792.515 42.8981 799.197 25.6024 799.197C8.30676 799.197 0 792.524 0 778.613V415.182H24.2161V781.949H26.9887Z" fill="white"/>
<path d="M107.43 0.80321V799.197H53.2129V0.80321H78.9341V783.049H84.494V0.80321H107.43Z" fill="white"/>
<path d="M109.438 20.5925C109.438 6.68128 117.896 0 135.542 0C153.188 0 161.646 6.68128 161.646 20.5925V799.197H136.955V408.505H134.128V799.197H109.438V20.5925ZM136.944 392.364V17.2563H134.117V392.364H136.944Z" fill="white"/>
<path d="M214.86 379.395C214.86 389.974 209.325 396.1 198.95 397.765V398.88C209.325 398.88 214.86 404.449 214.86 416.143V799.197H190.643V405.564H187.871V799.197H163.655V0.80321H192.03C207.257 0.80321 214.86 6.92938 214.86 19.1729V379.395ZM190.643 16.9508H187.871V389.983H190.643V16.9508Z" fill="white"/>
<path d="M251.004 0.80321V16.9508H245.422V799.197H222.439V16.9508H216.868V0.80321H251.004Z" fill="white"/>
<path d="M282.129 783.049V799.197H254.016V0.80321H276.635V783.049H282.129Z" fill="white"/>
<path d="M309.357 410.415V782.744H312.129V0.80321H336.345V780.522C336.345 793.319 328.039 800 310.743 800C293.447 800 285.141 793.319 285.141 780.522V410.415H309.357Z" fill="white"/>
<path d="M390.562 0.80321V779.407C390.562 793.319 382.093 800 364.458 800C346.823 800 338.354 793.319 338.354 779.407V0.80321H363.044V782.744H365.871V0.80321H390.562Z" fill="white"/>
<path d="M419.559 781.949V417.412C419.559 415.182 415.411 410.731 406.411 403.501C397.411 396.82 392.57 389.59 392.57 381.793V20.5927C392.57 6.68136 400.877 0 418.173 0C435.468 0 443.775 6.68136 443.775 20.5927V384.572H419.559V17.2565H416.786V381.793C416.786 384.572 421.627 389.581 430.627 396.262C439.627 403.501 443.775 411.289 443.775 419.634V778.604C443.775 792.515 435.468 799.197 418.173 799.197C400.877 799.197 392.57 792.515 392.57 778.604V415.182H416.786V781.949H419.559Z" fill="white"/>
</svg>
