<svg width="800" height="800" viewBox="0 0 800 800" fill="none" xmlns="http://www.w3.org/2000/svg">
<path d="M29.6297 400.134C29.6297 400.089 29.6296 400.045 29.6296 400C29.6296 195.45 195.45 29.6296 400 29.6296C604.55 29.6296 770.37 195.45 770.37 400C770.37 297.725 687.46 214.815 585.185 214.815C482.91 214.815 400 297.725 400 400C400 502.275 317.09 585.185 214.815 585.185C112.585 585.185 29.7021 502.347 29.6297 400.134Z" fill="white"/>
<path d="M770.37 400C770.37 604.55 604.55 770.37 400 770.37C195.45 770.37 29.6296 604.55 29.6296 400C29.6296 502.275 112.54 585.185 214.815 585.185C317.09 585.185 400 502.275 400 400C400 297.725 482.91 214.815 585.185 214.815C687.46 214.815 770.37 297.725 770.37 400Z" fill="black"/>
<path d="M213.096 438.603C235.971 438.603 254.516 420.059 254.516 397.183C254.516 374.307 235.971 355.763 213.096 355.763C190.22 355.763 171.676 374.307 171.676 397.183C171.676 420.059 190.22 438.603 213.096 438.603Z" fill="black"/>
<path d="M219.61 290.459H206.203V343.872H219.61V290.459Z" fill="black"/>
<path d="M219.61 449.846H206.203V503.259H219.61V449.846Z" fill="black"/>
<path d="M283.297 317.001L245.529 354.769L255.011 364.251L292.779 326.483L283.297 317.001Z" fill="black"/>
<path d="M170.665 429.636L132.897 467.404L142.379 476.885L180.147 439.117L170.665 429.636Z" fill="black"/>
<path d="M254.989 429.619L245.507 439.101L283.275 476.869L292.757 467.387L254.989 429.619Z" fill="black"/>
<path d="M142.349 316.982L132.867 326.463L170.635 364.231L180.116 354.749L142.349 316.982Z" fill="black"/>
<path d="M319.2 390.263H265.787V403.669H319.2V390.263Z" fill="black"/>
<path d="M159.813 390.263H106.4V403.669H159.813V390.263Z" fill="black"/>
<path d="M587.496 438.603C610.371 438.603 628.916 420.059 628.916 397.183C628.916 374.307 610.371 355.763 587.496 355.763C564.62 355.763 546.076 374.307 546.076 397.183C546.076 420.059 564.62 438.603 587.496 438.603Z" fill="white"/>
<path d="M594.01 290.459H580.603V343.872H594.01V290.459Z" fill="white"/>
<path d="M594.01 449.846H580.603V503.259H594.01V449.846Z" fill="white"/>
<path d="M657.697 317.001L619.929 354.769L629.411 364.251L667.179 326.483L657.697 317.001Z" fill="white"/>
<path d="M545.065 429.636L507.297 467.404L516.779 476.885L554.547 439.117L545.065 429.636Z" fill="white"/>
<path d="M629.389 429.619L619.907 439.101L657.675 476.869L667.157 467.387L629.389 429.619Z" fill="white"/>
<path d="M516.749 316.982L507.267 326.463L545.035 364.231L554.516 354.749L516.749 316.982Z" fill="white"/>
<path d="M693.6 390.263H640.187V403.669H693.6V390.263Z" fill="white"/>
<path d="M534.213 390.263H480.8V403.669H534.213V390.263Z" fill="white"/>
<path fill-rule="evenodd" clip-rule="evenodd" d="M800 400C800 620.914 620.914 800 400 800C179.086 800 0 620.914 0 400C0 179.086 179.086 0 400 0C620.914 0 800 179.086 800 400ZM400 770.37C604.55 770.37 770.37 604.55 770.37 400C770.37 195.45 604.55 29.6296 400 29.6296C195.45 29.6296 29.6296 195.45 29.6296 400C29.6296 604.55 195.45 770.37 400 770.37Z" fill="black"/>
</svg>
