<svg width="1000" height="1000" viewBox="0 0 1000 1000" fill="none" xmlns="http://www.w3.org/2000/svg">
<path fill-rule="evenodd" clip-rule="evenodd" d="M37.037 500L37.037 500.168C37.1275 627.934 140.731 731.482 268.518 731.482C396.362 731.482 500 627.844 500 500C500 372.156 603.638 268.519 731.481 268.518C859.325 268.518 962.963 372.156 962.963 500C962.963 244.313 755.687 37.037 500 37.037C244.312 37.037 37.037 244.313 37.037 500ZM318.144 496.479C318.144 525.073 294.964 548.254 266.369 548.254C237.775 548.254 214.594 525.073 214.594 496.479C214.594 467.884 237.775 444.704 266.369 444.704C294.964 444.704 318.144 467.884 318.144 496.479ZM274.512 363.074H257.754V429.84H274.512V363.074ZM257.754 562.308H274.512V629.074H257.754V562.308ZM354.121 396.252L306.911 443.461L318.764 455.314L365.973 408.104L354.121 396.252ZM166.121 584.255L213.331 537.045L225.183 548.897L177.974 596.107L166.121 584.255ZM318.736 537.024L306.884 548.876L354.094 596.086L365.946 584.234L318.736 537.024ZM166.083 408.079L177.936 396.227L225.146 443.437L213.293 455.289L166.083 408.079ZM399 487.828H332.234V504.586H399V487.828ZM133 487.828H199.766V504.586H133V487.828Z" fill="black"/>
<path d="M734.369 548.254C762.964 548.254 786.144 525.073 786.144 496.479C786.144 467.884 762.964 444.704 734.369 444.704C705.775 444.704 682.594 467.884 682.594 496.479C682.594 525.073 705.775 548.254 734.369 548.254Z" fill="black"/>
<path d="M742.512 363.074H725.754V429.84H742.512V363.074Z" fill="black"/>
<path d="M742.512 562.308H725.754V629.074H742.512V562.308Z" fill="black"/>
<path d="M822.121 396.252L774.911 443.461L786.764 455.314L833.973 408.104L822.121 396.252Z" fill="black"/>
<path d="M681.331 537.045L634.121 584.255L645.974 596.107L693.183 548.897L681.331 537.045Z" fill="black"/>
<path d="M786.736 537.024L774.884 548.876L822.094 596.086L833.946 584.234L786.736 537.024Z" fill="black"/>
<path d="M645.936 396.227L634.083 408.079L681.293 455.289L693.146 443.437L645.936 396.227Z" fill="black"/>
<path d="M867 487.828H800.234V504.586H867V487.828Z" fill="black"/>
<path d="M667.766 487.828H601V504.586H667.766V487.828Z" fill="black"/>
<path fill-rule="evenodd" clip-rule="evenodd" d="M1000 500C1000 776.142 776.142 1000 500 1000C223.858 1000 0 776.142 0 500C0 223.858 223.858 0 500 0C776.142 0 1000 223.858 1000 500ZM500 962.963C755.687 962.963 962.963 755.687 962.963 500C962.963 244.313 755.687 37.037 500 37.037C244.312 37.037 37.037 244.313 37.037 500C37.037 755.687 244.313 962.963 500 962.963Z" fill="black"/>
</svg>
