<svg width="32" height="32" viewBox="0 0 32 32" fill="none" xmlns="http://www.w3.org/2000/svg">
<path d="M1.18506 16.0052C1.18506 16.0034 1.18506 16.0017 1.18506 15.9999C1.18506 7.81788 7.81788 1.18506 15.9999 1.18506C24.1819 1.18506 30.8147 7.81787 30.8147 15.9999C30.8147 11.9089 27.4983 8.59246 23.4073 8.59246C19.3163 8.59247 15.9999 11.9089 15.9999 15.9999C15.9999 20.0909 12.6835 23.4073 8.59246 23.4073C4.50325 23.4073 1.18796 20.0938 1.18506 16.0052Z" fill="white"/>
<path d="M30.8147 15.9999C30.8147 24.1819 24.1819 30.8147 15.9999 30.8148C7.81788 30.8148 1.18506 24.1819 1.18506 15.9999C1.18506 20.0909 4.50147 23.4073 8.59247 23.4073C12.6835 23.4073 15.9999 20.0909 15.9999 15.9999C15.9999 11.9089 19.3163 8.59253 23.4073 8.59253C27.4983 8.59253 30.8147 11.9089 30.8147 15.9999Z" fill="black"/>
<path d="M8.52374 17.5441C9.43877 17.5441 10.1805 16.8023 10.1805 15.8873C10.1805 14.9722 9.43877 14.2305 8.52374 14.2305C7.60872 14.2305 6.86694 14.9722 6.86694 15.8873C6.86694 16.8023 7.60872 17.5441 8.52374 17.5441Z" fill="black"/>
<path d="M8.7843 11.6184H8.24805V13.7549H8.7843V11.6184Z" fill="black"/>
<path d="M8.7843 17.9939H8.24805V20.1304H8.7843V17.9939Z" fill="black"/>
<path d="M11.332 12.6802L9.82129 14.1909L10.2006 14.5702L11.7113 13.0595L11.332 12.6802Z" fill="black"/>
<path d="M6.82663 17.1856L5.31592 18.6963L5.69519 19.0756L7.20591 17.5648L6.82663 17.1856Z" fill="black"/>
<path d="M10.1996 17.1847L9.82031 17.564L11.331 19.0747L11.7103 18.6954L10.1996 17.1847Z" fill="black"/>
<path d="M5.69397 12.6793L5.3147 13.0586L6.82541 14.5693L7.20468 14.19L5.69397 12.6793Z" fill="black"/>
<path d="M12.7679 15.6104H10.6313V16.1466H12.7679V15.6104Z" fill="black"/>
<path d="M6.39237 15.6104H4.25586V16.1466H6.39237V15.6104Z" fill="black"/>
<path d="M23.4998 17.5441C24.4148 17.5441 25.1566 16.8023 25.1566 15.8873C25.1566 14.9722 24.4148 14.2305 23.4998 14.2305C22.5848 14.2305 21.843 14.9722 21.843 15.8873C21.843 16.8023 22.5848 17.5441 23.4998 17.5441Z" fill="white"/>
<path d="M23.7604 11.6184H23.2241V13.7549H23.7604V11.6184Z" fill="white"/>
<path d="M23.7604 17.9939H23.2241V20.1304H23.7604V17.9939Z" fill="white"/>
<path d="M26.3078 12.6802L24.7971 14.1909L25.1764 14.5702L26.6871 13.0595L26.3078 12.6802Z" fill="white"/>
<path d="M21.8027 17.1856L20.292 18.6963L20.6713 19.0756L22.182 17.5648L21.8027 17.1856Z" fill="white"/>
<path d="M25.1757 17.1847L24.7964 17.564L26.3071 19.0747L26.6864 18.6954L25.1757 17.1847Z" fill="white"/>
<path d="M20.6698 12.6793L20.2905 13.0586L21.8012 14.5693L22.1805 14.19L20.6698 12.6793Z" fill="white"/>
<path d="M27.7439 15.6104H25.6074V16.1466H27.7439V15.6104Z" fill="white"/>
<path d="M21.3684 15.6104H19.2319V16.1466H21.3684V15.6104Z" fill="white"/>
<path fill-rule="evenodd" clip-rule="evenodd" d="M32 16C32 24.8366 24.8366 32 16 32C7.16344 32 0 24.8366 0 16C0 7.16344 7.16344 0 16 0C24.8366 0 32 7.16344 32 16ZM16 30.8148C24.182 30.8148 30.8148 24.182 30.8148 16C30.8148 7.818 24.182 1.18519 16 1.18519C7.818 1.18519 1.18519 7.818 1.18519 16C1.18519 24.182 7.818 30.8148 16 30.8148Z" fill="black"/>
</svg>
