<svg width="444" height="854" viewBox="0 0 444 854" fill="none" xmlns="http://www.w3.org/2000/svg" preserveAspectRatio="none">
<path d="M24.7306 808.211H27.4736V443.816C27.4736 441.591 23.1304 436.955 14.4442 429.908C5.30073 423.232 0.729004 416 0.729004 408.211V47.1541C0.729004 33.4313 9.18669 26.5699 26.1021 26.5699C43.0174 26.5699 51.4751 33.4313 51.4751 47.1541V410.993H27.4736V43.8161H24.7306V408.211C24.7306 411.178 29.3023 416 38.4457 422.676C47.132 429.722 51.4751 437.511 51.4751 446.041V804.873C51.4751 818.596 43.0174 825.457 26.1021 825.457C9.18669 825.457 0.729004 818.596 0.729004 804.873V441.591H24.7306V808.211Z" fill="white"/>
<path d="M85.0773 27.6826H107.707V825.457H54.2182V27.6826H79.5912V809.324H85.0773V27.6826Z" fill="white"/>
<path d="M110.45 825.457V47.1541C110.45 33.4313 118.908 26.5699 135.823 26.5699C152.739 26.5699 161.197 33.4313 161.197 47.1541V825.457H137.195V434.915H134.452V825.457H110.45ZM134.452 418.781H137.195V43.8161H134.452V418.781Z" fill="white"/>
<path d="M214.686 46.0414V405.986C214.686 416.371 209.428 422.49 198.913 424.345V425.457C209.428 425.457 214.686 431.206 214.686 442.703V825.457H190.684V432.133H187.941V825.457H163.94V27.6826H192.056C207.142 27.6826 214.686 33.8022 214.686 46.0414ZM190.684 416.556V43.8161H187.941V416.556H190.684Z" fill="white"/>
<path d="M217.429 27.6826H251.031V43.8161H245.545V825.457H222.915V43.8161H217.429V27.6826Z" fill="white"/>
<path d="M277.09 27.6826V809.324H282.576V825.457H254.46V27.6826H277.09Z" fill="white"/>
<path d="M286.005 437.14H310.006V809.324H312.749V27.6826H336.751V807.099C336.751 820.079 328.293 826.57 311.378 826.57C294.462 826.57 286.005 820.079 286.005 807.099V437.14Z" fill="white"/>
<path d="M366.238 27.6826H390.24V805.986C390.24 819.709 381.782 826.57 364.867 826.57C347.951 826.57 339.494 819.709 339.494 805.986V27.6826H363.495V809.324H366.238V27.6826Z" fill="white"/>
<path d="M416.984 808.211H419.727V443.816C419.727 441.591 415.384 436.955 406.698 429.908C397.555 423.232 392.983 416 392.983 408.211V47.1541C392.983 33.4313 401.441 26.5699 418.356 26.5699C435.271 26.5699 443.729 33.4313 443.729 47.1541V410.993H419.727V43.8161H416.984V408.211C416.984 411.178 421.556 416 430.7 422.676C439.386 429.722 443.729 437.511 443.729 446.041V804.873C443.729 818.596 435.271 825.457 418.356 825.457C401.441 825.457 392.983 818.596 392.983 804.873V441.591H416.984V808.211Z" fill="white"/>
<path d="M5.00977 20.6921H5.88013V3.43933H9.3335V19.8639C9.3335 21.1273 9.03402 22.0585 8.43506 22.6575C7.82674 23.2658 6.87683 23.5699 5.58533 23.5699H5.00977V20.6921Z" fill="white"/>
<path d="M10.8075 4.05701C11.4065 3.45805 12.3517 3.15857 13.6432 3.15857C14.9347 3.15857 15.8799 3.45805 16.4789 4.05701C17.0778 4.65597 17.3773 5.59184 17.3773 6.86462V20.1447C17.3773 21.4081 17.0778 22.3393 16.4789 22.9382C15.8706 23.5465 14.9253 23.8507 13.6432 23.8507C12.361 23.8507 11.4158 23.5465 10.8075 22.9382C10.1992 22.3299 9.89502 21.3987 9.89502 20.1447V6.86462C9.89502 5.6012 10.1992 4.66532 10.8075 4.05701ZM13.924 20.6921V6.31714H13.3484V20.6921H13.924Z" fill="white"/>
<path d="M25.4352 3.43933H28.8885V23.5699H22.2766L21.5887 6.03638H21.4062V23.5699H17.9529V3.43933H24.5789L25.2667 20.9869H25.4352V3.43933Z" fill="white"/>
<path d="M33.8159 23.5699L33.7036 19.541H32.7771L32.6648 23.5699H29.3237L30.0397 3.43933H36.427L37.1429 23.5699H33.8159ZM32.8613 16.6632H33.6053L33.3246 6.03638H33.1561L32.8613 16.6632Z" fill="white"/>
<path d="M41.0315 20.6921H41.6071V16.214C41.6071 15.6337 41.2748 15.1237 40.6104 14.6838C39.9365 14.244 39.4031 13.8649 39.01 13.5468C38.6169 13.2192 38.28 12.7793 37.9993 12.2272C37.7185 11.6656 37.5781 11.0199 37.5781 10.2899V6.92078C37.5781 5.64799 37.8823 4.69808 38.4906 4.07104C39.0989 3.46273 40.0441 3.15857 41.3263 3.15857C42.6084 3.15857 43.5537 3.46273 44.162 4.07104C44.7609 4.67936 45.0604 5.62927 45.0604 6.92078V10.6549H41.6071V6.31714H41.0315V10.2057C41.0315 10.7111 41.3684 11.179 42.0422 11.6095C42.6599 12.0119 43.1934 12.3956 43.6426 12.7606C44.0356 13.0788 44.3726 13.514 44.6533 14.0662C44.9247 14.6277 45.0604 15.2547 45.0604 15.9473V20.0885C45.0604 21.38 44.7609 22.3252 44.162 22.9242C43.5537 23.5419 42.6084 23.8507 41.3263 23.8507C40.0441 23.8507 39.0989 23.5419 38.4906 22.9242C37.8823 22.3159 37.5781 21.3706 37.5781 20.0885V15.7788H41.0315V20.6921Z" fill="white"/>
<path d="M47.3486 20.6921H48.219V3.43933H51.6724V19.8639C51.6724 21.1273 51.3729 22.0585 50.7739 22.6575C50.1656 23.2658 49.2157 23.5699 47.9242 23.5699H47.3486V20.6921Z" fill="white"/>
<path d="M53.1464 4.05701C53.7453 3.45805 54.6906 3.15857 55.9821 3.15857C57.2736 3.15857 58.2188 3.45805 58.8177 4.05701C59.4167 4.65597 59.7162 5.59184 59.7162 6.86462V20.1447C59.7162 21.4081 59.4167 22.3393 58.8177 22.9382C58.2094 23.5465 57.2642 23.8507 55.9821 23.8507C54.6999 23.8507 53.7547 23.5465 53.1464 22.9382C52.538 22.3299 52.2339 21.3987 52.2339 20.1447V6.86462C52.2339 5.6012 52.538 4.66532 53.1464 4.05701ZM56.2628 20.6921V6.31714H55.6873V20.6921H56.2628Z" fill="white"/>
<path d="M64.3207 3.43933H67.774V23.5699H64.3207V14.9506H63.7451V23.5699H60.2917V3.43933H63.7451V12.0728H64.3207V3.43933Z" fill="white"/>
<path d="M72.7014 23.5699L72.5891 19.541H71.6626L71.5503 23.5699H68.2092L68.9252 3.43933H75.3125L76.0284 23.5699H72.7014ZM71.7468 16.6632H72.4908L72.2101 6.03638H72.0416L71.7468 16.6632Z" fill="white"/>
<path d="M83.9459 3.43933H87.3993V23.5699H80.7874L80.0995 6.03638H79.917V23.5699H76.4636V3.43933H83.0896L83.7775 20.9869H83.9459V3.43933Z" fill="white"/>
<path d="M91.4282 20.6921H92.0038V16.214C92.0038 15.6337 91.6715 15.1237 91.0071 14.6838C90.3333 14.244 89.7998 13.8649 89.4067 13.5468C89.0137 13.2192 88.6768 12.7793 88.396 12.2272C88.1152 11.6656 87.9749 11.0199 87.9749 10.2899V6.92078C87.9749 5.64799 88.279 4.69808 88.8873 4.07104C89.4956 3.46273 90.4409 3.15857 91.723 3.15857C93.0052 3.15857 93.9504 3.46273 94.5587 4.07104C95.1577 4.67936 95.4572 5.62927 95.4572 6.92078V10.6549H92.0038V6.31714H91.4282V10.2057C91.4282 10.7111 91.7651 11.179 92.439 11.6095C93.0566 12.0119 93.5901 12.3956 94.0393 12.7606C94.4324 13.0788 94.7693 13.514 95.05 14.0662C95.3215 14.6277 95.4572 15.2547 95.4572 15.9473V20.0885C95.4572 21.38 95.1577 22.3252 94.5587 22.9242C93.9504 23.5419 93.0052 23.8507 91.723 23.8507C90.4409 23.8507 89.4956 23.5419 88.8873 22.9242C88.279 22.3159 87.9749 21.3706 87.9749 20.0885V15.7788H91.4282V20.6921Z" fill="white"/>
<path d="M99.4861 20.6921H100.062V16.214C100.062 15.6337 99.7294 15.1237 99.0649 14.6838C98.3911 14.244 97.8577 13.8649 97.4646 13.5468C97.0715 13.2192 96.7346 12.7793 96.4539 12.2272C96.1731 11.6656 96.0327 11.0199 96.0327 10.2899V6.92078C96.0327 5.64799 96.3369 4.69808 96.9452 4.07104C97.5535 3.46273 98.4987 3.15857 99.7809 3.15857C101.063 3.15857 102.008 3.46273 102.617 4.07104C103.216 4.67936 103.515 5.62927 103.515 6.92078V10.6549H100.062V6.31714H99.4861V10.2057C99.4861 10.7111 99.823 11.179 100.497 11.6095C101.115 12.0119 101.648 12.3956 102.097 12.7606C102.49 13.0788 102.827 13.514 103.108 14.0662C103.379 14.6277 103.515 15.2547 103.515 15.9473V20.0885C103.515 21.38 103.216 22.3252 102.617 22.9242C102.008 23.5419 101.063 23.8507 99.7809 23.8507C98.4987 23.8507 97.5535 23.5419 96.9452 22.9242C96.3369 22.3159 96.0327 21.3706 96.0327 20.0885V15.7788H99.4861V20.6921Z" fill="white"/>
<path d="M105.003 4.05701C105.602 3.45805 106.547 3.15857 107.839 3.15857C109.13 3.15857 110.075 3.45805 110.674 4.05701C111.273 4.65597 111.573 5.59184 111.573 6.86462V20.1447C111.573 21.4081 111.273 22.3393 110.674 22.9382C110.066 23.5465 109.121 23.8507 107.839 23.8507C106.557 23.8507 105.611 23.5465 105.003 22.9382C104.395 22.3299 104.091 21.3987 104.091 20.1447V6.86462C104.091 5.6012 104.395 4.66532 105.003 4.05701ZM108.12 20.6921V6.31714H107.544V20.6921H108.12Z" fill="white"/>
<path d="M119.631 3.43933H123.084V23.5699H116.472L115.784 6.03638H115.602V23.5699H112.148V3.43933H118.774L119.462 20.9869H119.631V3.43933Z" fill="white"/>
<path d="M126.285 4.05701C126.884 3.45805 127.829 3.15857 129.12 3.15857C130.412 3.15857 131.357 3.45805 131.956 4.05701C132.555 4.65597 132.855 5.59184 132.855 6.86462V20.1447C132.855 21.4081 132.555 22.3393 131.956 22.9382C131.348 23.5465 130.403 23.8507 129.12 23.8507C127.838 23.8507 126.893 23.5465 126.285 22.9382C125.676 22.3299 125.372 21.3987 125.372 20.1447V6.86462C125.372 5.6012 125.676 4.66532 126.285 4.05701ZM129.401 20.6921V6.31714H128.826V20.6921H129.401Z" fill="white"/>
<path d="M136.884 3.43933V20.6921H137.754V23.5699H133.43V3.43933H136.884Z" fill="white"/>
<path d="M141.628 3.43933V20.6921H142.499V23.5699H138.175V3.43933H141.628Z" fill="white"/>
<path d="M147.244 6.31714H146.373V12.0728H147.244V14.9506H146.373V20.6921H147.244V23.5699H142.92V3.43933H147.244V6.31714Z" fill="white"/>
<path d="M157 6.80847V10.1776C157 12.1991 156.27 13.2894 154.81 13.4485V13.5608C156.27 13.776 157 14.8897 157 16.9019V20.2008C157 21.2771 156.715 22.1006 156.144 22.6715C155.554 23.2517 154.735 23.5512 153.687 23.5699H149.518V3.43933H153.687C154.754 3.45805 155.573 3.75285 156.144 4.32373C156.715 4.89461 157 5.72286 157 6.80847ZM153.547 12.0728V6.31714H152.971V12.0728H153.547ZM152.971 14.9506V20.6921H153.547V14.9506H152.971Z" fill="white"/>
<path d="M157.576 20.6921H158.446V3.43933H161.899V19.8639C161.899 21.1273 161.6 22.0585 161.001 22.6575C160.393 23.2658 159.443 23.5699 158.151 23.5699H157.576V20.6921Z" fill="white"/>
<path d="M166.785 6.31714H165.914V12.0728H166.785V14.9506H165.914V20.6921H166.785V23.5699H162.461V3.43933H166.785V6.31714Z" fill="white"/>
<path d="M174.828 6.80847V10.1776C174.828 12.1991 174.099 13.2894 172.639 13.4485V13.5608C174.099 13.776 174.828 14.8897 174.828 16.9019V23.5699H171.375V14.9506H170.8V23.5699H167.346V3.43933H171.516C172.582 3.45805 173.401 3.75285 173.972 4.32373C174.543 4.89461 174.828 5.72286 174.828 6.80847ZM171.375 12.0728V6.31714H170.8V12.0728H171.375Z" fill="white"/>
<path d="M178.857 14.6558V23.5699H175.404V3.43933H178.857V12.3535H179.04L180.009 3.43933H183.462L181.904 13.5046L183.462 23.5699H180.009L179.04 14.6558H178.857Z" fill="white"/>
<path d="M188.235 23.5699L188.123 19.541H187.196L187.084 23.5699H183.743L184.459 3.43933H190.846L191.562 23.5699H188.235ZM187.28 16.6632H188.024L187.744 6.03638H187.575L187.28 16.6632ZM187.659 3.15857C186.602 3.15857 186.073 2.6298 186.073 1.57227C186.073 0.524089 186.602 0 187.659 0C188.707 0 189.232 0.524089 189.232 1.57227C189.232 2.6298 188.707 3.15857 187.659 3.15857Z" fill="white"/>
<path d="M195.45 20.6921H196.026V16.214C196.026 15.6337 195.694 15.1237 195.029 14.6838C194.355 14.244 193.822 13.8649 193.429 13.5468C193.036 13.2192 192.699 12.7793 192.418 12.2272C192.137 11.6656 191.997 11.0199 191.997 10.2899V6.92078C191.997 5.64799 192.301 4.69808 192.91 4.07104C193.518 3.46273 194.463 3.15857 195.745 3.15857C197.027 3.15857 197.973 3.46273 198.581 4.07104C199.18 4.67936 199.479 5.62927 199.479 6.92078V10.6549H196.026V6.31714H195.45V10.2057C195.45 10.7111 195.787 11.179 196.461 11.6095C197.079 12.0119 197.612 12.3956 198.062 12.7606C198.455 13.0788 198.792 13.514 199.072 14.0662C199.344 14.6277 199.479 15.2547 199.479 15.9473V20.0885C199.479 21.38 199.18 22.3252 198.581 22.9242C197.973 23.5419 197.027 23.8507 195.745 23.8507C194.463 23.8507 193.518 23.5419 192.91 22.9242C192.301 22.3159 191.997 21.3706 191.997 20.0885V15.7788H195.45V20.6921Z" fill="white"/>
<path d="M201.768 23.5699V3.43933H205.516C206.807 3.43933 207.752 3.73881 208.351 4.33777C208.95 4.93673 209.25 5.87728 209.25 7.15942V15.835C209.25 17.0984 208.95 18.0296 208.351 18.6285C207.743 19.2369 206.798 19.541 205.516 19.541H205.221V23.5699H201.768ZM205.797 16.6632V6.31714H205.221V16.6632H205.797Z" fill="white"/>
<path d="M214.149 6.31714H213.279V12.0728H214.149V14.9506H213.279V20.6921H214.149V23.5699H209.825V3.43933H214.149V6.31714Z" fill="white"/>
<path d="M222.193 6.80847V10.1776C222.193 12.1991 221.463 13.2894 220.003 13.4485V13.5608C221.463 13.776 222.193 14.8897 222.193 16.9019V23.5699H218.74V14.9506H218.164V23.5699H214.711V3.43933H218.88C219.947 3.45805 220.766 3.75285 221.337 4.32373C221.908 4.89461 222.193 5.72286 222.193 6.80847ZM218.74 12.0728V6.31714H218.164V12.0728H218.74Z" fill="white"/>
<path d="M227.092 16.6632H222.769V13.7994H227.092V16.6632Z" fill="white"/>
<path d="M228.566 4.05701C229.165 3.45805 230.11 3.15857 231.402 3.15857C232.693 3.15857 233.639 3.45805 234.238 4.05701C234.837 4.65597 235.136 5.59184 235.136 6.86462V20.1447C235.136 21.4081 234.837 22.3393 234.238 22.9382C233.629 23.5465 232.684 23.8507 231.402 23.8507C230.12 23.8507 229.175 23.5465 228.566 22.9382C227.958 22.3299 227.654 21.3987 227.654 20.1447V6.86462C227.654 5.6012 227.958 4.66532 228.566 4.05701ZM231.683 20.6921V6.31714H231.107V20.6921H231.683Z" fill="white"/>
<path d="M239.165 3.43933V20.6921H240.035V23.5699H235.712V3.43933H239.165Z" fill="white"/>
<path d="M241.369 4.05701C241.968 3.45805 242.913 3.15857 244.205 3.15857C245.496 3.15857 246.441 3.45805 247.04 4.05701C247.639 4.65597 247.939 5.59184 247.939 6.86462V20.1447C247.939 21.4081 247.639 22.3393 247.04 22.9382C246.432 23.5465 245.487 23.8507 244.205 23.8507C242.923 23.8507 241.977 23.5465 241.369 22.9382C240.761 22.3299 240.457 21.3987 240.457 20.1447V6.86462C240.457 5.6012 240.761 4.66532 241.369 4.05701ZM244.485 20.6921V6.31714H243.91V20.6921H244.485Z" fill="white"/>
<path d="M252.726 3.43933H256.053L255.337 23.5699H248.95L248.234 3.43933H251.575L252.066 20.6921H252.234L252.726 3.43933Z" fill="white"/>
<path d="M258.201 20.6921H259.071V3.43933H262.524V19.8639C262.524 21.1273 262.225 22.0585 261.626 22.6575C261.018 23.2658 260.068 23.5699 258.776 23.5699H258.201V20.6921Z" fill="white"/>
<path d="M267.41 6.31714H266.539V12.0728H267.41V14.9506H266.539V20.6921H267.41V23.5699H263.086V3.43933H267.41V6.31714Z" fill="white"/>
<path d="M275.453 6.80847V10.1776C275.453 12.1991 274.724 13.2894 273.264 13.4485V13.5608C274.724 13.776 275.453 14.8897 275.453 16.9019V23.5699H272V14.9506H271.425V23.5699H267.971V3.43933H272.141C273.207 3.45805 274.026 3.75285 274.597 4.32373C275.168 4.89461 275.453 5.72286 275.453 6.80847ZM272 12.0728V6.31714H271.425V12.0728H272Z" fill="white"/>
<path d="M283.511 3.43933H286.965V23.5699H280.353L279.665 6.03638H279.482V23.5699H276.029V3.43933H282.655L283.343 20.9869H283.511V3.43933Z" fill="white"/>
<path d="M295.023 6.80847V10.1776C295.023 12.1991 294.293 13.2894 292.833 13.4485V13.5608C294.293 13.776 295.023 14.8897 295.023 16.9019V20.2008C295.023 21.2771 294.737 22.1006 294.166 22.6715C293.577 23.2517 292.758 23.5512 291.71 23.5699H287.54V3.43933H291.71C292.776 3.45805 293.595 3.75285 294.166 4.32373C294.737 4.89461 295.023 5.72286 295.023 6.80847ZM291.569 12.0728V6.31714H290.994V12.0728H291.569ZM290.994 14.9506V20.6921H291.569V14.9506H290.994Z" fill="white"/>
<path d="M299.922 6.31714H299.052V12.0728H299.922V14.9506H299.052V20.6921H299.922V23.5699H295.598V3.43933H299.922V6.31714Z" fill="white"/>
<path d="M307.966 6.80847V10.1776C307.966 12.1991 307.236 13.2894 305.776 13.4485V13.5608C307.236 13.776 307.966 14.8897 307.966 16.9019V23.5699H304.512V14.9506H303.937V23.5699H300.483V3.43933H304.653C305.72 3.45805 306.538 3.75285 307.109 4.32373C307.68 4.89461 307.966 5.72286 307.966 6.80847ZM304.512 12.0728V6.31714H303.937V12.0728H304.512Z" fill="white"/>
<path d="M316.248 11.4972H312.837V6.31714H311.967V20.6921H312.837V14.9506H312.402V12.0728H316.248V20.1447C316.248 21.3987 315.939 22.3299 315.322 22.9382C314.685 23.5465 313.712 23.8507 312.402 23.8507C311.092 23.8507 310.118 23.5465 309.482 22.9382C308.855 22.3393 308.541 21.4081 308.541 20.1447V6.86462C308.541 5.59184 308.855 4.65597 309.482 4.05701C310.109 3.45805 311.082 3.15857 312.402 3.15857C313.721 3.15857 314.695 3.45805 315.322 4.05701C315.939 4.65597 316.248 5.59184 316.248 6.86462V11.4972Z" fill="white"/>
<path d="M321.99 20.6921H322.565V16.214C322.565 15.6337 322.233 15.1237 321.569 14.6838C320.895 14.244 320.361 13.8649 319.968 13.5468C319.575 13.2192 319.238 12.7793 318.958 12.2272C318.677 11.6656 318.536 11.0199 318.536 10.2899V6.92078C318.536 5.64799 318.841 4.69808 319.449 4.07104C320.057 3.46273 321.002 3.15857 322.285 3.15857C323.567 3.15857 324.512 3.46273 325.12 4.07104C325.719 4.67936 326.019 5.62927 326.019 6.92078V10.6549H322.565V6.31714H321.99V10.2057C321.99 10.7111 322.327 11.179 323 11.6095C323.618 12.0119 324.152 12.3956 324.601 12.7606C324.994 13.0788 325.331 13.514 325.612 14.0662C325.883 14.6277 326.019 15.2547 326.019 15.9473V20.0885C326.019 21.38 325.719 22.3252 325.12 22.9242C324.512 23.5419 323.567 23.8507 322.285 23.8507C321.002 23.8507 320.057 23.5419 319.449 22.9242C318.841 22.3159 318.536 21.3706 318.536 20.0885V15.7788H321.99V20.6921Z" fill="white"/>
<path d="M330.918 6.31714H330.048V12.0728H330.918V14.9506H330.048V20.6921H330.918V23.5699H326.594V3.43933H330.918V6.31714Z" fill="white"/>
<path d="M338.962 6.80847V10.1776C338.962 12.1991 338.232 13.2894 336.772 13.4485V13.5608C338.232 13.776 338.962 14.8897 338.962 16.9019V23.5699H335.508V14.9506H334.933V23.5699H331.479V3.43933H335.649C336.716 3.45805 337.535 3.75285 338.105 4.32373C338.676 4.89461 338.962 5.72286 338.962 6.80847ZM335.508 12.0728V6.31714H334.933V12.0728H335.508Z" fill="white"/>
<path d="M343.749 3.43933H347.076L346.36 23.5699H339.973L339.257 3.43933H342.598L343.089 20.6921H343.257L343.749 3.43933Z" fill="white"/>
<path d="M351.414 23.5699L351.301 19.541H350.375L350.262 23.5699H346.921L347.637 3.43933H354.025L354.741 23.5699H351.414ZM350.459 16.6632H351.203L350.922 6.03638H350.754L350.459 16.6632Z" fill="white"/>
<path d="M362.658 3.43933H366.111V23.5699H359.5L358.812 6.03638H358.629V23.5699H355.176V3.43933H361.802L362.49 20.9869H362.658V3.43933Z" fill="white"/>
<path d="M366.687 3.43933H370.435C371.783 3.43933 372.742 3.72477 373.313 4.29565C373.884 4.86654 374.169 5.82113 374.169 7.15942V19.8639C374.169 21.1835 373.884 22.1287 373.313 22.6996C372.733 23.2798 371.773 23.5699 370.435 23.5699H366.687V3.43933ZM370.716 20.6921V6.31714H370.14V20.6921H370.716Z" fill="white"/>
<path d="M375.657 4.05701C376.256 3.45805 377.202 3.15857 378.493 3.15857C379.785 3.15857 380.73 3.45805 381.329 4.05701C381.928 4.65597 382.227 5.59184 382.227 6.86462V20.1447C382.227 21.4081 381.928 22.3393 381.329 22.9382C380.72 23.5465 379.775 23.8507 378.493 23.8507C377.211 23.8507 376.266 23.5465 375.657 22.9382C375.049 22.3299 374.745 21.3987 374.745 20.1447V6.86462C374.745 5.6012 375.049 4.66532 375.657 4.05701ZM378.774 20.6921V6.31714H378.198V20.6921H378.774Z" fill="white"/>
<path d="M391.998 6.80847V10.1776C391.998 12.1991 391.268 13.2894 389.808 13.4485V13.5608C391.268 13.776 391.998 14.8897 391.998 16.9019V20.2008C391.998 21.2771 391.712 22.1006 391.141 22.6715C390.552 23.2517 389.733 23.5512 388.685 23.5699H384.515V3.43933H388.685C389.752 3.45805 390.57 3.75285 391.141 4.32373C391.712 4.89461 391.998 5.72286 391.998 6.80847ZM388.544 12.0728V6.31714H387.969V12.0728H388.544ZM387.969 14.9506V20.6921H388.544V14.9506H387.969Z" fill="white"/>
<path d="M396.925 23.5699L396.813 19.541H395.886L395.774 23.5699H392.433L393.149 3.43933H399.536L400.252 23.5699H396.925ZM395.97 16.6632H396.714L396.434 6.03638H396.265L395.97 16.6632Z" fill="white"/>
<path d="M408.17 6.80847V10.1776C408.17 12.1991 407.44 13.2894 405.98 13.4485V13.5608C407.44 13.776 408.17 14.8897 408.17 16.9019V23.5699H404.716V14.9506H404.141V23.5699H400.687V3.43933H404.857C405.923 3.45805 406.742 3.75285 407.313 4.32373C407.884 4.89461 408.17 5.72286 408.17 6.80847ZM404.716 12.0728V6.31714H404.141V12.0728H404.716Z" fill="white"/>
<path d="M416.227 6.80847V10.1776C416.227 12.1991 415.497 13.2894 414.037 13.4485V13.5608C415.497 13.776 416.227 14.8897 416.227 16.9019V23.5699H412.774V14.9506H412.198V23.5699H408.745V3.43933H412.914C413.981 3.45805 414.8 3.75285 415.371 4.32373C415.942 4.89461 416.227 5.72286 416.227 6.80847ZM412.774 12.0728V6.31714H412.198V12.0728H412.774Z" fill="white"/>
<path d="M421.127 6.31714H420.256V12.0728H421.127V14.9506H420.256V20.6921H421.127V23.5699H416.803V3.43933H421.127V6.31714Z" fill="white"/>
<path d="M421.688 23.5699V3.43933H425.142V23.5699H421.688Z" fill="white"/>
<path d="M433.185 6.80847V10.1776C433.185 12.1991 432.455 13.2894 430.995 13.4485V13.5608C432.455 13.776 433.185 14.8897 433.185 16.9019V23.5699H429.732V14.9506H429.156V23.5699H425.703V3.43933H429.872C430.939 3.45805 431.758 3.75285 432.329 4.32373C432.9 4.89461 433.185 5.72286 433.185 6.80847ZM429.732 12.0728V6.31714H429.156V12.0728H429.732Z" fill="white"/>
<path d="M434.673 4.05701C435.272 3.45805 436.218 3.15857 437.509 3.15857C438.801 3.15857 439.746 3.45805 440.345 4.05701C440.944 4.65597 441.243 5.59184 441.243 6.86462V20.1447C441.243 21.4081 440.944 22.3393 440.345 22.9382C439.737 23.5465 438.791 23.8507 437.509 23.8507C436.227 23.8507 435.282 23.5465 434.673 22.9382C434.065 22.3299 433.761 21.3987 433.761 20.1447V6.86462C433.761 5.6012 434.065 4.66532 434.673 4.05701ZM437.79 20.6921V6.31714H437.214V20.6921H437.79Z" fill="white"/>
<path d="M8.17334 835.917H7.33325V841.473H8.17334V844.25H7.33325V849.792H8.17334V852.57H4V833.14H8.17334V835.917Z" fill="white"/>
<path d="M12.0486 833.14V849.792H12.8887V852.57H8.71533V833.14H12.0486Z" fill="white"/>
<path d="M13.2952 852.57V833.14H16.6284V852.57H13.2952Z" fill="white"/>
<path d="M21.3708 852.57L21.2625 848.681H20.3682L20.2598 852.57H17.0349L17.726 833.14H23.8911L24.5822 852.57H21.3708ZM20.4495 845.903H21.1676L20.8966 835.646H20.734L20.4495 845.903Z" fill="white"/>
<path d="M28.3354 849.792H28.891V845.47C28.891 844.91 28.5703 844.417 27.929 843.993C27.2786 843.568 26.7637 843.203 26.3843 842.895C26.0049 842.579 25.6797 842.155 25.4087 841.622C25.1377 841.08 25.0022 840.456 25.0022 839.752V836.5C25.0022 835.271 25.2958 834.354 25.8829 833.749C26.4701 833.162 27.3824 832.869 28.62 832.869C29.8575 832.869 30.7699 833.162 31.3571 833.749C31.9352 834.336 32.2242 835.253 32.2242 836.5V840.104H28.891V835.917H28.3354V839.671C28.3354 840.158 28.6606 840.61 29.311 841.026C29.9072 841.414 30.4221 841.784 30.8557 842.137C31.2351 842.444 31.5603 842.864 31.8313 843.397C32.0933 843.939 32.2242 844.544 32.2242 845.212V849.21C32.2242 850.456 31.9352 851.369 31.3571 851.947C30.7699 852.543 29.8575 852.841 28.62 852.841C27.3824 852.841 26.4701 852.543 25.8829 851.947C25.2958 851.359 25.0022 850.447 25.0022 849.21V845.05H28.3354V849.792Z" fill="white"/>
<path d="M38.6333 852.57L38.5249 848.681H37.6306L37.5222 852.57H34.2974L34.9884 833.14H41.1536L41.8446 852.57H38.6333ZM37.7119 845.903H38.4301L38.1591 835.646H37.9965L37.7119 845.903Z" fill="white"/>
<path d="M46.4651 852.57L46.3567 848.681H45.4624L45.354 852.57H42.1292L42.8202 833.14H48.9854L49.6764 852.57H46.4651ZM45.5437 845.903H46.2618L45.9908 835.646H45.8282L45.5437 845.903Z" fill="white"/>
<path d="M57.3185 836.391V839.643C57.3185 841.595 56.6139 842.647 55.2047 842.801V842.909C56.6139 843.117 57.3185 844.192 57.3185 846.134V849.318C57.3185 850.357 57.043 851.152 56.4919 851.703C55.9229 852.263 55.1324 852.552 54.1207 852.57H50.0964V833.14H54.1207C55.1505 833.158 55.9409 833.442 56.4919 833.993C57.043 834.544 57.3185 835.344 57.3185 836.391ZM53.9852 841.473V835.917H53.4297V841.473H53.9852ZM53.4297 844.25V849.792H53.9852V844.25H53.4297Z" fill="white"/>
<path d="M57.874 849.792H58.7141V833.14H62.0474V848.993C62.0474 850.212 61.7583 851.111 61.1802 851.689C60.593 852.276 59.6761 852.57 58.4296 852.57H57.874V849.792Z" fill="white"/>
<path d="M66.7627 835.917H65.9226V841.473H66.7627V844.25H65.9226V849.792H66.7627V852.57H62.5894V833.14H66.7627V835.917Z" fill="white"/>
<path d="M74.5267 836.391V839.643C74.5267 841.595 73.8221 842.647 72.413 842.801V842.909C73.8221 843.117 74.5267 844.192 74.5267 846.134V852.57H71.1935V844.25H70.6379V852.57H67.3047V833.14H71.329C72.3588 833.158 73.1492 833.442 73.7002 833.993C74.2512 834.544 74.5267 835.344 74.5267 836.391ZM71.1935 841.473V835.917H70.6379V841.473H71.1935Z" fill="white"/>
<path d="M82.5211 840.917H79.2285V835.917H78.3884V849.792H79.2285V844.25H78.8085V841.473H82.5211V849.264C82.5211 850.474 82.223 851.373 81.6268 851.96C81.0126 852.547 80.0731 852.841 78.8085 852.841C77.5438 852.841 76.6044 852.547 75.9901 851.96C75.3849 851.382 75.0823 850.483 75.0823 849.264V836.446C75.0823 835.217 75.3849 834.314 75.9901 833.736C76.5953 833.158 77.5348 832.869 78.8085 832.869C80.0822 832.869 81.0216 833.158 81.6268 833.736C82.223 834.314 82.5211 835.217 82.5211 836.446V840.917Z" fill="white"/>
<path d="M91.9518 836.391V839.643C91.9518 841.595 91.2472 842.647 89.838 842.801V842.909C91.2472 843.117 91.9518 844.192 91.9518 846.134V852.57H88.6185V844.25H88.063V852.57H84.7297V833.14H88.754C89.7838 833.158 90.5742 833.442 91.1252 833.993C91.6763 834.544 91.9518 835.344 91.9518 836.391ZM88.6185 841.473V835.917H88.063V841.473H88.6185Z" fill="white"/>
<path d="M93.3881 833.736C93.9662 833.158 94.8785 832.869 96.1251 832.869C97.3717 832.869 98.2841 833.158 98.8622 833.736C99.4403 834.314 99.7294 835.217 99.7294 836.446V849.264C99.7294 850.483 99.4403 851.382 98.8622 851.96C98.275 852.547 97.3627 852.841 96.1251 852.841C94.8876 852.841 93.9752 852.547 93.3881 851.96C92.8009 851.373 92.5073 850.474 92.5073 849.264V836.446C92.5073 835.226 92.8009 834.323 93.3881 833.736ZM96.3961 849.792V835.917H95.8406V849.792H96.3961Z" fill="white"/>
<path d="M103.618 849.792H104.174V845.47C104.174 844.91 103.853 844.417 103.212 843.993C102.561 843.568 102.046 843.203 101.667 842.895C101.288 842.579 100.962 842.155 100.691 841.622C100.42 841.08 100.285 840.456 100.285 839.752V836.5C100.285 835.271 100.578 834.354 101.166 833.749C101.753 833.162 102.665 832.869 103.903 832.869C105.14 832.869 106.053 833.162 106.64 833.749C107.218 834.336 107.507 835.253 107.507 836.5V840.104H104.174V835.917H103.618V839.671C103.618 840.158 103.943 840.61 104.594 841.026C105.19 841.414 105.705 841.784 106.138 842.137C106.518 842.444 106.843 842.864 107.114 843.397C107.376 843.939 107.507 844.544 107.507 845.212V849.21C107.507 850.456 107.218 851.369 106.64 851.947C106.053 852.543 105.14 852.841 103.903 852.841C102.665 852.841 101.753 852.543 101.166 851.947C100.578 851.359 100.285 850.447 100.285 849.21V845.05H103.618V849.792Z" fill="white"/>
<path d="M112.236 835.917H111.396V841.473H112.236V844.25H111.396V849.792H112.236V852.57H108.062V833.14H112.236V835.917Z" fill="white"/>
<path d="M118.32 833.14H121.653V852.57H118.32V844.25H117.764V852.57H114.431V833.14H117.764V841.473H118.32V833.14Z" fill="white"/>
<path d="M126.409 852.57L126.301 848.681H125.406L125.298 852.57H122.073L122.764 833.14H128.929L129.62 852.57H126.409ZM125.488 845.903H126.206L125.935 835.646H125.772L125.488 845.903Z" fill="white"/>
<path d="M133.374 833.14V849.792H134.214V852.57H130.04V833.14H133.374Z" fill="white"/>
<path d="M137.953 833.14V849.792H138.793V852.57H134.62V833.14H137.953Z" fill="white"/>
<path d="M146.639 840.917H143.346V835.917H142.506V849.792H143.346V844.25H142.926V841.473H146.639V849.264C146.639 850.474 146.341 851.373 145.745 851.96C145.13 852.547 144.191 852.841 142.926 852.841C141.661 852.841 140.722 852.547 140.108 851.96C139.503 851.382 139.2 850.483 139.2 849.264V836.446C139.2 835.217 139.503 834.314 140.108 833.736C140.713 833.158 141.652 832.869 142.926 832.869C144.2 832.869 145.139 833.158 145.745 833.736C146.341 834.314 146.639 835.217 146.639 836.446V840.917Z" fill="white"/>
<path d="M154.416 836.391V839.643C154.416 841.595 153.712 842.647 152.303 842.801V842.909C153.712 843.117 154.416 844.192 154.416 846.134V852.57H151.083V844.25H150.528V852.57H147.194V833.14H151.219C152.248 833.158 153.039 833.442 153.59 833.993C154.141 834.544 154.416 835.344 154.416 836.391ZM151.083 841.473V835.917H150.528V841.473H151.083Z" fill="white"/>
<path d="M159.145 835.917H158.305V841.473H159.145V844.25H158.305V849.792H159.145V852.57H154.972V833.14H159.145V835.917Z" fill="white"/>
<path d="M166.909 833.14H170.243V852.57H163.861L163.197 835.646H163.021V852.57H159.687V833.14H166.083L166.747 850.077H166.909V833.14Z" fill="white"/>
<path d="M175.784 833.14V849.792H176.625V852.57H172.451V833.14H175.784Z" fill="white"/>
<path d="M177.031 852.57V833.14H180.364V852.57H177.031Z" fill="white"/>
<path d="M181.787 833.736C182.365 833.158 183.277 832.869 184.524 832.869C185.771 832.869 186.683 833.158 187.261 833.736C187.839 834.314 188.128 835.217 188.128 836.446V849.264C188.128 850.483 187.839 851.382 187.261 851.96C186.674 852.547 185.762 852.841 184.524 852.841C183.286 852.841 182.374 852.547 181.787 851.96C181.2 851.373 180.906 850.474 180.906 849.264V836.446C180.906 835.226 181.2 834.323 181.787 833.736ZM184.795 849.792V835.917H184.24V849.792H184.795Z" fill="white"/>
<path d="M195.906 836.391V839.643C195.906 841.595 195.201 842.647 193.792 842.801V842.909C195.201 843.117 195.906 844.192 195.906 846.134V852.57H192.573V844.25H192.017V852.57H188.684V833.14H192.708C193.738 833.158 194.528 833.442 195.079 833.993C195.63 834.544 195.906 835.344 195.906 836.391ZM192.573 841.473V835.917H192.017V841.473H192.573Z" fill="white"/>
<path d="M205.337 833.14H208.67V852.57H202.288L201.624 835.646H201.448V852.57H198.115V833.14H204.51L205.174 850.077H205.337V833.14Z" fill="white"/>
<path d="M216.447 849.264C216.447 850.483 216.158 851.382 215.58 851.96C214.993 852.547 214.04 852.841 212.721 852.841C211.411 852.841 210.463 852.466 209.876 851.716L209.564 852.57H208.954L209.51 851.039C209.338 850.569 209.243 849.977 209.225 849.264V836.446C209.225 835.226 209.519 834.323 210.106 833.736C210.684 833.158 211.637 832.869 212.965 832.869C214.284 832.869 215.232 833.248 215.811 834.007L216.109 833.14H216.718L216.163 834.671C216.334 835.14 216.429 835.732 216.447 836.446V849.264ZM213.114 849.792V835.917H212.559V849.792H213.114Z" fill="white"/>
<path d="M224.225 833.14H227.558V852.57H221.176L220.512 835.646H220.336V852.57H217.003V833.14H223.398L224.062 850.077H224.225V833.14Z" fill="white"/>
<path d="M235.336 833.14H238.669V852.57H232.287L231.623 835.646H231.447V852.57H228.114V833.14H234.509L235.173 850.077H235.336V833.14Z" fill="white"/>
<path d="M243.398 835.917H242.558V841.473H243.398V844.25H242.558V849.792H243.398V852.57H239.225V833.14H243.398V835.917Z" fill="white"/>
<path d="M259.753 833.14V852.57H256.419V835.646H256.257L255.593 852.57H249.766L249.102 835.646H248.926V852.57H245.593V833.14H252.26L252.598 850.077H252.761L253.086 833.14H259.753Z" fill="white"/>
<path d="M264.509 852.57L264.4 848.681H263.506L263.397 852.57H260.173L260.864 833.14H267.029L267.72 852.57H264.509ZM263.587 845.903H264.305L264.034 835.646H263.872L263.587 845.903Z" fill="white"/>
<path d="M271.473 833.14V849.792H272.313V852.57H268.14V833.14H271.473Z" fill="white"/>
<path d="M276.609 833.14H279.942V849.264C279.942 850.483 279.653 851.382 279.075 851.96C278.487 852.547 277.575 852.841 276.338 852.841C275.1 852.841 274.188 852.547 273.6 851.96C273.013 851.373 272.72 850.474 272.72 849.264V833.14H276.053V849.792H276.609V833.14Z" fill="white"/>
<path d="M284.671 835.917H283.831V841.473H284.671V844.25H283.831V849.792H284.671V852.57H280.497V833.14H284.671V835.917Z" fill="white"/>
<path d="M290.755 833.14H294.088V852.57H290.755V844.25H290.199V852.57H286.866V833.14H290.199V841.473H290.755V833.14Z" fill="white"/>
<path d="M298.844 852.57L298.735 848.681H297.841L297.733 852.57H294.508L295.199 833.14H301.364L302.055 852.57H298.844ZM297.922 845.903H298.641L298.37 835.646H298.207L297.922 845.903Z" fill="white"/>
<path d="M309.697 833.14H313.03V852.57H306.648L305.984 835.646H305.808V852.57H302.475V833.14H308.871L309.535 850.077H309.697V833.14Z" fill="white"/>
<path d="M316.919 849.792H317.475V845.47C317.475 844.91 317.154 844.417 316.513 843.993C315.862 843.568 315.347 843.203 314.968 842.895C314.589 842.579 314.263 842.155 313.992 841.622C313.721 841.08 313.586 840.456 313.586 839.752V836.5C313.586 835.271 313.88 834.354 314.467 833.749C315.054 833.162 315.966 832.869 317.204 832.869C318.441 832.869 319.354 833.162 319.941 833.749C320.519 834.336 320.808 835.253 320.808 836.5V840.104H317.475V835.917H316.919V839.671C316.919 840.158 317.244 840.61 317.895 841.026C318.491 841.414 319.006 841.784 319.439 842.137C319.819 842.444 320.144 842.864 320.415 843.397C320.677 843.939 320.808 844.544 320.808 845.212V849.21C320.808 850.456 320.519 851.369 319.941 851.947C319.354 852.543 318.441 852.841 317.204 852.841C315.966 852.841 315.054 852.543 314.467 851.947C313.88 851.359 313.586 850.447 313.586 849.21V845.05H316.919V849.792Z" fill="white"/>
<path d="M325.537 835.917H324.697V841.473H325.537V844.25H324.697V849.792H325.537V852.57H321.364V833.14H325.537V835.917Z" fill="white"/>
<path d="M333.301 833.14H336.634V852.57H330.252L329.588 835.646H329.412V852.57H326.079V833.14H332.474L333.138 850.077H333.301V833.14Z" fill="white"/>
<path d="M342.732 833.14H346.065V852.57H342.732V844.25H342.176V852.57H338.843V833.14H342.176V841.473H342.732V833.14Z" fill="white"/>
<path d="M346.62 852.57V833.14H349.954V852.57H346.62Z" fill="white"/>
<path d="M358.544 846.879V839.169H357.934V846.879H358.544ZM351.607 842.218V843.275C351.607 846.87 351.738 848.952 352 849.521C352.253 850.072 352.537 850.605 352.853 851.12C353.151 851.626 353.739 852.046 354.615 852.38C355.473 852.714 356.674 852.882 358.219 852.882L358.273 853.491C356.756 853.491 355.69 853.383 355.075 853.166C354.515 852.967 354.028 852.782 353.612 852.611C353.269 852.466 352.966 852.227 352.704 851.892C352.397 851.504 352.176 851.206 352.04 850.998C351.851 850.745 351.661 850.226 351.471 849.44C351.272 848.645 351.155 847.769 351.119 846.811C351.074 845.745 351.051 844.476 351.051 843.004C351.051 841.432 351.078 840.213 351.132 839.345C351.169 838.505 351.313 837.575 351.566 836.554C351.792 835.569 352.338 834.707 353.206 833.966C354.055 833.234 355.726 832.869 358.219 832.869L358.273 832.814V832.869C360.766 832.869 362.442 833.234 363.3 833.966C364.149 834.689 364.696 835.551 364.94 836.554C365.184 837.602 365.324 838.532 365.36 839.345C365.405 840.294 365.427 841.577 365.427 843.193V846.798C365.427 847.972 365.224 848.799 364.818 849.277C364.411 849.756 363.54 849.995 362.203 849.995C360.866 849.995 359.917 849.458 359.357 848.383H359.154C358.946 849.458 358.088 849.995 356.579 849.995C355.938 849.995 355.45 849.819 355.116 849.467C354.764 849.115 354.588 848.613 354.588 847.963V839.698C354.588 838.478 354.881 837.575 355.468 836.988C356.047 836.41 356.968 836.12 358.233 836.12C359.506 836.12 360.437 836.41 361.024 836.988C361.611 837.575 361.905 838.478 361.905 839.698V847.164C361.905 847.841 361.99 848.293 362.162 848.519C362.325 848.762 362.713 848.884 363.327 848.884H363.381C364.023 848.884 364.429 848.758 364.601 848.505C364.782 848.243 364.872 847.796 364.872 847.164V843.193C364.872 840.14 364.755 838.103 364.52 837.083C364.149 835.493 363.287 834.44 361.932 833.925C361.028 833.573 359.949 833.397 358.693 833.397C357.42 833.397 356.448 833.469 355.78 833.614C355.148 833.749 354.565 833.916 354.032 834.115C353.544 834.305 353.151 834.648 352.853 835.145C352.528 835.669 352.244 836.206 352 836.757C351.738 837.354 351.607 839.174 351.607 842.218Z" fill="white"/>
<path d="M369.872 849.792H370.427V845.47C370.427 844.91 370.107 844.417 369.465 843.993C368.815 843.568 368.3 843.203 367.921 842.895C367.541 842.579 367.216 842.155 366.945 841.622C366.674 841.08 366.539 840.456 366.539 839.752V836.5C366.539 835.271 366.832 834.354 367.419 833.749C368.006 833.162 368.919 832.869 370.156 832.869C371.394 832.869 372.306 833.162 372.893 833.749C373.472 834.336 373.761 835.253 373.761 836.5V840.104H370.427V835.917H369.872V839.671C369.872 840.158 370.197 840.61 370.847 841.026C371.444 841.414 371.958 841.784 372.392 842.137C372.771 842.444 373.097 842.864 373.368 843.397C373.63 843.939 373.761 844.544 373.761 845.212V849.21C373.761 850.456 373.472 851.369 372.893 851.947C372.306 852.543 371.394 852.841 370.156 852.841C368.919 852.841 368.006 852.543 367.419 851.947C366.832 851.359 366.539 850.447 366.539 849.21V845.05H369.872V849.792Z" fill="white"/>
<path d="M378.381 833.14H381.592L380.901 852.57H374.736L374.045 833.14H377.27L377.744 849.792H377.907L378.381 833.14Z" fill="white"/>
<path d="M385.779 852.57L385.671 848.681H384.777L384.668 852.57H381.443L382.134 833.14H388.3L388.991 852.57H385.779ZM384.858 845.903H385.576L385.305 835.646H385.142L384.858 845.903Z" fill="white"/>
<path d="M396.633 836.391V839.643C396.633 841.595 395.928 842.647 394.519 842.801V842.909C395.928 843.117 396.633 844.192 396.633 846.134V852.57H393.299V844.25H392.744V852.57H389.411V833.14H393.435C394.465 833.158 395.255 833.442 395.806 833.993C396.357 834.544 396.633 835.344 396.633 836.391ZM393.299 841.473V835.917H392.744V841.473H393.299Z" fill="white"/>
<path d="M396.917 833.14H401.917V835.917H401.091V852.57H397.757V835.917H396.917V833.14Z" fill="white"/>
<path d="M405.806 833.14V849.792H406.646V852.57H402.473V833.14H405.806Z" fill="white"/>
<path d="M407.052 849.792H407.893V833.14H411.226V848.993C411.226 850.212 410.937 851.111 410.359 851.689C409.771 852.276 408.855 852.57 407.608 852.57H407.052V849.792Z" fill="white"/>
<path d="M415.657 833.14H418.99V849.264C418.99 850.483 418.701 851.382 418.123 851.96C417.536 852.547 416.623 852.841 415.386 852.841C414.148 852.841 413.236 852.547 412.649 851.96C412.061 851.373 411.768 850.474 411.768 849.264V833.14H415.101V849.792H415.657V833.14Z" fill="white"/>
<path d="M422.879 849.792H423.434V845.47C423.434 844.91 423.114 844.417 422.472 843.993C421.822 843.568 421.307 843.203 420.927 842.895C420.548 842.579 420.223 842.155 419.952 841.622C419.681 841.08 419.545 840.456 419.545 839.752V836.5C419.545 835.271 419.839 834.354 420.426 833.749C421.013 833.162 421.926 832.869 423.163 832.869C424.401 832.869 425.313 833.162 425.9 833.749C426.478 834.336 426.767 835.253 426.767 836.5V840.104H423.434V835.917H422.879V839.671C422.879 840.158 423.204 840.61 423.854 841.026C424.45 841.414 424.965 841.784 425.399 842.137C425.778 842.444 426.104 842.864 426.375 843.397C426.636 843.939 426.767 844.544 426.767 845.212V849.21C426.767 850.456 426.478 851.369 425.9 851.947C425.313 852.543 424.401 852.841 423.163 852.841C421.926 852.841 421.013 852.543 420.426 851.947C419.839 851.359 419.545 850.447 419.545 849.21V845.05H422.879V849.792Z" fill="white"/>
<path d="M427.323 852.57V847.57H430.656V852.57H427.323Z" fill="white"/>
<path d="M434.531 849.792H435.087V845.47C435.087 844.91 434.766 844.417 434.125 843.993C433.475 843.568 432.96 843.203 432.58 842.895C432.201 842.579 431.876 842.155 431.605 841.622C431.334 841.08 431.198 840.456 431.198 839.752V836.5C431.198 835.271 431.492 834.354 432.079 833.749C432.666 833.162 433.578 832.869 434.816 832.869C436.054 832.869 436.966 833.162 437.553 833.749C438.131 834.336 438.42 835.253 438.42 836.5V840.104H435.087V835.917H434.531V839.671C434.531 840.158 434.857 840.61 435.507 841.026C436.103 841.414 436.618 841.784 437.052 842.137C437.431 842.444 437.756 842.864 438.027 843.397C438.289 843.939 438.42 844.544 438.42 845.212V849.21C438.42 850.456 438.131 851.369 437.553 851.947C436.966 852.543 436.054 852.841 434.816 852.841C433.578 852.841 432.666 852.543 432.079 851.947C431.492 851.359 431.198 850.447 431.198 849.21V845.05H434.531V849.792Z" fill="white"/>
<path d="M443.149 835.917H442.309V841.473H443.149V844.25H442.309V849.792H443.149V852.57H438.976V833.14H443.149V835.917Z" fill="white"/>
</svg>
